<?xml version="1.0" encoding="UTF-8"?>
<svg width="294px" height="39px" viewBox="0 0 294 39" version="1.1" xmlns="http://www.w3.org/2000/svg" xmlns:xlink="http://www.w3.org/1999/xlink">
    <title>Group 8</title>
    <defs>
        <path d="M13.834002,1.47881864 C12.8063029,2.32695265 12.0893634,3.48994032 11.4978239,4.51366266 L11.4978239,4.51366266 C9.86343412,7.34213339 8.49451177,10.3409802 7.41378359,13.4528681 L7.41378359,13.4528681 C6.68507784,14.0107438 5.96555948,14.58898 5.25700153,15.186925 L5.25700153,15.186925 C2.95499411,17.1297986 0.464564428,19.454308 0.0543551514,22.4593443 L0.0543551514,22.4593443 C-0.479964595,26.3766907 3.0633087,29.5472167 4.62290987,30.7359399 L4.62290987,30.7359399 C4.7886054,32.1101874 5.18866018,33.4090199 6.00504918,34.4918689 L6.00504918,34.4918689 C7.15492461,36.0172722 8.89730665,36.6872117 10.5837584,36.9401697 L10.5837584,36.9401697 C11.2397709,37.5487022 12.0774359,38.0257877 13.0258333,38.3010607 L13.0258333,38.3010607 C13.0301853,38.3023638 13.0345372,38.3031782 13.0387279,38.3044813 L13.0387279,38.3044813 C13.887031,38.7616951 14.8897469,38.9991791 15.9440412,39 L15.9440412,39 C16.7921831,39.0008079 17.6735286,38.8490006 18.5331145,38.5370788 L18.5331145,38.5370788 C18.6399785,38.4981497 18.7450694,38.4562886 18.8501603,38.4137761 L18.8501603,38.4137761 C22.4877254,37.9775742 25.3886867,37.3478669 27.9548721,36.4358826 L27.9548721,36.4358826 C31.318427,35.240644 33.9629471,33.6020367 36.0394603,31.4267285 L36.0394603,31.4267285 C37.665791,29.7231308 38.7113814,27.8485054 39.0634038,26.0058052 L39.0634038,26.0058052 C39.4908596,23.767624 38.8570903,21.5589247 37.4093497,20.2418493 L37.4093497,20.2418493 C36.7962118,19.6839736 36.058641,19.2972883 35.3407345,18.9900902 L35.3407345,18.9900902 C35.6874379,17.8593534 35.9343693,16.7237302 36.0834631,15.5763793 L36.0834631,15.5763793 C36.4459624,12.7863491 36.1190844,10.2450418 35.1384505,8.2275677 L35.1384505,8.2275677 C33.9518255,5.78643377 31.7587774,4.12225379 29.4150237,3.88476975 L29.4150237,3.88476975 C28.2374249,3.76553908 27.0578919,3.99960257 26.0047259,4.27194366 L26.0047259,4.27194366 C24.4478649,2.37467749 22.6364967,1.04620026 20.7382513,0.416981575 L20.7382513,0.416981575 C19.8936554,0.136984963 19.0284281,0 18.1846381,0 L18.1846381,0 C16.5583074,0 15.0101502,0.508033411 13.834002,1.47881864 M12.0387522,4.8327513 C12.6025683,3.85707957 13.2834029,2.75044956 14.2301884,1.96909776 L14.2301884,1.96909776 C15.2952819,1.08985301 16.7035328,0.630847515 18.1878618,0.632309966 L18.1878618,0.632309966 C18.964761,0.632802117 19.7627752,0.759688307 20.5430594,1.01834719 L20.5430594,1.01834719 C22.2543332,1.58567017 23.898394,2.76738944 25.3358188,4.4533958 L25.3358188,4.4533958 C21.5159565,5.51523286 17.7936095,7.03281776 14.2691946,8.9686873 L14.2691946,8.9686873 C12.2407137,10.0828099 10.2510779,11.3567212 8.32285248,12.772504 L8.32285248,12.772504 C9.33668995,10.0163535 10.5808571,7.35581559 12.0387522,4.8327513 M34.5860783,18.687127 C33.3681839,18.2217691 32.1238556,17.813909 30.8595406,17.463058 L30.8595406,17.463058 C30.7707291,16.5593808 30.6546778,15.6894204 30.50913,14.8458471 L30.50913,14.8458471 C29.8129831,10.8108989 28.4780703,7.52961221 26.4320205,4.81678872 L26.4320205,4.81678872 C27.3596254,4.58972923 28.3695945,4.41479242 29.3524849,4.51447708 L29.3524849,4.51447708 C31.4826719,4.73046051 33.4843964,6.26009878 34.5764074,8.50658701 L34.5764074,8.50658701 C35.5022393,10.4118345 35.8088082,12.8280472 35.4625884,15.4939603 L35.4625884,15.4939603 C35.3168795,16.6141096 35.0765565,17.7003792 34.7569317,18.7529319 L34.7569317,18.7529319 C34.6995508,18.7307798 34.6424922,18.7087905 34.5860783,18.687127 M6.88558878,31.420539 C6.3240292,31.0994957 5.74570665,30.7686795 5.21654474,30.3899755 L5.21654474,30.3899755 C5.07712195,28.9582302 5.18624245,27.4370619 5.32598761,26.0106917 L5.32598761,26.0106917 C5.67672057,22.4347489 6.36013407,18.9505095 7.35720856,15.6544005 L7.35720856,15.6544005 C7.54111771,15.0465195 7.73743791,14.4428735 7.94310668,13.8429739 L7.94310668,13.8429739 C10.0813528,12.2178859 12.3005124,10.7705038 14.568188,9.5249342 L14.568188,9.5249342 C18.1169415,7.5758711 21.8678177,6.05453989 25.7171765,5.00329025 L25.7171765,5.00329025 C25.7349065,4.99824086 25.7534425,4.99351724 25.7713338,4.98846786 L25.7713338,4.98846786 C25.8022808,5.02804853 25.8337114,5.06632613 25.8641748,5.10639546 L25.8641748,5.10639546 C28.5941216,8.67761461 29.7823585,13.0052644 30.2248042,17.2925191 L30.2248042,17.2925191 C28.4653369,16.8340023 26.6686363,16.4859204 24.8485644,16.2541372 L24.8485644,16.2541372 C21.9311624,15.8826002 18.887877,15.8089768 15.8031677,16.0352219 L15.8031677,16.0352219 C13.3112874,16.2179771 10.5046178,16.566059 8.73515713,18.3962172 L8.73515713,18.3962172 C6.42122221,20.7894634 7.20618063,24.6812371 7.65120531,26.2434521 L7.65120531,26.2434521 C7.8273777,26.862572 8.08381894,27.4535131 8.33155633,28.0247453 L8.33155633,28.0247453 C8.66520396,28.7933922 8.9803156,29.5195265 9.11941604,30.3114657 L9.11941604,30.3114657 C9.23143782,30.949643 9.18227718,31.5995479 9.13037644,32.2878932 L9.13037644,32.2878932 C9.11619239,32.4761865 9.10200833,32.6664343 9.09120911,32.8578223 L9.09120911,32.8578223 C8.40408842,32.2901736 7.63444233,31.8485966 6.88558878,31.420539 M0.675229861,22.5458354 C1.05465329,19.7646009 3.44643933,17.5397761 5.65834578,15.6728063 L5.65834578,15.6728063 C6.11819924,15.284818 6.58304936,14.906114 7.05160668,14.5350656 L7.05160668,14.5350656 C6.95119003,14.8456842 6.85270756,15.1567916 6.75809348,15.4693649 L6.75809348,15.4693649 C5.7489303,18.8052175 5.05745769,22.3308293 4.70269517,25.9481444 L4.70269517,25.9481444 C4.57793997,27.2204269 4.47752332,28.5668213 4.54860477,29.8728206 L4.54860477,29.8728206 C2.94355016,28.553302 0.231172274,25.7994319 0.675229861,22.5458354 M10.9894546,35.1960139 C10.6035838,34.5894361 10.2056244,33.9657554 9.69918923,33.424168 L9.69918923,33.424168 C9.70047868,33.0697337 9.7269126,32.7084582 9.75495835,32.3359438 L9.75495835,32.3359438 C9.80750382,31.6388028 9.86198348,30.9178807 9.7361,30.2008679 L9.7361,30.2008679 C9.58410497,29.3344909 9.2390134,28.5396198 8.90536577,27.7704842 L8.90536577,27.7704842 C8.6656875,27.2181465 8.41795011,26.6469144 8.25306049,26.0683524 L8.25306049,26.0683524 C7.83849929,24.6125003 7.09915549,20.9942079 9.18308309,18.8386086 L9.18308309,18.8386086 C10.7994205,17.166936 13.4711804,16.8408434 15.8486212,16.6665581 L15.8486212,16.6665581 C17.0121971,16.5810443 18.169487,16.5390204 19.3159776,16.539981 L19.3159776,16.539981 C21.1686084,16.5416265 22.9933546,16.6558078 24.7700685,16.8822157 L24.7700685,16.8822157 C26.6397847,17.1201884 28.4843564,17.4819525 30.2881489,17.9626215 L30.2881489,17.9626215 C30.5271825,20.7544435 30.4669002,23.5115713 30.3268327,26.0128092 L30.3268327,26.0128092 C30.3044283,26.409919 30.2796063,26.8111008 30.2476921,27.2134229 L30.2476921,27.2134229 C28.1997082,29.901651 25.8291983,32.2562938 23.6287358,34.2778401 L23.6287358,34.2778401 C23.1949938,34.6764158 22.7506139,35.0764575 22.2936617,35.4629799 L22.2936617,35.4629799 C22.2569121,35.4554872 22.2204849,35.4481575 22.1838965,35.440502 L22.1838965,35.440502 C21.3949085,35.2772928 20.5778748,35.1090342 19.736019,35.149755 L19.736019,35.149755 C18.7158954,35.198783 17.7355839,35.4822001 16.7873476,35.7560072 L16.7873476,35.7560072 C16.101194,35.9542363 15.3915078,36.1591436 14.6877853,36.2666467 L14.6877853,36.2666467 C14.0917327,36.3575357 13.2034564,36.4546142 12.2089608,36.4386516 L12.2089608,36.4386516 C12.0867845,36.1050663 11.9858843,35.7301087 11.913191,35.3364195 L11.913191,35.3364195 C11.9314047,35.3027026 11.9438157,35.2652394 11.9465558,35.2246814 L11.9465558,35.2246814 C11.9536478,35.1214133 12.0946825,34.212198 14.8236621,34.0770048 L14.8236621,34.0770048 C17.2631582,33.9563082 19.153828,32.5025736 20.2914536,29.8733093 L20.2914536,29.8733093 C21.1368554,27.9187082 21.2682191,26.0302377 21.273377,25.9509135 L21.273377,25.9509135 L21.287561,25.7319981 L21.0770568,25.6780837 C20.975673,25.6518595 19.9337898,25.4511871 14.68569,26.4200177 L14.68569,26.4200177 C13.3796288,26.6612481 12.396416,27.3034974 11.7636138,28.3285229 L11.7636138,28.3285229 C10.4108096,30.5202823 11.047319,33.8150882 11.3355132,34.9785646 L11.3355132,34.9785646 C11.381289,35.3421204 11.4494692,35.697532 11.5371524,36.0304657 L11.5371524,36.0304657 C11.3506644,35.7623596 11.1719131,35.4825259 10.9894546,35.1960139 M30.9522205,26.0486435 C31.1195279,23.0641305 31.1100181,20.4801478 30.9196617,18.136581 L30.9196617,18.136581 C32.0875895,18.4675601 33.2376262,18.8485445 34.3646137,19.2793712 L34.3646137,19.2793712 C34.4300537,19.3042923 34.4966221,19.3301908 34.5635128,19.3560892 L34.5635128,19.3560892 C33.7226241,21.8573272 32.4415461,24.1635936 30.9390036,26.2748886 L30.9390036,26.2748886 C30.9433555,26.1994736 30.9480298,26.1238957 30.9522205,26.0486435 M24.5652057,36.3474369 C26.6067423,36.2233197 28.6155589,34.6953103 29.6825865,32.4548487 L29.6825865,32.4548487 C30.4330519,30.8794402 30.7138317,29.141474 30.8584123,27.42566 L30.8584123,27.42566 C31.1812607,26.9961364 31.4912146,26.5672644 31.7861784,26.137415 L31.7861784,26.137415 C33.2942012,23.9396289 34.407327,21.7744195 35.1460261,19.5945506 L35.1460261,19.5945506 C35.7972031,19.8766647 36.4561169,20.2263754 36.9901142,20.7122567 L36.9901142,20.7122567 C38.2757053,21.8817597 38.8343636,23.8642139 38.4483317,25.8857601 L38.4483317,25.8857601 C38.1195195,27.6079266 37.1305041,29.372117 35.588633,30.987269 L35.588633,30.987269 C31.5226451,35.2466707 25.6493187,36.8053022 20.5254905,37.554566 L20.5254905,37.554566 C21.2040685,37.1346525 21.8473476,36.6530062 22.4641927,36.1430182 L22.4641927,36.1430182 C23.0433212,36.2581768 23.6361502,36.3572099 24.2428408,36.3572099 L24.2428408,36.3572099 C24.3498659,36.3572099 24.4572134,36.3541151 24.5652057,36.3474369 M12.2065431,28.6077051 C12.7582705,27.7138008 13.6238201,27.1525045 14.7794981,26.9389643 L14.7794981,26.9389643 C18.4040074,26.2698392 19.9721512,26.1691773 20.5906082,26.1696641 L20.5906082,26.1696641 C20.6428313,26.1696641 20.6882847,26.1704803 20.7276133,26.1716205 L20.7276133,26.1716205 C20.662012,26.7474134 20.4434486,28.2102695 19.8077451,29.6744286 L19.8077451,29.6744286 C18.739428,32.1342941 17.0539434,33.4385018 14.7983565,33.5500769 L14.7983565,33.5500769 L14.7980341,33.5500769 C13.0625829,33.6360794 12.2139575,34.0336778 11.8019752,34.43714 L11.8019752,34.43714 C11.754104,33.6877134 11.8198664,32.9312828 12.0477784,32.304996 L12.0477784,32.304996 C12.2872955,31.6464583 12.68187,31.1944568 13.2202193,30.9620221 L13.2202193,30.9620221 C13.5350086,30.8261773 14.0003423,30.8136353 14.4927546,30.8004418 L14.4927546,30.8004418 C15.4646846,30.7743804 16.6741976,30.7421295 16.9638424,29.5525918 L16.9638424,29.5525918 L16.4569237,29.4266829 C16.2755934,30.1717117 15.5886339,30.2433804 14.4790541,30.2731881 L14.4790541,30.2731881 C13.9353858,30.2876847 13.4216974,30.3015298 13.0151953,30.4769553 L13.0151953,30.4769553 C12.3393574,30.7688424 11.8488793,31.322646 11.5577838,32.1230552 L11.5577838,32.1230552 C11.5273203,32.2061257 11.5010476,32.2922911 11.4755808,32.3792708 L11.4755808,32.3792708 C11.409496,31.1296292 11.5345735,29.6964179 12.2065431,28.6077051 M23.0844227,35.6146243 C23.4124289,35.3279495 23.7339879,35.0367139 24.0500666,34.7462928 L24.0500666,34.7462928 C26.5238945,32.4737432 28.5030535,30.3979568 30.1334138,28.3602851 L30.1334138,28.3602851 C29.9704584,29.6833872 29.6851655,30.990201 29.1181257,32.1803902 L29.1181257,32.1803902 C28.1479687,34.2174103 26.3461103,35.6050142 24.527489,35.715775 L24.527489,35.715775 C24.4319078,35.7214759 24.3368102,35.7242449 24.2418737,35.7242449 L24.2418737,35.7242449 C23.8551971,35.7242449 23.4722276,35.6797777 23.0844227,35.6146243 M6.50342524,34.1082784 C5.87674797,33.2770843 5.5187618,32.2896849 5.33050072,31.2291509 L5.33050072,31.2291509 C5.74119355,31.4935107 6.16365269,31.7352297 6.57740798,31.9715736 L6.57740798,31.9715736 C7.46310541,32.4779782 8.29980339,32.9563668 9.01432509,33.6269579 L9.01432509,33.6269579 C9.03592354,33.6473183 9.05591016,33.6691447 9.07718624,33.689668 L9.07718624,33.689668 C9.08589009,33.9506072 9.10974509,34.2120352 9.15890573,34.4728115 L9.15890573,34.4728115 C9.27270052,35.0754802 9.52946413,35.6496443 9.90002253,36.1671249 L9.90002253,36.1671249 C8.60927365,35.8602526 7.36317231,35.2486253 6.50342524,34.1082784 M10.8701796,36.3433648 C10.3590701,35.8299562 9.9938307,35.2245185 9.82475034,34.575591 L9.82475034,34.575591 C10.0442808,34.8821376 10.2509167,35.2054612 10.4627104,35.538232 L10.4627104,35.538232 C10.6369486,35.8120391 10.8134433,36.0891038 11.0008985,36.3604676 L11.0008985,36.3604676 C10.9575404,36.3554182 10.9136988,36.3490657 10.8701796,36.3433648 M14.7812712,36.8924448 C15.5248057,36.779078 16.2541562,36.5684697 16.9596517,36.3647025 L16.9596517,36.3647025 C17.9154634,36.0884522 18.8182462,35.827513 19.7658377,35.7817427 L19.7658377,35.7817427 C20.4004129,35.7517722 21.0199982,35.8522713 21.6613431,35.9799719 L21.6613431,35.9799719 C20.7392184,36.7069206 19.7601963,37.3529163 18.6967147,37.7949819 L18.6967147,37.7949819 C18.6309522,37.8029632 18.5642227,37.8111074 18.4987827,37.8186 L18.4987827,37.8186 C16.7633315,38.0199239 14.9318155,38.1753147 13.2669622,37.7107712 L13.2669622,37.7107712 C12.9808634,37.5498424 12.715396,37.3607347 12.4776519,37.1429595 L12.4776519,37.1429595 C12.4526686,37.119993 12.4294584,37.0955605 12.4051198,37.0722681 L12.4051198,37.0722681 C12.4120507,37.0722681 12.4191427,37.072431 12.4260735,37.072431 L12.4260735,37.072431 C12.4304255,37.072431 12.4349386,37.072431 12.4394517,37.072431 L12.4394517,37.072431 C13.378984,37.072431 14.2074617,36.9799132 14.7812712,36.8924448" id="path-1"></path>
    </defs>
    <g id="Page-1" stroke="none" stroke-width="1" fill="none" fill-rule="evenodd">
        <g id="HOME-01-Copy-2" transform="translate(-905.000000, -667.000000)">
            <g id="Group-7" transform="translate(150.000000, 613.000000)">
                <g id="Group-4" transform="translate(665.000000, 54.000000)">
                    <g id="Group-8" transform="translate(91.000000, 0.000000)">
                        <path d="M0,19 L115.835476,19.1986818 M174.4463,19.2992115 L291.510067,19.5" id="Shape" stroke="#DACEB6" stroke-linecap="square"></path>
                        <g id="Group" transform="translate(130.000000, 3.000000)" fill="#DACEB6">
                            <path d="M15.6418158,15.8582114 L16.4959899,15.8582114 L16.4959899,15.0478838 L15.6418158,15.0478838 L15.6418158,15.8582114 Z M15.6418158,14.2383052 L16.4959899,14.2383052 L16.4959899,13.4279776 L15.6418158,13.4279776 L15.6418158,14.2383052 Z M13.9326775,14.2375563 L14.7868516,14.2375563 L14.7868516,13.4272287 L13.9326775,13.4272287 L13.9326775,14.2375563 Z M13.9326775,15.8574625 L14.7868516,15.8574625 L14.7868516,15.0471349 L13.9326775,15.0471349 L13.9326775,15.8574625 Z M17.3509541,15.8582114 L18.2051282,15.8582114 L18.2051282,15.0478838 L17.3509541,15.0478838 L17.3509541,15.8582114 Z M17.3509541,14.2383052 L18.2051282,14.2383052 L18.2051282,13.4279776 L17.3509541,13.4279776 L17.3509541,14.2383052 Z M19.0600924,15.8582114 L19.9142665,15.8582114 L19.9142665,15.0478838 L19.0600924,15.0478838 L19.0600924,15.8582114 Z M19.0600924,14.2383052 L19.9142665,14.2383052 L19.9142665,13.4279776 L19.0600924,13.4279776 L19.0600924,14.2383052 Z M20.7692308,15.4770129 L20.7692308,11.5384615 L18.8459563,12.618399 L18.8459563,11.5384615 L16.923472,12.618399 L16.923472,11.5384615 L15.0001975,12.6191479 L14.9994074,11.5392105 L13.0769231,12.6191479 L13.0769231,16.6228551 C13.9824582,17.2908885 15.1171427,17.6923077 16.3537592,17.6923077 C18.1893248,17.6923077 19.8075935,16.8145777 20.7692308,15.4770129 L20.7692308,15.4770129 Z" id="Fill-1021"></path>
                            <path d="M13.8461538,9.23076923 L12.6918504,9.23076923 L12.362572,9.23076923 L11.5384615,9.23076923 L11.5384615,15.1723831 C11.8201774,15.5350281 12.1549437,15.8616488 12.5272112,16.1538462 L12.5272112,12.1167189 C12.5272112,12.0150502 12.5884936,11.9205864 12.6881917,11.8685512 L13.8461538,11.2681456 L13.8461538,9.23076923 Z" id="Fill-1022"></path>
                            <path d="M27.3931092,18.9245267 C27.3402622,18.9130476 27.2858833,18.9015686 27.2338022,18.8908548 C26.8814886,18.8196847 26.5375999,18.7561673 26.202902,18.704129 L26.1806909,18.7010679 C25.4707024,18.5901038 24.798243,18.5204642 24.1625468,18.4875576 C24.1625468,18.4875576 24.1625468,18.4867924 24.1633127,18.4867924 C23.8745687,18.471487 23.5919519,18.4615385 23.318526,18.4615385 C17.3483424,18.4615385 14.8545749,21.9152011 13.7524461,24.6334394 C13.502763,25.2494816 13.3243085,25.8280256 13.1925738,26.3200941 L13.1925738,26.3216246 C13.1481517,26.4846271 13.1106226,26.6392116 13.0769231,26.7815518 C13.2400596,26.5450834 13.4131528,26.3239204 13.5908414,26.1104101 C13.6138184,26.0836257 13.6352635,26.0553107 13.6582405,26.0285263 C13.8282701,25.8280256 14.0051928,25.6390039 14.1844132,25.4584003 C14.2158151,25.4277895 14.246451,25.3964134 14.2778529,25.3658026 C14.4586051,25.1890253 14.6431868,25.0214312 14.8300661,24.8630204 C14.8591703,24.839297 14.8875086,24.8155736 14.9166127,24.7918503 C15.1111511,24.6311436 15.309519,24.4773244 15.5094186,24.3342189 C15.5209071,24.325801 15.5331615,24.3181483 15.54465,24.3097303 C15.7552723,24.1605027 15.9681922,24.0212236 16.1818781,23.8903624 C16.1857076,23.8880666 16.1887712,23.8857708 16.1926006,23.883475 C16.4070524,23.7533792 16.62227,23.6332318 16.8367218,23.5207371 C16.8535716,23.5115539 16.8711873,23.5023707 16.8872711,23.4931874 C17.1001911,23.3837538 17.3108133,23.281973 17.5199038,23.1878448 C17.5352218,23.1809573 17.549008,23.1748352 17.5635601,23.1679478 C20.0037146,22.0820299 22.2010792,22.0146862 22.2010792,22.0146862 C20.9871291,22.5434876 19.9301883,23.1235621 19.0072799,23.7258294 C18.8234641,23.8459768 18.6457755,23.9661242 18.4734482,24.0878021 C18.4565984,24.0992811 18.4397486,24.1115254 18.4228989,24.1230045 C17.7274625,24.6158382 17.1208704,25.1193858 16.5985272,25.6214027 C16.5816774,25.6382387 16.5640617,25.6543093 16.5472119,25.6711453 C16.4246681,25.7905274 16.3059537,25.9091442 16.1926006,26.027761 C16.1818781,26.0384748 16.1734532,26.0491886 16.1627306,26.0599023 C15.8326281,26.4073348 15.54465,26.7517062 15.2934351,27.0891902 C15.2582037,27.136637 15.2222065,27.1840837 15.1885069,27.2307651 C15.1264691,27.3172406 15.0674949,27.4021856 15.0108183,27.4871305 C14.9694598,27.5498826 14.9303989,27.6111042 14.8913381,27.6730911 C14.8438523,27.746557 14.7963666,27.8207882 14.7534762,27.8934888 C14.6784181,28.0197583 14.6087213,28.1452626 14.5451517,28.2677057 C14.5191111,28.3159177 14.4991977,28.3625992 14.4762207,28.4100459 C14.4317986,28.4995825 14.3896741,28.5883538 14.3521451,28.6748293 C14.3306999,28.7238065 14.3115524,28.7720185 14.292405,28.8202305 C14.2564077,28.9082365 14.2242399,28.9954773 14.1951358,29.0804223 C14.1805837,29.119451 14.1660316,29.1600103 14.1537772,29.1990391 C14.1154823,29.320717 14.0810168,29.4408643 14.0549762,29.5556548 C14.0557421,29.5556548 14.0557421,29.5556548 14.056508,29.5556548 C14.4241396,29.6428956 14.7810486,29.7133004 15.1310645,29.774522 C15.2436517,29.7936537 15.3508775,29.8081938 15.4619329,29.8250298 C15.6985957,29.8617627 15.9329609,29.8931388 16.1627306,29.9183927 C16.2822108,29.930637 16.4009252,29.9413508 16.5188737,29.9512993 C16.7379208,29.9696658 16.9523726,29.9819101 17.1637607,29.9887975 C17.2702207,29.9933891 17.3782125,29.998746 17.4839065,29.9995113 C17.6891675,30.0018071 17.8875354,29.9956849 18.0859032,29.9880322 C18.1984904,29.9842059 18.3141412,29.9834406 18.4236648,29.9757879 C18.6511368,29.9612478 18.8701839,29.9367592 19.0869334,29.9092095 C19.1573961,29.9000262 19.2316883,29.8954346 19.3013851,29.8854861 C19.5855337,29.8441615 19.8604915,29.7921232 20.1277903,29.7309016 C20.1898281,29.7163615 20.2480364,29.6972297 20.3093084,29.6819243 C20.5115057,29.6306512 20.7106395,29.5778476 20.9028802,29.5158608 C20.9932563,29.4875458 21.0782711,29.4538739 21.1663495,29.4224979 C21.3241247,29.3673984 21.4803681,29.3107685 21.6320161,29.2480163 C21.723924,29.2097529 21.8127683,29.167663 21.9023785,29.127869 C22.042538,29.0643516 22.1803999,29.0000689 22.3144322,28.9304294 C22.4025106,28.8852785 22.4890572,28.8378317 22.5748379,28.7896197 C22.703509,28.7184496 22.8298823,28.6449837 22.9531921,28.5684568 C23.0359092,28.5171837 23.1163286,28.4651453 23.196748,28.4123417 C23.3169942,28.3319884 23.4349426,28.2493392 23.5505934,28.1643943 C23.6248856,28.1092949 23.6991778,28.055726 23.7711723,27.999096 C23.887589,27.9087942 23.9994103,27.814666 24.1112315,27.7197725 C24.1748012,27.6646731 24.2399026,27.6111042 24.3027063,27.5552395 C24.4206548,27.448867 24.5340078,27.3386682 24.6450632,27.2277041 C24.6940807,27.1802573 24.7446301,27.1335759 24.7921158,27.0845986 C24.9338072,26.9376668 25.0701372,26.7884392 25.2018719,26.6361505 C25.2148921,26.6208451 25.2294442,26.606305 25.2424645,26.5909996 C25.390283,26.4188139 25.5296767,26.2435671 25.6644749,26.0667898 C25.686686,26.036179 25.7081312,26.0055682 25.7303422,25.9757227 C25.838334,25.8310867 25.9424963,25.6849201 26.0420632,25.5379883 C26.0795922,25.4828889 26.1140577,25.4270242 26.150055,25.3719248 C26.2304744,25.2487163 26.3108938,25.1247426 26.3867178,25.0000037 C26.4242468,24.9364863 26.46101,24.8729689 26.4977731,24.8094515 C26.5667041,24.6923652 26.6341032,24.5745137 26.6984387,24.4566621 C26.734436,24.3908489 26.7689014,24.325801 26.802601,24.2599878 C26.8638729,24.1436668 26.9228472,24.0273457 26.9795237,23.9125553 C27.0116914,23.8475073 27.0430933,23.7824594 27.0737293,23.7181767 C27.128874,23.6010905 27.1817211,23.4855347 27.2330363,23.369979 C27.2598428,23.3087574 27.2874151,23.2475358 27.3134557,23.1870795 C27.3647709,23.0669321 27.4130226,22.9483153 27.4605083,22.8304638 C27.4819535,22.7768949 27.5041646,22.7225607 27.5248439,22.6697571 C27.5753932,22.538896 27.6228789,22.4103306 27.668067,22.2832959 C27.6818532,22.2465629 27.6964053,22.2082994 27.7094255,22.1715665 C27.8250763,21.8409699 27.9254091,21.5249135 28.0104239,21.2310499 C28.0180829,21.2035002 28.024976,21.1782463 28.032635,21.1506966 C28.0655686,21.0343755 28.0969705,20.9203503 28.1253088,20.811682 C28.1367972,20.7703575 28.1452221,20.7313287 28.1559447,20.6907694 C28.1781558,20.6012328 28.2011328,20.5132268 28.2202802,20.4298124 C28.2310028,20.386192 28.2394277,20.3448674 28.2493844,20.3035429 C28.2670001,20.2293117 28.283084,20.1566111 28.2976361,20.0885021 C28.3060609,20.048708 28.3137199,20.0104445 28.3221448,19.9729463 C28.3343992,19.9094289 28.3474195,19.8482073 28.3581421,19.7915774 C28.3650352,19.7586708 28.3703965,19.7257642 28.3765237,19.6951534 C28.3864803,19.6415845 28.3956711,19.591842 28.4033301,19.5451605 C28.4071596,19.5206719 28.4125209,19.4938874 28.4163504,19.4716946 C28.4232435,19.4280742 28.4293707,19.390576 28.434732,19.3561389 C28.4370297,19.3400682 28.4400933,19.3209365 28.442391,19.3063963 C28.4477523,19.2719592 28.4515818,19.2436442 28.4546454,19.2222166 C28.4554113,19.217625 28.4561772,19.2092071 28.4569431,19.2053807 C28.4600067,19.1839532 28.4615385,19.1701783 28.4615385,19.1701783 C28.0954387,19.0775807 27.7408274,18.9972273 27.3931092,18.9245267" id="Fill-1023"></path>
                            <path d="M10.9914317,16.5114441 C10.9810863,16.4945078 10.9707409,16.4775715 10.9595997,16.4606352 C10.862512,16.2961111 10.7590579,16.1323935 10.6476459,15.9702889 C10.6396879,15.9581915 10.6301383,15.9452877 10.6213845,15.9331903 C10.5044018,15.7638273 10.3794611,15.5952707 10.2457666,15.4291337 C10.2433792,15.4251012 10.240196,15.4210688 10.2370128,15.4170363 C10.0977477,15.2436408 9.94972884,15.0718583 9.79295615,14.9033018 C8.76955673,13.8016356 7.34984867,12.8023937 5.39456689,12.0354211 C5.2354068,11.9725148 5.0706761,11.912028 4.903558,11.8523477 C4.83989396,11.829766 4.77384252,11.8071842 4.70858688,11.785409 C4.46268453,11.7007275 4.20802838,11.6200784 3.94541422,11.5418488 C3.82206514,11.5055567 3.70030767,11.4692646 3.57377539,11.4345855 C3.44167251,11.3982935 3.30718223,11.3628079 3.17110035,11.3289353 C2.97851663,11.2805458 2.78274972,11.2337694 2.58220799,11.1886059 C2.48114133,11.1660242 2.38007467,11.1426359 2.27662061,11.1208607 C2.00604845,11.0644063 1.72751828,11.0119845 1.44341751,10.961982 C1.35349205,10.9466587 1.261975,10.9313354 1.17125374,10.9168186 C0.844179744,10.8635902 0.511535143,10.8127813 0.165361934,10.7692308 C0.165361934,10.7692308 0.0889650877,11.2224785 0.0396254579,11.9757408 C0.0237094483,12.2273658 0.0101808401,12.512057 0.00381443627,12.8241689 C-0.0176721767,13.9169637 0.0451960613,15.3476781 0.35794565,16.8727519 C0.447075304,17.3082569 0.557691571,17.7518267 0.691386052,18.197816 C0.825876333,18.6429989 0.983444828,19.0906012 1.16966214,19.534171 C1.35667525,19.9777409 1.57074558,20.4180847 1.81823953,20.8487507 C1.94079281,21.0640837 2.07209989,21.2769973 2.21216077,21.4866848 C2.77160851,22.3262416 3.46554653,23.1166024 4.32660265,23.8134103 C4.54226458,23.9876123 4.76827191,24.1553624 5.00462466,24.3166605 C5.47733014,24.6400632 5.99460046,24.9360453 6.5580272,25.2005742 C7.40396311,25.5973676 8.35653628,25.9207704 9.42927533,26.1538462 C9.42927533,26.1538462 9.43007113,26.1393293 9.43166273,26.125619 C9.43166273,26.1215865 9.43245853,26.1151346 9.43245853,26.1094892 C9.43643753,26.0602932 9.44280394,25.9691598 9.44757874,25.8385083 C9.44757874,25.8352824 9.44837454,25.8320564 9.44837454,25.8288304 C9.48179816,24.9312063 9.46269895,22.2980144 8.31833786,19.578528 C7.78753894,18.3171766 7.01561247,17.037276 5.89273799,15.9033502 C5.89273799,15.9033502 10.5338464,18.2978209 12.1763786,23.5706566 C12.3761245,22.11978 12.5161854,19.5333645 11.2787156,17.0421149 C11.1903818,16.864687 11.0940899,16.6872591 10.9914317,16.5114441" id="Fill-1024"></path>
                            <path d="M9.81237844,10.208676 C10.8861735,6.77739991 14.6123206,4.74780393 18.1166545,5.79944784 C21.6194209,6.85109175 23.5789009,10.4665974 22.470619,14.0084113 C22.1171288,15.1391204 21.4752032,16.1001848 20.6537892,16.8501527 C21.6045289,16.6513383 22.6179719,16.5492444 23.6917669,16.5492444 C24.8807794,16.5492444 26.1599279,16.6797403 27.5049149,16.9230769 L28.3890323,14.0989908 C28.5536286,13.8318579 28.4227354,13.4749131 28.1499757,13.3137122 L26.5322291,12.2735827 C26.5142019,11.5543196 26.4961747,10.8358242 26.3300108,10.0728067 L27.7173226,8.7448184 C27.9555953,8.49917895 27.9728388,8.18752389 27.8419455,7.83057906 L26.3017942,4.99037289 C26.148171,4.70635228 25.8001674,4.52289031 25.4592179,4.57892681 L23.5593061,4.95966796 C23.0067327,4.39776771 22.4831597,4.00244172 21.81145,3.56259358 L21.8373151,1.6680993 C21.8537747,1.35567662 21.6256913,1.04939493 21.3302017,0.961118249 L18.2224665,0.0276883289 C17.9269769,-0.0605883493 17.5625136,0.06760474 17.3979173,0.335505268 L16.3350954,1.91911211 C15.6014661,1.93676745 14.867053,1.95442278 14.0879637,2.1163913 L12.7327874,0.7584657 C12.4811902,0.524340597 12.0885104,0.485959433 11.7985073,0.637181221 L8.89847699,2.14479336 C8.60847395,2.29524753 8.42114767,2.63530464 8.47836448,2.9699884 L8.8679091,4.83070725 C8.31611954,5.29895746 7.8897367,5.88465403 7.44140769,6.54327481 L5.50700906,6.51717562 C5.18800573,6.5002879 4.87527272,6.72366628 4.78435285,7.01382788 L3.84615385,10.0136997 C6.10739373,10.5587122 8.00808929,11.3777663 9.53413229,12.4639532 C9.49180752,11.7231968 9.57645706,10.9617145 9.81237844,10.208676" id="Fill-1025"></path>
                        </g>
                        <g id="Group-47" transform="translate(125.422819, 0.000000)">
                            <mask id="mask-2" fill="white">
                                <use xlink:href="#path-1"></use>
                            </mask>
                            <g id="Clip-46"></g>
                        </g>
                    </g>
                </g>
            </g>
        </g>
    </g>
</svg>