<?xml version="1.0" encoding="UTF-8"?>
<svg width="195px" height="140px" viewBox="0 0 195 140" version="1.1" xmlns="http://www.w3.org/2000/svg" xmlns:xlink="http://www.w3.org/1999/xlink">
    <title>Group 11</title>
    <g id="Page-1" stroke="none" stroke-width="1" fill="none" fill-rule="evenodd">
        <g id="HOME-01-Copy-2" transform="translate(-622.000000, -2281.000000)">
            <g id="Group-11" transform="translate(622.000000, 2281.000000)">
                <path d="M6.21011684,108.661182 L5.38231039,108.661182 L5.74840716,105.965867 L6.44789103,105.965867 C7.29205232,105.965867 7.73740716,106.284966 7.73740716,106.987488 C7.73740716,107.784605 7.33985877,108.661182 6.21011684,108.661182 L6.21011684,108.661182 Z M8.69227813,110.337398 C10.6825362,109.317038 11.048633,108.135236 11.048633,106.77938 C11.048633,104.944245 9.61569748,103.715777 6.84543942,103.715777 L2.85108458,103.715777 L1.30743942,114.821182 L4.52305232,114.821182 L5.06402006,110.863344 L5.71569748,110.863344 L7.18008458,114.821182 L10.6825362,114.821182 L8.69227813,110.337398 Z" id="Fill-2" fill="#DACEB6"></path>
                <path d="M15.9718168,111.917885 C15.5893652,112.571218 15.1591072,112.875182 14.7452039,112.875182 C14.395462,112.875182 14.0608168,112.715002 14.0608168,111.661849 C14.0608168,110.162209 14.4910749,108.151759 15.8434943,108.151759 C16.0988814,108.151759 16.2737523,108.18329 16.5127846,108.247614 L15.9718168,111.917885 Z M19.3459459,113.065632 C18.9320426,112.890317 18.9320426,112.619146 18.9962039,112.078065 L19.7271394,106.987614 C18.549591,106.285092 17.1657201,105.981128 15.9718168,105.981128 C12.2152362,105.981128 10.8942685,109.172119 10.8942685,111.679506 C10.8942685,113.799686 11.8654943,115.141668 13.6796233,115.141668 C14.8886233,115.141668 15.6535265,114.519867 16.209591,113.67356 C16.5442362,114.581668 17.4676555,115.011759 18.4539781,115.077344 L19.3459459,113.065632 Z" id="Fill-4" fill="#DACEB6"></path>
                <path d="M23.5839878,113.608984 L24.2998265,108.437813 L25.907633,108.437813 L26.5442136,106.301236 L24.6030201,106.301236 L24.6495685,105.980876 C24.7615362,105.183759 25.127633,104.896191 25.732762,104.896191 C26.0661491,104.896191 26.5442136,104.97565 26.9581168,105.216551 L28.0086007,103.380155 C27.467633,102.997993 26.5605685,102.630966 25.4295685,102.630966 C23.1222781,102.630966 21.8164072,104.018353 21.578633,105.790425 L21.5144717,106.301236 L20.3847297,106.301236 L20.097891,108.437813 L21.2125362,108.437813 L20.4803426,113.767903 C20.2891168,115.156551 19.6525362,115.763218 18.4108265,116.193308 L19.1593749,118.443398 C21.306891,117.757272 23.1700846,116.608263 23.5839878,113.608984" id="Fill-6" fill="#DACEB6"></path>
                <path d="M30.6379555,111.917885 C30.2555039,112.571218 29.8252459,112.875182 29.4113426,112.875182 C29.0628588,112.875182 28.7269555,112.715002 28.7269555,111.661849 C28.7269555,110.162209 29.1572136,108.151759 30.509633,108.151759 C30.7650201,108.151759 30.939891,108.18329 31.1789233,108.247614 L30.6379555,111.917885 Z M34.0120846,113.065632 C33.5981814,112.890317 33.5981814,112.619146 33.6623426,112.078065 L34.3932781,106.987614 C33.2157297,106.285092 31.8318588,105.981128 30.6379555,105.981128 C26.8813749,105.981128 25.5604072,109.172119 25.5604072,111.679506 C25.5604072,113.799686 26.531633,115.141668 28.345762,115.141668 C29.554762,115.141668 30.3196652,114.519867 30.8757297,113.67356 C31.2103749,114.581668 32.1337943,115.011759 33.1201168,115.077344 L34.0120846,113.065632 Z" id="Fill-8" fill="#DACEB6"></path>
                <path d="M37.931962,110.002533 C38.1395426,108.965777 38.5848975,107.975686 39.491962,107.975686 C39.9536717,107.975686 40.1121878,108.231722 40.1121878,108.565957 C40.1121878,108.950641 39.8580588,109.890281 37.931962,110.002533 M43.2007362,108.422173 C43.2007362,107.034786 42.006833,105.981632 39.7938975,105.981632 C36.0222201,105.981632 34.7176072,109.141092 34.7176072,111.454245 C34.7176072,113.624876 35.9593168,115.140912 38.6805104,115.140912 C40.1121878,115.140912 41.3224459,114.613704 42.260962,113.927578 L41.1953814,112.123975 C40.3990265,112.634786 39.7938975,112.907218 39.0944136,112.907218 C38.4100265,112.907218 37.8841555,112.634786 37.8048975,111.773344 C40.2883168,111.550101 43.2007362,110.800912 43.2007362,108.422173" id="Fill-10" fill="#DACEB6"></path>
                <path d="M45.6407523,115.141164 C46.2936878,115.141164 47.0082685,115.011254 47.486333,114.805668 L47.2007523,112.603506 C47.0887846,112.635038 46.9768168,112.666569 46.882462,112.666569 C46.6748814,112.666569 46.5163652,112.555578 46.5792685,112.15702 L47.9002362,102.630713 L44.7802362,102.949813 L43.4605265,112.395398 C43.2051394,114.16747 44.0329459,115.141164 45.6407523,115.141164" id="Fill-12" fill="#DACEB6"></path>
                <path d="M57.1039846,107.800245 C55.7679201,107.353759 55.3691136,107.14565 55.3691136,106.618443 C55.3691136,106.092497 55.8308233,105.72547 56.6900814,105.72547 C57.5329846,105.72547 58.2337265,106.014299 58.886662,106.603308 L60.5095652,104.929614 C59.5546943,103.954659 58.2500814,103.397182 56.5630168,103.397182 C53.3474039,103.397182 51.9786297,105.232317 51.9786297,107.066191 C51.9786297,108.469975 52.7271781,109.539524 54.9388555,110.273578 C56.1327588,110.688533 56.4988555,111.05556 56.4988555,111.630695 C56.4988555,112.300425 55.9893394,112.682587 55.0181136,112.682587 C53.952533,112.682587 53.1410814,112.300425 52.4554362,111.613038 L50.657662,113.449434 C51.5169201,114.326011 52.8856943,115.140786 54.9388555,115.140786 C58.6639846,115.140786 59.9056943,112.938623 59.9056943,111.024029 C59.9056943,109.443668 59.0300814,108.456101 57.1039846,107.800245" id="Fill-14" fill="#DACEB6"></path>
                <polygon id="Fill-16" fill="#DACEB6" points="61.469091 106.301362 60.2915426 114.821182 63.378833 114.821182 64.5576394 106.301362"></polygon>
                <path d="M61.6921459,103.491777 C61.6921459,104.354479 62.2960168,104.976281 63.235791,104.976281 C64.3340814,104.976281 65.1933394,104.161506 65.1933394,103.078083 C65.1933394,102.21538 64.5882104,101.593578 63.6496943,101.593578 C62.5514039,101.593578 61.6921459,102.407092 61.6921459,103.491777" id="Fill-18" fill="#DACEB6"></path>
                <path d="M71.7694943,106.173218 C71.4990104,106.077362 71.2750749,106.029434 70.926591,106.029434 C70.0019136,106.029434 69.1263007,106.667632 68.5702362,107.817903 L68.5538814,106.301867 L65.8641394,106.301867 L64.686591,114.820425 L67.7738814,114.820425 L68.2833975,111.232137 C68.6658491,110.098263 69.1439136,109.093038 70.1616878,109.093038 C70.4158168,109.093038 70.6233975,109.142227 70.8938814,109.220425 L71.7694943,106.173218 Z" id="Fill-20" fill="#DACEB6"></path>
                <path d="M74.684933,112.87493 C74.1112555,112.87493 73.8571265,112.523038 73.8571265,111.613668 C73.8571265,110.512587 74.0319975,108.247362 75.3856749,108.247362 C75.973191,108.247362 76.244933,108.597993 76.2285781,109.507362 C76.2122233,110.609704 76.0373523,112.87493 74.684933,112.87493 M75.6398039,105.980876 C71.9146749,105.980876 70.7056749,108.917092 70.7056749,111.45475 C70.7056749,113.767903 72.0895459,115.141416 74.4295459,115.141416 C78.1546749,115.141416 79.3636749,112.188804 79.3800297,109.667542 C79.3951265,107.401056 77.9949007,105.980876 75.6398039,105.980876" id="Fill-22" fill="#DACEB6"></path>
                <path d="M86.4030491,105.981002 C85.3211136,105.981002 84.2228233,106.667128 83.554791,107.705146 L83.5384362,106.301362 L80.8486943,106.301362 L79.6711459,114.821182 L82.7584362,114.821182 L83.3950168,110.385326 C83.9523394,109.18965 84.3976943,108.550191 84.7801459,108.550191 C84.9877265,108.550191 85.1298878,108.70911 85.035533,109.380101 L84.2706297,114.821182 L87.3579201,114.821182 L88.233533,108.550191 C88.4562104,106.923164 87.7240168,105.981002 86.4030491,105.981002" id="Fill-24" fill="#DACEB6"></path>
                <path d="M89.9899168,103.491777 C89.9899168,104.354479 90.5937878,104.976281 91.533562,104.976281 C92.6318523,104.976281 93.4911104,104.161506 93.4911104,103.078083 C93.4911104,102.21538 92.8859814,101.593578 91.9474652,101.593578 C90.8491749,101.593578 89.9899168,102.407092 89.9899168,103.491777" id="Fill-26" fill="#DACEB6"></path>
                <polygon id="Fill-28" fill="#DACEB6" points="92.8544039 106.301362 89.7671136 106.301362 88.5883072 114.821182 91.6768555 114.821182"></polygon>
                <path d="M102.281207,107.800245 C100.943885,107.353759 100.545078,107.14565 100.545078,106.618443 C100.545078,106.092497 101.006788,105.72547 101.866046,105.72547 C102.710207,105.72547 103.409691,106.014299 104.062627,106.603308 L105.686788,104.929614 C104.730659,103.954659 103.426046,103.397182 101.738981,103.397182 C98.5246265,103.397182 97.1558523,105.232317 97.1558523,107.066191 C97.1558523,108.469975 97.9044007,109.539524 100.11482,110.273578 C101.308723,110.688533 101.676078,111.05556 101.676078,111.630695 C101.676078,112.300425 101.165304,112.682587 100.195336,112.682587 C99.1284975,112.682587 98.3183039,112.300425 97.6326588,111.613038 L95.8348846,113.449434 C96.6941426,114.326011 98.0629168,115.140786 100.11482,115.140786 C103.839949,115.140786 105.081659,112.938623 105.081659,111.024029 C105.081659,109.443668 104.206046,108.456101 102.281207,107.800245" id="Fill-30" fill="#DACEB6"></path>
                <path d="M112.550914,114.120173 L111.436268,112.141254 C110.847494,112.508281 110.449946,112.699993 109.925333,112.699993 C109.287494,112.699993 108.827043,112.460353 108.827043,111.438731 C108.827043,110.17747 109.145333,108.359993 110.626075,108.359993 C111.102881,108.359993 111.548236,108.518912 111.994849,108.933867 L113.473075,107.161795 C112.758494,106.412605 111.770914,105.981254 110.60972,105.981254 C106.980204,105.981254 105.596333,109.155849 105.596333,111.359272 C105.596333,113.639632 107.012914,115.141795 109.479978,115.141795 C110.721688,115.141795 111.691656,114.741975 112.550914,114.120173" id="Fill-32" fill="#DACEB6"></path>
                <path d="M117.52052,114.82093 L120.60781,114.82093 L121.483423,108.549939 C121.707359,106.922912 120.975165,105.98075 119.654197,105.98075 C118.602456,105.98075 117.551972,106.65174 117.012262,107.625434 L117.696649,102.63084 L114.576649,102.949939 L112.922294,114.82093 L116.008327,114.82093 L116.62981,110.385074 C117.185875,109.189398 117.648843,108.549939 118.030036,108.549939 C118.237617,108.549939 118.381036,108.708858 118.284165,109.38111 L117.52052,114.82093 Z" id="Fill-34" fill="#DACEB6"></path>
                <path d="M125.180749,110.002533 C125.387072,108.965777 125.833685,107.975686 126.740749,107.975686 C127.201201,107.975686 127.360975,108.231722 127.360975,108.565957 C127.360975,108.950641 127.105588,109.890281 125.180749,110.002533 M127.041427,105.981632 C123.271007,105.981632 121.966394,109.141092 121.966394,111.454245 C121.966394,113.624876 123.208104,115.140912 125.929297,115.140912 C127.360975,115.140912 128.569975,114.613704 129.509749,113.927578 L128.444168,112.123975 C127.647814,112.634786 127.041427,112.907218 126.343201,112.907218 C125.658814,112.907218 125.134201,112.634786 125.052427,111.773344 C127.535846,111.550101 130.449523,110.800912 130.449523,108.422173 C130.449523,107.034786 129.254362,105.981632 127.041427,105.981632" id="Fill-36" fill="#DACEB6"></path>
                <path d="M135.323894,111.678876 C134.974152,112.221218 134.575346,112.618515 134.257056,112.618515 C133.98783,112.618515 133.795346,112.475993 133.890959,111.806263 L134.654604,106.300858 L131.568572,106.300858 L130.708056,112.41293 C130.485378,114.038695 131.090507,115.141038 132.698314,115.141038 C133.717346,115.141038 134.623152,114.582299 135.323894,113.752389 L135.292443,114.820677 L137.980927,114.820677 L139.159733,106.300858 L136.071185,106.300858 L135.323894,111.678876 Z" id="Fill-38" fill="#DACEB6"></path>
                <path d="M142.633878,110.002533 C142.841459,108.965777 143.286814,107.975686 144.19262,107.975686 C144.655588,107.975686 144.812846,108.231722 144.812846,108.565957 C144.812846,108.950641 144.559975,109.890281 142.633878,110.002533 M144.495814,105.981632 C140.722878,105.981632 139.418265,109.141092 139.418265,111.454245 C139.418265,113.624876 140.661233,115.140912 143.382427,115.140912 C144.812846,115.140912 146.024362,114.613704 146.96162,113.927578 L145.897297,112.123975 C145.102201,112.634786 144.495814,112.907218 143.795072,112.907218 C143.110685,112.907218 142.586072,112.634786 142.506814,111.773344 C144.990233,111.550101 147.901394,110.800912 147.901394,108.422173 C147.901394,107.034786 146.708749,105.981632 144.495814,105.981632" id="Fill-40" fill="#DACEB6"></path>
                <path d="M151.518959,111.231759 C151.90141,110.099146 152.379475,109.093921 153.398507,109.093921 C153.651378,109.093921 153.858959,109.141849 154.130701,109.220047 L155.005056,106.17284 C154.734572,106.076984 154.511894,106.029056 154.162152,106.029056 C153.238733,106.029056 152.36312,106.667254 151.805797,107.817524 L151.790701,106.301488 L149.100959,106.301488 L147.92341,114.821308 L151.010701,114.821308 L151.518959,111.231759 Z" id="Fill-42" fill="#DACEB6"></path>
                <path d="M165.131594,105.981002 C164.208175,105.981002 163.253304,106.554876 162.600368,107.433975 C162.426756,106.506948 161.756207,105.981002 160.738433,105.981002 C159.735756,105.981002 158.779627,106.554876 158.159401,107.544966 L158.143046,106.301362 L155.45582,106.301362 L154.277014,114.821182 L157.363046,114.821182 L158.000885,110.337398 C158.366981,109.171993 158.827433,108.550191 159.163336,108.550191 C159.369659,108.550191 159.51182,108.70911 159.417465,109.380101 L158.65382,114.821182 L161.742368,114.821182 L162.378949,110.2592 C162.791594,109.141722 163.206756,108.550191 163.571594,108.550191 C163.779175,108.550191 163.904981,108.70911 163.809368,109.380101 L163.030627,114.821182 L166.117917,114.821182 L166.99353,108.550191 C167.216207,106.923164 166.484014,105.981002 165.131594,105.981002" id="Fill-44" fill="#DACEB6"></path>
                <path d="M172.539959,111.917885 C172.156249,112.571218 171.727249,112.875182 171.313346,112.875182 C170.963604,112.875182 170.628959,112.715002 170.628959,111.661849 C170.628959,110.162209 171.059217,108.151759 172.411636,108.151759 C172.667023,108.151759 172.840636,108.18329 173.080927,108.247614 L172.539959,111.917885 Z M176.294023,106.987614 C175.118991,106.285092 173.732604,105.981128 172.539959,105.981128 C168.784636,105.981128 167.46241,109.172119 167.46241,111.679506 C167.46241,113.799686 168.432378,115.141668 170.249023,115.141668 C171.458023,115.141668 172.22041,114.519867 172.777733,113.67356 C173.112378,114.581668 174.034539,115.011759 175.023378,115.077344 L175.914088,113.065632 C175.500185,112.890317 175.500185,112.619146 175.56183,112.078065 L176.294023,106.987614 Z" id="Fill-46" fill="#DACEB6"></path>
                <path d="M183.223694,105.981002 C182.141759,105.981002 181.043468,106.667128 180.374178,107.705146 L180.359081,106.301362 L177.669339,106.301362 L176.490533,114.821182 L179.579081,114.821182 L180.214404,110.385326 C180.772985,109.18965 181.218339,108.550191 181.600791,108.550191 C181.807114,108.550191 181.950533,108.70911 181.85492,109.380101 L181.091275,114.821182 L184.178565,114.821182 L185.05292,108.550191 C185.276856,106.923164 184.544662,105.981002 183.223694,105.981002" id="Fill-48" fill="#DACEB6"></path>
                <path d="M192.14073,105.981002 C191.058794,105.981002 189.961762,106.667128 189.291214,107.705146 L189.276117,106.301362 L186.586375,106.301362 L185.407568,114.821182 L188.497375,114.821182 L189.132697,110.385326 C189.69002,109.18965 190.135375,108.550191 190.516568,108.550191 C190.724149,108.550191 190.867568,108.70911 190.771956,109.380101 L190.00831,114.821182 L193.095601,114.821182 L193.969956,108.550191 C194.193891,106.923164 193.461697,105.981002 192.14073,105.981002" id="Fill-50" fill="#DACEB6"></path>
                <polygon id="Fill-52" fill="#DACEB6" points="90.9371136 29.6883171 91.8202749 29.6883171 91.8202749 29.6794882 90.9371136 29.6794882"></polygon>
                <path d="M100.215339,49.1735423 L102.864823,49.1735423 L102.864823,46.5160648 L100.215339,46.5160648 L100.215339,49.1735423 Z M100.215339,43.8585873 L102.864823,43.8585873 L102.864823,41.2011099 L100.215339,41.2011099 L100.215339,43.8585873 Z M94.9125975,43.8585873 L97.5633394,43.8585873 L97.5633394,41.2011099 L94.9125975,41.2011099 L94.9125975,43.8585873 Z M94.9125975,49.1735423 L97.5633394,49.1735423 L97.5633394,46.5160648 L94.9125975,46.5160648 L94.9125975,49.1735423 Z M105.515565,49.1735423 L108.166307,49.1735423 L108.166307,46.5160648 L105.515565,46.5160648 L105.515565,49.1735423 Z M105.515565,43.8585873 L108.166307,43.8585873 L108.166307,41.2011099 L105.515565,41.2011099 L105.515565,43.8585873 Z M110.817049,49.1735423 L113.467791,49.1735423 L113.467791,46.5160648 L110.817049,46.5160648 L110.817049,49.1735423 Z M110.817049,43.8585873 L113.467791,43.8585873 L113.467791,41.2011099 L110.817049,41.2011099 L110.817049,43.8585873 Z M116.119791,47.9248936 L116.119791,35.0020108 L110.155307,38.5448936 L110.155307,35.0020108 L104.190823,38.5448936 L104.190823,35.0020108 L104.190823,35.0007495 L98.2263394,38.5461549 L98.2250814,35.003272 L92.2618555,38.5461549 L92.2618555,51.6821909 C95.0685975,53.8755243 98.5899201,55.1948036 102.423243,55.1948036 C108.117243,55.1948036 113.138178,52.3115603 116.119791,47.9248936 L116.119791,47.9248936 Z" id="Fill-54" fill="#DACEB6"></path>
                <path d="M94.9128491,29.6883171 L91.8205265,29.6883171 L90.9361072,29.6883171 L88.7269459,29.6883171 L88.7269459,47.9248936 C89.4843007,49.0373261 90.3813007,50.0425513 91.3776878,50.9380468 L91.3776878,38.5461549 C91.3789459,38.2333621 91.5437523,37.9445333 91.8117201,37.7856144 L94.9128491,35.9429117 L94.9128491,29.6883171 Z" id="Fill-55" fill="#DACEB6"></path>
                <path d="M138.801939,58.8137405 C138.632101,58.7784252 138.461004,58.7405873 138.293681,58.7065333 C137.166456,58.4769837 136.064391,58.2739207 134.995036,58.1049117 C134.971133,58.1023891 134.948488,58.0986054 134.924585,58.0948216 C132.651262,57.7391459 130.499972,57.5171639 128.464423,57.411218 C128.465681,57.4099567 128.466939,57.4086954 128.466939,57.4074342 C127.544778,57.3595063 126.638972,57.3279747 125.763359,57.3279747 C106.657133,57.3279747 98.6772297,68.4157225 95.1508749,77.1449117 L95.152133,77.1461729 C94.353262,79.1225693 93.7795846,80.9804072 93.359391,82.5607675 C93.359391,82.5620288 93.359391,82.56329 93.358133,82.5645513 C93.2197459,83.0904973 93.0964555,83.5836504 92.9870039,84.0414882 C93.5128749,83.2834702 94.0664233,82.5721189 94.6350685,81.887254 C94.7067781,81.800227 94.7772297,81.7094162 94.8501975,81.6223891 C95.3949394,80.9816684 95.9585523,80.3737405 96.5347459,79.7935603 C96.634133,79.6926594 96.7335201,79.5930198 96.8341652,79.4946414 C97.4103588,78.9283351 97.999133,78.3897765 98.6004878,77.8814882 C98.6923265,77.80329 98.7841652,77.7301369 98.8760039,77.6532 C99.5000039,77.1360828 100.13281,76.6429297 100.773165,76.1838306 C100.812165,76.1560828 100.848649,76.1321189 100.886391,76.1056324 C101.560714,75.6276144 102.241327,75.1773441 102.925714,74.7586054 C102.937036,74.7510378 102.949617,74.7434702 102.960939,74.7371639 C103.646585,74.3184252 104.334746,73.9337405 105.020391,73.5717585 C105.075746,73.5427495 105.129843,73.5124792 105.185197,73.4834702 C105.862036,73.1303171 106.537617,72.8036504 107.209423,72.502209 L107.349068,72.4391459 C115.155359,68.954281 122.187939,68.7360828 122.187939,68.7360828 C118.304294,70.4350018 114.921359,72.2966234 111.966165,74.2301369 C111.378649,74.6148216 110.811262,75.0020288 110.258972,75.3917585 C110.204875,75.4295963 110.152036,75.4686954 110.097939,75.5065333 C107.871165,77.0881549 105.93123,78.7050918 104.26052,80.3169837 L104.094456,80.4759027 C103.703197,80.8593261 103.323262,81.2414882 102.960939,81.6211279 C102.926972,81.6564432 102.896778,81.6904973 102.865327,81.7258126 C101.80981,82.8407675 100.887649,83.9456324 100.083746,85.0303171 C99.9705201,85.1816684 99.8560362,85.334281 99.7478426,85.4856324 C99.5503265,85.7618486 99.3603588,86.0355423 99.1791975,86.3079747 C99.0458426,86.5085153 98.9200362,86.705272 98.7954878,86.90329 C98.6445201,87.1404072 98.4910362,87.3787855 98.3539072,87.6121189 C98.1148749,88.018245 97.8896814,88.4205873 97.687133,88.8153621 C97.6066168,88.969236 97.5399394,89.1193261 97.4657136,89.2719387 C97.3260685,89.5569837 97.1901975,89.84329 97.0706814,90.1220288 C97.0014878,90.2796864 96.9398426,90.4335603 96.8769394,90.5886954 C96.7637136,90.871218 96.6592943,91.1486954 96.5661975,91.4223891 C96.5234233,91.5497765 96.4756168,91.6784252 96.4366168,91.80329 C96.3133265,92.194281 96.2038749,92.5789657 96.1208426,92.9485153 L96.1233588,92.9485153 C97.3021652,93.2297765 98.4444878,93.4555423 99.5654233,93.6522991 C99.9227136,93.7141009 100.268681,93.7595063 100.619681,93.8137405 C101.38081,93.9297765 102.130617,94.0332 102.864068,94.1126594 C103.247778,94.154281 103.627714,94.1883351 104.005133,94.2198666 C104.704617,94.2778846 105.390262,94.318245 106.065843,94.3409477 C106.409294,94.3535603 106.754004,94.371218 107.091165,94.3750018 C107.747875,94.3825693 108.384456,94.3611279 109.01852,94.3384252 C109.378327,94.3245513 109.748197,94.3220288 110.101714,94.2980648 C110.827617,94.2513982 111.528359,94.1719387 112.224068,94.0836504 C112.449262,94.0559027 112.685778,94.0407675 112.907197,94.009236 C113.816778,93.874281 114.697423,93.7090558 115.552907,93.5110378 C115.751681,93.4643711 115.936617,93.4025693 116.132875,93.3533801 C116.77952,93.1906774 117.419875,93.0204072 118.035068,92.8211279 C118.323165,92.7290558 118.594907,92.6218486 118.876714,92.522209 C119.379939,92.3431099 119.883165,92.1627495 120.366262,91.962209 C120.660649,91.8386054 120.944972,91.7049117 121.23181,91.5737405 C121.679681,91.3706774 122.121262,91.1638306 122.550262,90.9431099 C122.834585,90.7968036 123.108843,90.6441909 123.384359,90.4903171 C123.795746,90.2607675 124.200843,90.0249117 124.594617,89.7789657 C124.857552,89.6150018 125.116714,89.4497765 125.372101,89.278245 C125.759585,89.0209477 126.137004,88.7535603 126.506875,88.4811279 C126.744649,88.3058126 126.981165,88.1330198 127.212649,87.9513982 C127.585036,87.6613081 127.944843,87.3586054 128.298359,87.0546414 C128.503423,86.8780648 128.712262,86.705272 128.912294,86.5249117 C129.289714,86.1831099 129.653294,85.8299567 130.010585,85.474281 C130.165327,85.3204072 130.327617,85.1703171 130.479843,85.0139207 C130.934004,84.5434702 131.369294,84.0641909 131.790746,83.5748216 C131.83352,83.5256324 131.880068,83.4789657 131.921585,83.4297765 C132.392101,82.8786054 132.842488,82.3148216 133.271488,81.7459927 C133.344456,81.6501369 133.411133,81.5517585 133.481585,81.4546414 C133.826294,80.9904973 134.162197,80.5200468 134.480488,80.0483351 C134.600004,79.8717585 134.710714,79.6926594 134.826456,79.5160828 C135.084359,79.1187855 135.338488,78.7214882 135.580036,78.3216684 C135.703327,78.1186054 135.820327,77.914281 135.938585,77.7099567 C136.157488,77.3328396 136.373875,76.9544612 136.578939,76.5773441 C136.693423,76.3667135 136.804133,76.1560828 136.914843,75.9454522 C137.108585,75.5721189 137.298552,75.2000468 137.479714,74.829236 C137.581617,74.6211279 137.682262,74.4130198 137.780391,74.2061729 C137.957778,73.8315783 138.126359,73.458245 138.289907,73.0886954 C138.376714,72.8919387 138.464778,72.6939207 138.54781,72.4996864 C138.712617,72.1137405 138.868617,71.7341009 139.018327,71.3544612 C139.08752,71.1829297 139.157972,71.0088756 139.224649,70.8398666 C139.386939,70.4198666 139.537907,70.0074342 139.683843,69.5987855 C139.726617,69.480227 139.773165,69.3578846 139.815939,69.2393261 C140.188327,68.1760828 140.506617,67.16329 140.778359,66.2186054 C140.804778,66.1303171 140.824907,66.0495963 140.850068,65.9625693 C140.954488,65.589236 141.056391,65.222209 141.146972,64.8741009 C141.182197,64.7391459 141.212391,64.614281 141.245101,64.4843711 C141.318068,64.1980648 141.38852,63.914281 141.450165,63.6481549 C141.484133,63.5081549 141.513068,63.3757225 141.54452,63.2420288 C141.598617,63.0036504 141.651456,62.7703171 141.698004,62.5508576 C141.724423,62.4234702 141.750843,62.2998666 141.774746,62.1787855 C141.816262,61.9757225 141.85652,61.780227 141.891746,61.5986054 C141.911875,61.4926594 141.932004,61.3867135 141.949617,61.2883351 C141.981068,61.1168036 142.011262,60.9553621 142.036423,60.8077945 C142.050262,60.7270738 142.065359,60.6425693 142.077939,60.5706774 C142.100585,60.4319387 142.119456,60.3108576 142.13581,60.1998666 C142.144617,60.1481549 142.154681,60.0850918 142.160972,60.0396864 C142.178585,59.9286954 142.189907,59.8378846 142.199972,59.7697765 C142.20123,59.7559027 142.205004,59.7281549 142.20752,59.7155423 C142.216327,59.6474342 142.222617,59.6020288 142.222617,59.6020288 C141.051359,59.3056324 139.917843,59.0483351 138.801939,58.8137405" id="Fill-56" fill="#DACEB6"></path>
                <path d="M86.9467846,52.1175783 C86.916591,52.0658666 86.8813652,52.0128936 86.8499136,51.9611819 C86.5504943,51.4604612 86.2309459,50.9635243 85.8887523,50.4691099 C85.862333,50.431272 85.8346555,50.3934342 85.8082362,50.3555963 C85.4459136,49.8397405 85.063462,49.3276684 84.653333,48.8206414 C84.6432685,48.8080288 84.6332039,48.7954162 84.6231394,48.7828036 C84.1941394,48.2555963 83.7399781,47.7321729 83.2556233,47.2175783 C80.1041717,43.8601009 75.7311394,40.8179387 69.7087846,38.4795603 C69.2181394,38.2891099 68.7111394,38.1037045 68.1978491,37.9233441 C68.000333,37.8527135 67.7977846,37.7858666 67.5977523,37.7177585 C66.8391394,37.4592 66.0541072,37.213254 65.2464297,36.9773982 C64.8677523,36.8664072 64.490333,36.7541549 64.100333,36.648209 C63.6952362,36.537218 63.2800749,36.431272 62.8611394,36.3265873 C62.268591,36.1790198 61.6647201,36.0364973 61.0482685,35.900281 C60.7362685,35.8309117 60.4255265,35.760281 60.1072362,35.6934342 C59.2743975,35.5219027 58.4176555,35.3604612 57.5407846,35.2103711 C57.2640104,35.1624432 56.9847201,35.1170378 56.7016555,35.0703711 C55.6952039,34.9076684 54.6711394,34.7537945 53.6055588,34.6213621 C53.6043007,34.6213621 53.3690426,36.0037045 53.2180749,38.2992 C53.1677523,39.0647855 53.1274943,39.9325333 53.1086233,40.8835243 C53.0394297,44.2119927 53.2331717,48.5709117 54.1968491,53.2186594 C54.4736233,54.5467675 54.8107846,55.8975783 55.2246878,57.2546954 C55.637333,58.6118126 56.1242039,59.975236 56.6991394,61.3273081 C57.2740749,62.6793801 57.9345588,64.0201009 58.6931717,65.3318126 C59.0731072,65.9876684 59.4782039,66.637218 59.908462,67.2766774 C61.6294943,69.8345153 63.769462,72.2435243 66.421462,74.3649657 C67.084462,74.8946954 67.7801717,75.4067675 68.508591,75.8986594 C69.9654297,76.8837045 71.5568814,77.7867675 73.2930104,78.5914522 C75.8997201,79.7984792 78.8335265,80.7860468 82.1359459,81.4948756 C82.1359459,81.4948756 82.1397201,81.4519927 82.1434943,81.4103711 C82.1447523,81.3977585 82.1460104,81.3775783 82.1472685,81.3611819 C82.158591,81.2098306 82.1762039,80.9323531 82.1925588,80.5337945 C82.1925588,80.5249657 82.1925588,80.5148756 82.1938168,80.5060468 C82.2969781,77.7703711 82.2403652,69.7487495 78.7152685,61.4610018 C77.0797846,57.6179387 74.7033007,53.7193801 71.2448814,50.2647855 C71.2448814,50.2647855 85.5364943,57.5599207 90.5964297,73.6271279 C91.2128814,69.2051459 91.6443975,61.3247855 87.832462,53.7345153 C87.5607201,53.1934342 87.2638168,52.6548756 86.9467846,52.1175783" id="Fill-57" fill="#DACEB6"></path>
                <path d="M82.3611394,32.6788936 C85.7189136,21.6945693 97.3711072,15.1978126 108.328849,18.5641189 C119.284075,21.9304252 125.412107,33.5037585 121.946139,44.8424973 C120.839043,48.4597945 118.83243,51.5385333 116.263462,53.9387135 C119.236268,53.3005153 122.405333,52.9738486 125.763107,52.9738486 C129.480688,52.9738486 133.483849,53.3925873 137.689559,54.1720468 L140.452268,45.1325873 C140.968075,44.2749297 140.556688,43.1347495 139.702462,42.6176324 L134.646301,39.2879027 C134.589688,36.9873621 134.534333,34.6855603 134.01601,32.2424973 L138.352559,27.9920468 C139.098591,27.206281 139.15143,26.2073621 138.740043,25.0659207 L133.92543,15.9734882 C133.443591,15.0641189 132.357881,14.4763711 131.292301,14.6567315 L125.349204,15.8763711 C123.621881,14.0765513 121.982623,12.8115063 119.881656,11.4052 L119.964688,5.33979455 C120.017527,4.34087563 119.304204,3.35961437 118.378268,3.07583058 L108.65972,0.0891639173 C107.735043,-0.194619867 106.596494,0.216551305 106.080688,1.0729477 L102.759397,6.14321797 C100.464688,6.19871347 98.1687201,6.25547022 95.7318491,6.77510986 L91.4921717,2.4275423 C90.7083975,1.67961437 89.4805265,1.55601076 88.573462,2.03907383 L79.5040749,6.86465941 C78.5970104,7.34772248 78.0107523,8.43619094 78.1906555,9.50574049 L79.4072039,15.4626774 C77.6823975,16.9635783 76.3501072,18.8378126 74.9461072,20.9441189 L68.897333,20.8608756 C67.9009459,20.8091639 66.9234297,21.5242991 66.6391072,22.4525873 L63.7027846,32.0533081 C70.7781394,33.7988936 76.7199781,36.4197945 81.4905588,39.8996144 C81.358462,37.5259207 81.6239136,35.0904252 82.3611394,32.6788936" id="Fill-58" fill="#DACEB6"></path>
                <path d="M73.4790781,134.185831 L73.223691,134.506191 C72.8575943,134.217362 72.5544007,134.091236 72.1090459,134.091236 C71.1604652,134.091236 70.3716588,134.760966 70.3716588,136.502768 C70.3716588,138.163849 71.1290136,138.906731 72.0851426,138.906731 C72.6500136,138.906731 72.9771104,138.707452 73.2954007,138.451416 L73.5432394,138.762948 C73.2161426,139.074479 72.7456265,139.329254 72.0687878,139.329254 C70.8094652,139.329254 69.869691,138.347993 69.869691,136.502768 C69.869691,134.633578 70.8660781,133.683849 72.0763362,133.683849 C72.7217233,133.683849 73.0878201,133.866731 73.4790781,134.185831" id="Fill-59" fill="#8F7B6B"></path>
                <path d="M75.9939491,136.399092 C76.8620136,136.399092 77.3639814,136.056029 77.3639814,135.256389 C77.3639814,134.529903 76.9576265,134.162876 75.914691,134.162876 L75.0856265,134.162876 L75.0856265,136.399092 L75.9939491,136.399092 Z M76.1776265,136.790083 L75.0856265,136.790083 L75.0856265,139.241975 L74.607562,139.241975 L74.607562,133.770623 L75.9297878,133.770623 C77.2444652,133.770623 77.8747555,134.290263 77.8747555,135.256389 C77.8747555,136.071164 77.4281426,136.502515 76.655691,136.701795 L78.1527878,139.241975 L77.5879168,139.241975 L76.1776265,136.790083 Z" id="Fill-60" fill="#8F7B6B"></path>
                <polygon id="Fill-61" fill="#8F7B6B" points="82.0219652 134.169813 79.7838685 134.169813 79.7838685 136.20675 81.7187717 136.20675 81.7187717 136.606569 79.7838685 136.606569 79.7838685 138.842786 82.1326749 138.842786 82.1326749 139.241344 79.3058039 139.241344 79.3058039 133.771254 82.0773201 133.771254"></polygon>
                <path d="M85.7562781,137.34138 L84.7447943,134.16174 L83.7245039,137.34138 L85.7562781,137.34138 Z M85.8846007,137.747506 L83.589891,137.747506 L83.1118265,139.242101 L82.6249555,139.242101 L84.4491491,133.77075 L85.0479878,133.77075 L86.8633749,139.242101 L86.3614072,139.242101 L85.8846007,137.747506 Z" id="Fill-62" fill="#8F7B6B"></path>
                <polygon id="Fill-63" fill="#8F7B6B" points="87.4585652 136.942191 89.5695975 136.942191 89.5695975 136.542371 87.4585652 136.542371"></polygon>
                <path d="M92.3801136,136.399092 C93.2481781,136.399092 93.7501459,136.056029 93.7501459,135.256389 C93.7501459,134.529903 93.343791,134.162876 92.3008555,134.162876 L91.471791,134.162876 L91.471791,136.399092 L92.3801136,136.399092 Z M92.563791,136.790083 L91.471791,136.790083 L91.471791,139.241975 L90.9937265,139.241975 L90.9937265,133.770623 L92.3159523,133.770623 C93.6306297,133.770623 94.2609201,134.290263 94.2609201,135.256389 C94.2609201,136.071164 93.8143072,136.502515 93.0405975,136.701795 L94.5389523,139.241975 L93.9740814,139.241975 L92.563791,136.790083 Z" id="Fill-64" fill="#8F7B6B"></path>
                <path d="M98.456691,134.290515 L98.1774007,134.593218 C97.7710459,134.242587 97.4049491,134.091236 96.9029814,134.091236 C96.233691,134.091236 95.7719814,134.441867 95.7719814,135.017002 C95.7719814,135.577002 96.0663685,135.831777 97.0464007,136.126912 C98.026433,136.429614 98.6240136,136.782768 98.6240136,137.747632 C98.6240136,138.682227 97.9144652,139.329254 96.8149168,139.329254 C96.0663685,139.329254 95.5165943,139.06565 95.0712394,138.643128 L95.3417233,138.339164 C95.7480781,138.691056 96.1695297,138.923128 96.8073685,138.923128 C97.5722717,138.923128 98.1384007,138.499344 98.1384007,137.764029 C98.1384007,137.101867 97.8113039,136.830695 96.8388201,136.52547 C95.7556265,136.191236 95.2851104,135.81538 95.2851104,135.024569 C95.2851104,134.250155 95.9304975,133.683849 96.8866265,133.683849 C97.5961749,133.683849 98.026433,133.905831 98.456691,134.290515" id="Fill-65" fill="#8F7B6B"></path>
                <path d="M104.523456,135.240119 C104.523456,136.294533 103.933423,136.956695 102.157036,138.834713 L104.665617,138.834713 L104.601456,139.242101 L101.61481,139.242101 L101.61481,138.849849 C103.582423,136.749849 104.045391,136.198677 104.045391,135.265344 C104.045391,134.634713 103.646585,134.233632 103.041456,134.233632 C102.531939,134.233632 102.180939,134.449308 101.853843,134.84156 L101.535552,134.601921 C101.958262,134.09111 102.42752,133.843903 103.065359,133.843903 C103.973681,133.843903 104.523456,134.44174 104.523456,135.240119" id="Fill-66" fill="#8F7B6B"></path>
                <path d="M106.089872,136.582605 C106.089872,138.219722 106.512581,138.946209 107.276227,138.946209 C108.042388,138.946209 108.456291,138.22729 108.456291,136.590173 C108.456291,134.953056 108.042388,134.226569 107.276227,134.226569 C106.52013,134.226569 106.089872,134.944227 106.089872,136.582605 M108.941904,136.590173 C108.941904,138.38747 108.360678,139.329632 107.276227,139.329632 C106.185485,139.329632 105.611807,138.379903 105.611807,136.582605 C105.611807,134.785308 106.185485,133.843146 107.276227,133.843146 C108.369485,133.843146 108.941904,134.785308 108.941904,136.590173" id="Fill-67" fill="#8F7B6B"></path>
                <path d="M112.692194,134.313849 L110.540904,134.313849 L110.540904,136.126281 C110.796291,135.982497 111.08313,135.879074 111.450485,135.879074 C112.357549,135.879074 112.938775,136.502137 112.938775,137.532587 C112.938775,138.579434 112.278291,139.329885 111.235356,139.329885 C110.58871,139.329885 110.119452,139.090245 109.735743,138.691686 L110.023839,138.411686 C110.358485,138.762317 110.717033,138.938894 111.235356,138.938894 C111.983904,138.938894 112.45442,138.39529 112.45442,137.52502 C112.45442,136.638353 111.991452,136.25493 111.346065,136.25493 C110.988775,136.25493 110.756033,136.341957 110.462904,136.509704 L110.095549,136.509704 L110.095549,133.930425 L112.765162,133.930425 L112.692194,134.313849 Z" id="Fill-68" fill="#8F7B6B"></path>
                <path d="M114.347178,136.582605 C114.347178,138.219722 114.769888,138.946209 115.533533,138.946209 C116.299694,138.946209 116.713597,138.22729 116.713597,136.590173 C116.713597,134.953056 116.299694,134.226569 115.533533,134.226569 C114.777436,134.226569 114.347178,134.944227 114.347178,136.582605 M117.19921,136.590173 C117.19921,138.38747 116.617985,139.329632 115.533533,139.329632 C114.442791,139.329632 113.869114,138.379903 113.869114,136.582605 C113.869114,134.785308 114.442791,133.843146 115.533533,133.843146 C116.626791,133.843146 117.19921,134.785308 117.19921,136.590173" id="Fill-69" fill="#8F7B6B"></path>
                <polygon id="Fill-70" fill="#8F7B6B" points="119.82542 139.241849 119.36371 139.241849 119.36371 134.441488 118.057839 135.256263 117.84271 134.911939 119.427872 133.930677 119.82542 133.930677"></polygon>
                <path d="M124.013643,134.313849 L121.862352,134.313849 L121.862352,136.126281 C122.117739,135.982497 122.404578,135.879074 122.771933,135.879074 C123.678997,135.879074 124.260223,136.502137 124.260223,137.532587 C124.260223,138.579434 123.599739,139.329885 122.556804,139.329885 C121.910159,139.329885 121.440901,139.090245 121.057191,138.691686 L121.345288,138.411686 C121.679933,138.762317 122.038481,138.938894 122.556804,138.938894 C123.305352,138.938894 123.775868,138.39529 123.775868,137.52502 C123.775868,136.638353 123.312901,136.25493 122.667514,136.25493 C122.310223,136.25493 122.077481,136.341957 121.784352,136.509704 L121.416997,136.509704 L121.416997,133.930425 L124.08661,133.930425 L124.013643,134.313849 Z" id="Fill-71" fill="#8F7B6B"></path>
                <path d="M4.65225555,122.706335 L0.735900709,122.706335 C0.920836193,121.713722 1.94238458,120.733722 3.07590071,120.733722 C4.17796523,120.733722 4.78686845,121.693542 4.65225555,122.706335 M3.16773942,120.185074 C1.66309426,120.185074 0.281739419,121.404713 0.0351587738,122.934623 C-0.20261542,124.441831 0.787481354,125.67156 2.34370716,125.67156 C3.10609426,125.67156 3.98170716,125.424353 4.53902974,124.948858 C4.622062,124.887056 4.65225555,124.825254 4.59061039,124.742011 L4.45725555,124.546515 C4.42580394,124.514984 4.40441684,124.494804 4.37422329,124.494804 C4.34277168,124.494804 4.30251361,124.514984 4.25093297,124.546515 C3.70493297,124.917326 3.02432006,125.102731 2.477062,125.102731 C1.34354587,125.102731 0.539642645,124.203452 0.664191032,123.17174 L5.10641684,123.17174 C5.21964264,123.17174 5.23977168,123.130119 5.25990071,123.016605 C5.50773942,121.476605 4.75541684,120.185074 3.16773942,120.185074" id="Fill-72" fill="#8F7B6B"></path>
                <path d="M13.8205265,120.185074 C12.7587201,120.185074 12.0579781,121.05156 11.8101394,121.467777 L11.9044943,120.443632 C11.8931717,120.340209 11.8529136,120.299849 11.7799459,120.299849 L11.5635588,120.299849 C11.470462,120.299849 11.4302039,120.330119 11.4088168,120.443632 L11.0276233,122.819849 L10.6250426,125.414263 C10.6049136,125.526515 10.6363652,125.559308 10.7282039,125.559308 L11.099333,125.559308 C11.2125588,125.559308 11.2440104,125.517686 11.2641394,125.414263 L11.6767846,122.758047 C11.841591,121.713722 12.6354297,120.775344 13.5726878,120.775344 C14.4382362,120.775344 15.0370749,121.404713 14.8408168,122.676065 L14.4080426,125.414263 C14.3879136,125.526515 14.4193652,125.559308 14.5112039,125.559308 L14.882333,125.559308 C14.9854943,125.559308 15.0257523,125.517686 15.0471394,125.414263 L15.5000426,122.489398 C15.7579459,120.877506 14.902462,120.185074 13.8205265,120.185074" id="Fill-73" fill="#8F7B6B"></path>
                <path d="M25.8544168,122.923146 C25.6896104,123.999002 24.8026749,125.082425 23.6590943,125.082425 C22.504191,125.082425 21.958191,124.029272 22.133062,122.934497 C22.3179975,121.724948 23.1848039,120.763867 24.3384491,120.763867 C25.4933523,120.763867 26.0179652,121.858641 25.8544168,122.923146 M26.7715459,120.299722 L26.5652233,120.299722 C26.4834491,120.299722 26.441933,120.340083 26.3903523,120.443506 L26.1639007,121.496659 C25.9990943,121.124587 25.6065781,120.184948 24.3183201,120.184948 C22.855191,120.184948 21.7317394,121.426029 21.4952233,122.934497 C21.2574491,124.441704 21.9783201,125.671434 23.4527717,125.671434 C24.7410297,125.671434 25.4530943,124.669993 25.6267072,124.379903 L25.4832878,125.267831 C25.2970943,126.395398 24.7825459,127.210173 23.4112555,127.210173 C22.4526104,127.210173 21.958191,126.974317 21.6587717,126.859542 C21.6285781,126.849452 21.6084491,126.839362 21.587062,126.839362 C21.5354814,126.839362 21.5140943,126.870894 21.4839007,126.944047 L21.3606104,127.261885 C21.3190943,127.356479 21.3291588,127.398101 21.4222555,127.428371 C21.6285781,127.511614 22.2676749,127.790353 23.3798039,127.790353 C24.9259652,127.790353 25.8330297,127.099182 26.1324491,125.208551 L26.8847717,120.443506 C26.9049007,120.329993 26.8646426,120.299722 26.7715459,120.299722" id="Fill-74" fill="#8F7B6B"></path>
                <path d="M37.1143459,122.706335 L33.197991,122.706335 C33.3841846,121.713722 34.4044749,120.733722 35.537991,120.733722 C36.6400555,120.733722 37.2489588,121.693542 37.1143459,122.706335 M35.6298297,120.185074 C34.1264426,120.185074 32.7450878,121.404713 32.4972491,122.934623 C32.260733,124.441831 33.2495717,125.67156 34.8057975,125.67156 C35.5681846,125.67156 36.4450555,125.424353 37.0011201,124.948858 C37.0841523,124.887056 37.1143459,124.825254 37.0527007,124.742011 L36.9193459,124.546515 C36.8878943,124.514984 36.8677652,124.494804 36.8363136,124.494804 C36.804862,124.494804 36.7646039,124.514984 36.7130233,124.546515 C36.1670233,124.917326 35.4864104,125.102731 34.9391523,125.102731 C33.8056362,125.102731 33.001733,124.203452 33.1262814,123.17174 L37.5685072,123.17174 C37.681733,123.17174 37.701862,123.130119 37.721991,123.016605 C37.9698297,121.476605 37.2175072,120.185074 35.6298297,120.185074" id="Fill-75" fill="#8F7B6B"></path>
                <path d="M46.2826168,120.185074 C45.2220685,120.185074 44.5200685,121.05156 44.2722297,121.467777 L44.3665846,120.443632 C44.355262,120.340209 44.3150039,120.299849 44.2420362,120.299849 L44.0256491,120.299849 C43.9325523,120.299849 43.8922943,120.330119 43.8709072,120.443632 L43.4897136,122.819849 L43.087133,125.414263 C43.0670039,125.526515 43.0984555,125.559308 43.1902943,125.559308 L43.5614233,125.559308 C43.6759072,125.559308 43.7061007,125.517686 43.7262297,125.414263 L44.1388749,122.758047 C44.3036814,121.713722 45.0975201,120.775344 46.0347781,120.775344 C46.9015846,120.775344 47.4991652,121.404713 47.3041652,122.676065 L46.870133,125.414263 C46.8500039,125.526515 46.8814555,125.559308 46.9732943,125.559308 L47.3444233,125.559308 C47.4475846,125.559308 47.4878426,125.517686 47.5092297,125.414263 L47.963391,122.489398 C48.2200362,120.877506 47.3645523,120.185074 46.2826168,120.185074" id="Fill-76" fill="#8F7B6B"></path>
                <path d="M57.0898943,120.185074 C56.0796685,120.185074 55.388991,121.022551 55.173862,121.383272 L55.6984749,118.077506 C55.719862,117.962731 55.6770878,117.933722 55.5852491,117.933722 L55.2141201,117.933722 C55.1210233,117.933722 55.0795072,117.962731 55.0593781,118.077506 L53.8944104,125.414263 C53.8742814,125.526515 53.9157975,125.559308 54.0076362,125.559308 L54.3687007,125.559308 C54.471862,125.559308 54.5133781,125.517686 54.5335072,125.414263 L54.9562168,122.758047 C55.1210233,121.713722 55.914862,120.775344 56.8533781,120.775344 C57.7189265,120.775344 58.3165072,121.404713 58.1101846,122.676065 L57.6774104,125.414263 C57.6572814,125.526515 57.6975394,125.559308 57.7906362,125.559308 L58.1517007,125.559308 C58.254862,125.559308 58.2951201,125.517686 58.3165072,125.414263 L58.780733,122.489398 C59.0373781,120.877506 58.1718297,120.185074 57.0898943,120.185074" id="Fill-77" fill="#8F7B6B"></path>
                <path d="M69.0715749,122.706335 L65.1552201,122.706335 C65.3401555,121.713722 66.3617039,120.733722 67.4952201,120.733722 C68.5972846,120.733722 69.2049297,121.693542 69.0715749,122.706335 M67.5870588,120.185074 C66.0824136,120.185074 64.7010588,121.404713 64.4544781,122.934623 C64.2167039,124.441831 65.2068007,125.67156 66.7630265,125.67156 C67.5254136,125.67156 68.4010265,125.424353 68.9583491,124.948858 C69.0401233,124.887056 69.0715749,124.825254 69.0099297,124.742011 L68.8753168,124.546515 C68.8451233,124.514984 68.8237362,124.494804 68.7935426,124.494804 C68.762091,124.494804 68.7205749,124.514984 68.6702523,124.546515 C68.1242523,124.917326 67.4436394,125.102731 66.8963814,125.102731 C65.7628652,125.102731 64.958962,124.203452 65.0822523,123.17174 L69.5244781,123.17174 C69.638962,123.17174 69.659091,123.130119 69.6792201,123.016605 C69.9270588,121.476605 69.1747362,120.185074 67.5870588,120.185074" id="Fill-78" fill="#8F7B6B"></path>
                <path d="M76.518562,118.066533 C76.2505943,118.066533 76.0027555,118.28347 75.9624975,118.542029 C75.9209814,118.811939 76.0958523,119.028876 76.3638201,119.028876 C76.6217233,119.028876 76.8796265,118.811939 76.9198846,118.542029 C76.9626588,118.28347 76.7764652,118.066533 76.518562,118.066533" id="Fill-79" fill="#8F7B6B"></path>
                <path d="M76.3533781,120.299596 L76.0036362,120.299596 C75.8891523,120.299596 75.8488943,120.329867 75.8287652,120.44338 L75.043733,125.414011 C75.0236039,125.527524 75.0550555,125.559056 75.1682814,125.559056 L75.5192814,125.559056 C75.6325072,125.559056 75.6639588,125.527524 75.6840878,125.414011 L76.4666039,120.44338 C76.487991,120.339957 76.4666039,120.299596 76.3533781,120.299596" id="Fill-80" fill="#8F7B6B"></path>
                <path d="M83.3795426,121.559596 L83.4726394,120.44338 C83.4525104,120.329867 83.4210588,120.299596 83.3380265,120.299596 L83.1216394,120.299596 C83.0285426,120.299596 82.9882846,120.329867 82.9668975,120.44338 L82.1843814,125.414011 C82.1629943,125.527524 82.1944459,125.559056 82.2862846,125.559056 L82.6586717,125.559056 C82.761833,125.559056 82.8033491,125.517434 82.8234781,125.414011 L83.2248007,122.808245 C83.3896072,121.806804 84.224962,120.815452 85.6163814,120.815452 C85.7195426,120.815452 85.7610588,120.795272 85.7912523,120.681759 L85.9145426,120.309686 C85.9459943,120.216353 85.9246072,120.184822 85.8013168,120.184822 C84.2765426,120.184822 83.6374459,121.157254 83.3795426,121.559596" id="Fill-81" fill="#8F7B6B"></path>
                <path d="M95.1468491,122.934245 C94.9606555,124.131182 93.8988491,125.093524 92.7439459,125.093524 C91.5903007,125.093524 90.8178491,124.131182 91.0128491,122.934245 C91.1990426,121.734786 92.2709136,120.774966 93.4245588,120.774966 C94.579462,120.774966 95.3418491,121.734786 95.1468491,122.934245 M93.5176555,120.184695 C92.0130104,120.184695 90.621591,121.404335 90.3750104,122.934245 C90.1372362,124.441452 91.1361394,125.671182 92.6420426,125.671182 C94.1466878,125.671182 95.5481717,124.441452 95.7859459,122.934245 C96.0337846,121.425777 95.0223007,120.184695 93.5176555,120.184695" id="Fill-82" fill="#8F7B6B"></path>
                <path d="M111.722856,124.111632 C111.31021,124.617398 110.506307,125.155957 109.722533,125.155957 C108.84692,125.155957 108.402823,124.6792 108.517307,123.966587 C108.640597,123.182083 109.279694,122.778479 110.331436,122.778479 C110.95921,122.778479 111.351727,122.943704 111.866275,123.182083 L111.722856,124.111632 Z M110.814533,120.185326 C110.011888,120.185326 109.146339,120.340461 109.021791,120.371993 C108.898501,120.402263 108.867049,120.453975 108.877114,120.557398 L108.909823,120.794515 C108.929952,120.897939 108.940017,120.93956 109.011727,120.93956 C109.021791,120.93956 109.04192,120.92947 109.063307,120.92947 C109.475952,120.866407 110.021952,120.754155 110.702565,120.754155 C111.836081,120.754155 112.175759,121.26875 111.949307,122.675056 C111.434759,122.437939 110.867372,122.282804 110.28992,122.282804 C108.980275,122.282804 108.064404,122.82893 107.876952,123.966587 C107.703339,125.051272 108.435533,125.670551 109.443243,125.670551 C110.567952,125.670551 111.402049,125.031092 111.73292,124.63884 L111.629759,125.413254 C111.639823,125.516677 111.681339,125.558299 111.753049,125.558299 L111.980759,125.558299 C112.104049,125.558299 112.134243,125.516677 112.15563,125.413254 L112.587146,122.654876 C112.866436,120.92947 112.476436,120.185326 110.814533,120.185326 L110.814533,120.185326 Z" id="Fill-83" fill="#8F7B6B"></path>
                <path d="M125.12791,120.185074 C124.106362,120.185074 123.406878,121.073002 123.148975,121.538407 C123.065943,121.042731 122.66462,120.185074 121.612878,120.185074 C120.592588,120.185074 119.963556,121.062912 119.737104,121.496786 L119.840265,120.443632 C119.830201,120.340209 119.788685,120.299849 119.715717,120.299849 L119.49933,120.299849 C119.407491,120.299849 119.365975,120.330119 119.344588,120.443632 L118.562072,125.414263 C118.541943,125.526515 118.582201,125.559308 118.675297,125.559308 L119.035104,125.559308 C119.139523,125.559308 119.179781,125.517686 119.201168,125.414263 L119.613814,122.758047 C119.800007,121.641831 120.499491,120.775344 121.366297,120.775344 C122.24191,120.775344 122.686007,121.569939 122.509878,122.676065 L122.077104,125.414263 C122.056975,125.526515 122.097233,125.559308 122.19033,125.559308 L122.550136,125.559308 C122.653297,125.559308 122.694814,125.517686 122.716201,125.414263 L123.13891,122.727777 C123.323846,121.527056 124.086233,120.775344 124.88133,120.775344 C125.62233,120.775344 126.21991,121.404713 126.02491,122.676065 L125.592136,125.414263 C125.572007,125.526515 125.611007,125.559308 125.704104,125.559308 L126.065168,125.559308 C126.16833,125.559308 126.209846,125.517686 126.231233,125.414263 L126.684136,122.489398 C126.940781,120.877506 126.09662,120.185074 125.12791,120.185074" id="Fill-84" fill="#8F7B6B"></path>
                <path d="M137.519343,122.923146 C137.324343,124.131434 136.468859,125.093777 135.313956,125.093777 C134.170375,125.093777 133.624375,123.999002 133.799246,122.934497 C133.974117,121.858641 134.84973,120.775218 136.004633,120.775218 C137.149472,120.775218 137.695472,121.80693 137.519343,122.923146 M136.200891,120.184948 C134.912633,120.184948 134.200568,121.17756 134.035762,121.47774 L134.571697,118.07738 C134.593085,117.972695 134.560375,117.933596 134.458472,117.933596 L134.087343,117.933596 C133.994246,117.933596 133.95273,117.962605 133.932601,118.07738 L132.768891,125.414137 C132.747504,125.526389 132.787762,125.559182 132.880859,125.559182 L133.088439,125.559182 C133.170214,125.559182 133.21173,125.51756 133.251988,125.414137 L133.489762,124.359722 C133.644504,124.733056 134.045827,125.671434 135.335343,125.671434 C136.798472,125.671434 137.920665,124.421524 138.148375,122.923146 C138.384891,121.415939 137.662762,120.184948 136.200891,120.184948" id="Fill-85" fill="#8F7B6B"></path>
                <path d="M144.863797,120.299596 L144.512797,120.299596 C144.40083,120.299596 144.359314,120.329867 144.337927,120.44338 L143.55541,125.414011 C143.534023,125.527524 143.565475,125.559056 143.678701,125.559056 L144.028443,125.559056 C144.142927,125.559056 144.17312,125.527524 144.194507,125.414011 L144.977023,120.44338 C144.997152,120.339957 144.977023,120.299596 144.863797,120.299596" id="Fill-86" fill="#8F7B6B"></path>
                <path d="M145.028478,118.066533 C144.76051,118.066533 144.512672,118.28347 144.472414,118.542029 C144.430897,118.811939 144.605768,119.028876 144.874994,119.028876 C145.130381,119.028876 145.388285,118.811939 145.429801,118.542029 C145.472575,118.28347 145.286381,118.066533 145.028478,118.066533" id="Fill-87" fill="#8F7B6B"></path>
                <path d="M154.981152,122.706335 L151.066056,122.706335 C151.249733,121.713722 152.271281,120.733722 153.404797,120.733722 C154.506862,120.733722 155.114507,121.693542 154.981152,122.706335 M153.496636,120.185074 C151.993249,120.185074 150.610636,121.404713 150.364056,122.934623 C150.127539,124.441831 151.117636,125.67156 152.672604,125.67156 C153.434991,125.67156 154.311862,125.424353 154.869185,124.948858 C154.950959,124.887056 154.981152,124.825254 154.919507,124.742011 L154.786152,124.546515 C154.754701,124.514984 154.734572,124.494804 154.701862,124.494804 C154.671668,124.494804 154.63141,124.514984 154.57983,124.546515 C154.032572,124.917326 153.351959,125.102731 152.805959,125.102731 C151.672443,125.102731 150.868539,124.203452 150.99183,123.17174 L155.434056,123.17174 C155.547281,123.17174 155.568668,123.130119 155.588797,123.016605 C155.836636,121.476605 155.085572,120.185074 153.496636,120.185074" id="Fill-88" fill="#8F7B6B"></path>
                <path d="M164.148794,120.185074 C163.086988,120.185074 162.387504,121.05156 162.138407,121.467777 L162.232762,120.443632 C162.222697,120.340209 162.181181,120.299849 162.108214,120.299849 L161.891827,120.299849 C161.799988,120.299849 161.758472,120.330119 161.737085,120.443632 L161.355891,122.819849 L160.954568,125.414263 C160.933181,125.526515 160.964633,125.559308 161.056472,125.559308 L161.427601,125.559308 C161.542085,125.559308 161.572278,125.517686 161.593665,125.414263 L162.00631,122.758047 C162.169859,121.713722 162.963697,120.775344 163.902214,120.775344 C164.766504,120.775344 165.366601,121.404713 165.169085,122.676065 L164.73631,125.414263 C164.714923,125.526515 164.746375,125.559308 164.839472,125.559308 L165.210601,125.559308 C165.31502,125.559308 165.355278,125.517686 165.375407,125.414263 L165.82831,122.489398 C166.086214,120.877506 165.23073,120.185074 164.148794,120.185074" id="Fill-89" fill="#8F7B6B"></path>
                <path d="M175.213346,120.299596 L173.265862,120.299596 L173.440733,119.214912 C173.460862,119.100137 173.430668,119.068605 173.316185,119.068605 L172.966443,119.068605 C172.854475,119.068605 172.823023,119.110227 172.801636,119.214912 L172.626765,120.299596 L172.080765,120.299596 C171.977604,120.299596 171.937346,120.319777 171.915959,120.44338 L171.884507,120.691849 C171.864378,120.805362 171.894572,120.835632 171.996475,120.835632 L172.543733,120.835632 L172.14241,123.368245 C171.915959,124.81365 172.254378,125.671308 173.615604,125.671308 C173.751475,125.671308 174.184249,125.671308 174.627088,125.434191 C174.717668,125.382479 174.728991,125.352209 174.717668,125.258876 L174.708862,124.991488 C174.698797,124.917074 174.67741,124.886804 174.635894,124.886804 C174.615765,124.886804 174.585572,124.898155 174.533991,124.917074 C174.243378,125.062119 174.07983,125.082299 173.770346,125.082299 C172.88341,125.082299 172.585249,124.618155 172.791572,123.316533 L173.18283,120.835632 L175.131572,120.835632 C175.244797,120.835632 175.276249,120.805362 175.29512,120.691849 L175.337894,120.44338 C175.358023,120.319777 175.316507,120.299596 175.213346,120.299596" id="Fill-90" fill="#8F7B6B"></path>
                <path d="M184.012501,124.111632 C183.599856,124.617398 182.795952,125.155957 182.012178,125.155957 C181.136565,125.155957 180.692468,124.6792 180.806952,123.966587 C180.930243,123.182083 181.569339,122.778479 182.621081,122.778479 C183.248856,122.778479 183.641372,122.943704 184.15592,123.182083 L184.012501,124.111632 Z M183.104178,120.185326 C182.301533,120.185326 181.435985,120.340461 181.311436,120.371993 C181.188146,120.402263 181.156694,120.453975 181.166759,120.557398 L181.199468,120.794515 C181.219597,120.897939 181.229662,120.93956 181.301372,120.93956 C181.311436,120.93956 181.331565,120.92947 181.352952,120.92947 C181.765597,120.866407 182.311597,120.754155 182.99221,120.754155 C184.126985,120.754155 184.465404,121.26875 184.238952,122.675056 C183.723146,122.437939 183.157017,122.282804 182.579565,122.282804 C181.26992,122.282804 180.354049,122.82893 180.167856,123.966587 C179.992985,125.051272 180.725178,125.670551 181.732888,125.670551 C182.857597,125.670551 183.691694,125.031092 184.022565,124.63884 L183.919404,125.413254 C183.929468,125.516677 183.970985,125.558299 184.042694,125.558299 L184.270404,125.558299 C184.393694,125.558299 184.423888,125.516677 184.445275,125.413254 L184.876791,122.654876 C185.156081,120.92947 184.766081,120.185326 183.104178,120.185326 L183.104178,120.185326 Z" id="Fill-91" fill="#8F7B6B"></path>
                <path d="M192.531359,117.93347 L192.181617,117.93347 C192.068391,117.93347 192.035681,117.962479 192.015552,118.077254 L190.851843,125.414011 C190.830456,125.527524 190.863165,125.559056 190.975133,125.559056 L191.324875,125.559056 C191.439359,125.559056 191.469552,125.527524 191.490939,125.414011 L192.654649,118.077254 C192.674778,117.962479 192.654649,117.93347 192.531359,117.93347" id="Fill-92" fill="#8F7B6B"></path>
            </g>
        </g>
    </g>
</svg>