<?xml version="1.0" encoding="UTF-8"?>
<svg width="55px" height="35px" viewBox="0 0 55 35" version="1.1" xmlns="http://www.w3.org/2000/svg" xmlns:xlink="http://www.w3.org/1999/xlink">
    <title>amex copy 2</title>
    <g id="Page-1" stroke="none" stroke-width="1" fill="none" fill-rule="evenodd">
        <g id="amex-copy-2" fill-rule="nonzero">
            <path d="M2.8,7e-05 L51.8,7e-05 C53.34644,7e-05 54.6,1.2537 54.6,2.80007 L54.6,32.20007 C54.6,33.74651 53.34644,35.00007 51.8,35.00007 L2.8,35.00007 C1.25363,35.00007 0,33.74651 0,32.20007 L0,2.80007 C0,1.2537 1.25363,7e-05 2.8,7e-05 Z" id="Path" fill="#FFFFFF"></path>
            <path d="M0.01736,16.4983 L2.63858,16.4983 L3.22952,15.1326 L4.55252,15.1326 L5.14192,16.4983 L10.29868,16.4983 L10.29868,15.45425 L10.759,16.50285 L13.43601,16.50285 L13.89633,15.43871 L13.89633,16.49837 L26.71193,16.49837 L26.70598,14.25655 L26.95392,14.25655 C27.12745,14.26236 27.1782,14.27769 27.1782,14.55237 L27.1782,16.49837 L33.80643,16.49837 L33.80643,15.97652 C34.34116,16.25092 35.17269,16.49837 36.26679,16.49837 L39.05531,16.49837 L39.65206,15.13267 L40.97506,15.13267 L41.55865,16.49837 L46.9322,16.49837 L46.9322,15.20113 L47.74602,16.49837 L52.05207,16.49837 L52.05207,7.92267 L47.79047,7.92267 L47.79047,8.93543 L47.19393,7.92267 L42.82096,7.92267 L42.82096,8.93543 L42.273,7.92267 L36.3664,7.92267 C35.37779,7.92267 34.50867,8.0549 33.80657,8.42338 L33.80657,7.92267 L29.73054,7.92267 L29.73054,8.42338 C29.28373,8.04356 28.67501,7.92267 27.99804,7.92267 L13.10624,7.92267 L12.10706,10.13754 L11.08093,7.92267 L6.39058,7.92267 L6.39058,8.93543 L5.87524,7.92267 L1.87509,7.92267 L0.01736,11.99989 L0.01736,16.49816 L0.01736,16.49816 L0.01736,16.4983 Z M16.56151,15.2614 L14.98903,15.2614 L14.98322,10.44582 L12.75897,15.26133 L11.41217,15.26133 L9.18211,10.44155 L9.18211,15.26133 L6.06221,15.26133 L5.47281,13.88989 L2.27892,13.88989 L1.68357,15.26133 L0.0175,15.26133 L2.76437,9.11274 L5.0435,9.11274 L7.65233,14.93422 L7.65233,9.11274 L10.15595,9.11274 L12.16341,13.28383 L14.00749,9.11274 L16.56151,9.11274 L16.56151,15.2614 L16.56151,15.2614 Z M4.94851,12.61379 L3.89865,10.1626 L2.8546,12.61379 L4.94851,12.61379 Z M22.81951,15.26126 L17.6953,15.26126 L17.6953,9.11267 L22.81951,9.11267 L22.81951,10.39304 L19.22928,10.39304 L19.22928,11.50135 L22.73348,11.50135 L22.73348,12.7617 L19.22921,12.7617 L19.22921,13.98964 L22.81944,13.98964 L22.81951,15.26126 Z M30.04071,10.76866 C30.04071,11.74894 29.35786,12.25546 28.95998,12.4075 C29.29556,12.52986 29.58235,12.74616 29.71878,12.92529 C29.93536,13.23112 29.97274,13.50426 29.97274,14.05341 L29.97274,15.26126 L28.42546,15.26126 L28.41965,14.48587 C28.41965,14.11592 28.45661,13.58385 28.17759,13.28803 C27.95345,13.07173 27.61178,13.02483 27.05948,13.02483 L25.41287,13.02483 L25.41287,15.26133 L23.87889,15.26133 L23.87889,9.11267 L27.40696,9.11267 C28.19089,9.11267 28.76853,9.13248 29.26441,9.40716 C29.74972,9.68184 30.04071,10.0828 30.04071,10.76866 L30.04071,10.76866 Z M28.10178,11.6816 C27.89087,11.80424 27.64167,11.8083 27.34291,11.8083 L25.47951,11.8083 L25.47951,10.4426 L27.36825,10.4426 C27.63551,10.4426 27.91453,10.45408 28.09576,10.55348 C28.2947,10.64308 28.41783,10.83369 28.41783,11.09703 C28.41783,11.36583 28.30065,11.58206 28.10178,11.6816 L28.10178,11.6816 Z M32.50086,15.26126 L30.9358,15.26126 L30.9358,9.11267 L32.50086,9.11267 L32.50086,15.26126 Z M50.67006,15.26126 L48.49635,15.26126 L45.5889,10.64637 L45.5889,15.26126 L42.46494,15.26126 L41.86805,13.88982 L38.68158,13.88982 L38.10261,15.26126 L36.30725,15.26126 C35.56182,15.26126 34.61759,15.10327 34.08314,14.58121 C33.54407,14.05915 33.26358,13.35201 33.26358,12.2339 C33.26358,11.32201 33.43123,10.48838 34.09042,9.82961 C34.58637,9.33891 35.36302,9.11267 36.42002,9.11267 L37.90507,9.11267 L37.90507,10.43014 L36.4511,10.43014 C35.89131,10.43014 35.57512,10.50994 35.27076,10.79435 C35.00931,11.05328 34.8299,11.54265 34.8299,12.18714 C34.8299,12.84584 34.96647,13.32086 35.25151,13.6311 C35.48762,13.87442 35.91693,13.9482 36.32055,13.9482 L37.00949,13.9482 L39.17137,9.11288 L41.46982,9.11288 L44.06696,14.92855 L44.06696,9.11295 L46.40258,9.11295 L49.09891,13.39513 L49.09891,9.11295 L50.67006,9.11295 L50.67006,15.26126 L50.67006,15.26126 Z M41.34606,12.61386 L40.28451,10.16267 L39.22884,12.61386 L41.34606,12.61386 Z M54.57886,25.07946 C54.20632,25.60145 53.48028,25.86612 52.49734,25.86612 L49.53501,25.86612 L49.53501,24.54732 L52.4853,24.54732 C52.77797,24.54732 52.98272,24.51043 53.10606,24.39507 C53.22261,24.29189 53.28841,24.14629 53.28743,23.99404 C53.28743,23.81477 53.21295,23.67253 53.10004,23.58727 C52.98874,23.49333 52.82676,23.45077 52.5595,23.45077 C51.11932,23.40387 49.32242,23.49333 49.32242,21.54719 C49.32242,20.65525 49.91343,19.71627 51.52315,19.71627 L54.57886,19.71627 L54.57886,18.49267 L51.73959,18.49267 C50.883,18.49267 50.26056,18.68944 49.81984,18.99492 L49.81984,18.49267 L45.62089,18.49267 C44.94924,18.49267 44.16111,18.6522 43.78836,18.99492 L43.78836,18.49267 L36.28996,18.49267 L36.28996,18.99492 C35.69328,18.58248 34.6864,18.49267 34.22153,18.49267 L29.27561,18.49267 L29.27561,18.99492 C28.80346,18.55686 27.75367,18.49267 27.11359,18.49267 L21.5782,18.49267 L20.31162,19.80615 L19.12519,18.49267 L10.85609,18.49267 L10.85609,27.07397 L18.96909,27.07397 L20.27431,25.73963 L21.50386,27.07397 L26.5048,27.07824 L26.5048,25.05958 L26.99627,25.05958 C27.6598,25.06938 28.44247,25.04362 29.13288,24.75774 L29.13288,27.07369 L33.25784,27.07369 L33.25784,24.83705 L33.45678,24.83705 C33.71074,24.83705 33.73573,24.84713 33.73573,25.0901 L33.73573,27.07341 L46.26643,27.07341 C47.06191,27.07341 47.89351,26.87839 48.35411,26.52426 L48.35411,27.07341 L52.32871,27.07341 C53.15576,27.07341 53.96349,26.96232 54.57809,26.67798 L54.57823,25.07918 L54.57886,25.07946 Z M29.73306,21.77861 C29.73306,23.48703 28.40271,23.83976 27.06193,23.83976 L25.14792,23.83976 L25.14792,25.90259 L22.16655,25.90259 L20.27767,23.86657 L18.31473,25.90259 L12.23859,25.90259 L12.23859,19.75246 L18.40804,19.75246 L20.29531,21.76839 L22.24656,19.75246 L27.14803,19.75246 C28.36526,19.75246 29.73306,20.07537 29.73306,21.77861 L29.73306,21.77861 Z M17.53766,24.60899 L13.7662,24.60899 L13.7662,23.38539 L17.1339,23.38539 L17.1339,22.13057 L13.7662,22.13057 L13.7662,21.01239 L17.61193,21.01239 L19.28976,22.80467 L17.53766,24.60899 Z M23.61436,25.31319 L21.25928,22.80796 L23.61436,20.38246 L23.61436,25.31319 L23.61436,25.31319 Z M27.09735,22.57857 L25.11509,22.57857 L25.11509,21.01239 L27.11513,21.01239 C27.66897,21.01239 28.05341,21.22869 28.05341,21.76643 C28.05341,22.29836 27.68675,22.57857 27.09735,22.57857 L27.09735,22.57857 Z M37.48255,19.75246 L42.60221,19.75246 L42.60221,21.02436 L39.01016,21.02436 L39.01016,22.14247 L42.5145,22.14247 L42.5145,23.39729 L39.01016,23.39729 L39.01016,24.62089 L42.60214,24.62649 L42.60214,25.90259 L37.48241,25.90259 L37.48255,19.75246 L37.48255,19.75246 Z M35.51422,23.04449 C35.85568,23.16524 36.13477,23.38161 36.2656,23.56074 C36.48225,23.86111 36.51354,24.14132 36.51977,24.68333 L36.51977,25.90259 L34.97963,25.90259 L34.97963,25.13315 C34.97963,24.76313 35.0168,24.21531 34.73169,23.92929 C34.50762,23.709 34.16588,23.65636 33.60637,23.65636 L31.96697,23.65636 L31.96697,25.90266 L30.42557,25.90266 L30.42557,19.75253 L33.96715,19.75253 C34.74366,19.75253 35.30926,19.78543 35.81277,20.04275 C36.29682,20.32303 36.60139,20.70684 36.60139,21.40852 C36.60132,22.39006 35.91791,22.89098 35.51422,23.04449 L35.51422,23.04449 Z M34.64727,22.267 C34.44203,22.38369 34.18835,22.39377 33.89001,22.39377 L32.02647,22.39377 L32.02647,21.01253 L33.91521,21.01253 C34.18835,21.01253 34.4617,21.01813 34.64727,21.12362 C34.84607,21.22323 34.96493,21.41384 34.96493,21.67683 C34.96493,21.93989 34.846,22.15185 34.64727,22.267 L34.64727,22.267 Z M48.49467,22.65879 C48.79357,22.95482 48.95345,23.32876 48.95345,23.9617 C48.95345,25.2847 48.09091,25.90231 46.5437,25.90231 L43.5561,25.90231 L43.5561,24.58351 L46.5318,24.58351 C46.82279,24.58351 47.02908,24.54676 47.1583,24.43126 C47.26386,24.3362 47.33953,24.19795 47.33953,24.03023 C47.33953,23.85096 47.25763,23.70879 47.15228,23.62346 C47.03503,23.52966 46.87326,23.48703 46.60607,23.48703 C45.17156,23.44013 43.37508,23.52966 43.37508,21.58359 C43.37508,20.69151 43.95993,19.75253 45.56818,19.75253 L48.64342,19.75253 L48.64342,21.06153 L45.82956,21.06153 C45.55068,21.06153 45.36931,21.07168 45.21503,21.17262 C45.04703,21.27216 44.98473,21.42 44.98473,21.61495 C44.98473,21.84693 45.12732,22.00485 45.32038,22.07317 C45.48215,22.12707 45.65603,22.14282 45.9172,22.14282 L46.74299,22.16424 C47.57564,22.18356 48.14726,22.3216 48.49467,22.65879 L48.49467,22.65879 Z M54.58152,21.01239 L51.78586,21.01239 C51.50684,21.01239 51.3212,21.02247 51.16517,21.12348 C51.00333,21.22309 50.94103,21.37086 50.94103,21.56602 C50.94103,21.798 51.0776,21.95578 51.2764,22.0241 C51.43824,22.07807 51.61205,22.09382 51.86748,22.09382 L52.69894,22.1151 C53.53775,22.13498 54.09768,22.27316 54.43914,22.61014 C54.50151,22.65704 54.53868,22.70968 54.58145,22.76239 L54.58145,21.01239 L54.58152,21.01239 L54.58152,21.01239 Z" id="Shape" fill="#000000"></path>
        </g>
    </g>
</svg>