<?xml version="1.0" encoding="UTF-8"?>
<svg width="99px" height="35px" viewBox="0 0 99 35" version="1.1" xmlns="http://www.w3.org/2000/svg" xmlns:xlink="http://www.w3.org/1999/xlink">
    <title>pix-banco-central-seeklogo.com copy 2</title>
    <g id="Page-1" stroke="none" stroke-width="1" fill="none" fill-rule="evenodd">
        <g id="pix-banco-central-seeklogo.com-copy-2">
            <path d="M40.4294403,32.5883955 L40.4294403,12.6626866 C40.4294403,8.99656716 43.4015672,6.02470149 47.0676866,6.02470149 L52.9508209,6.0333209 C56.6062313,6.04063433 59.5658209,9.00623134 59.5658209,12.661903 L59.5658209,16.9031716 C59.5658209,20.569291 56.5939552,23.5414179 52.9278358,23.5414179 L44.6145522,23.5414179 M61.2100373,6.02182836 L63.7621642,6.02182836 C65.2666418,6.02182836 66.4864179,7.24160448 66.4864179,8.74608209 L66.4864179,23.6307463" id="Stroke-1" stroke="#FFFFFF" stroke-width="1.698" stroke-linecap="round" stroke-linejoin="round"></path>
            <path d="M65.9392164,3.71574627 L64.7818657,2.55839552 C64.4945522,2.27134328 64.4945522,1.80563433 64.7818657,1.51858209 L65.9384328,0.362014925 C66.2260075,0.0744402985 66.6922388,0.0744402985 66.9795522,0.362014925 L68.1363806,1.51858209 C68.423694,1.80563433 68.423694,2.27134328 68.1363806,2.55839552 L66.9790299,3.71574627 C66.6919776,4.0030597 66.2262687,4.0030597 65.9392164,3.71574627" id="Fill-2" fill="#FFFFFF"></path>
            <path d="M71.3822388,6.00850746 L73.913209,6.00850746 C75.215,6.00850746 76.4637687,6.52567164 77.3842164,7.4463806 L83.3039179,13.3658209 C84.0705224,14.1326866 85.313806,14.1326866 86.0806716,13.3658209 L91.978694,7.4680597 C92.8991418,6.54735075 94.1479104,6.03044776 95.4497015,6.03044776 L97.5073881,6.03044776 M71.3822388,23.5004104 L73.913209,23.5004104 C75.215,23.5004104 76.4637687,22.9832463 77.3842164,22.0625373 L83.3039179,16.1428358 C84.0705224,15.3759701 85.313806,15.3759701 86.0806716,16.1428358 L91.978694,22.0408582 C92.8991418,22.9615672 94.1479104,23.4784701 95.4497015,23.4784701 L97.5073881,23.4784701" id="Stroke-3" stroke="#FFFFFF" stroke-width="1.698" stroke-linecap="round" stroke-linejoin="round"></path>
            <path d="M25.3407836,27.2819776 C24.070597,27.2819776 22.8758955,26.7875373 21.9779104,25.8895522 L17.121791,21.033694 C16.7809328,20.6920522 16.1867164,20.693097 15.8458582,21.033694 L10.9722388,25.9075746 C10.0739925,26.8050373 8.87929104,27.2997388 7.60910448,27.2997388 L6.65235075,27.2997388 L12.8024254,33.4500746 C14.7229851,35.3706343 17.8372015,35.3706343 19.7580224,33.4500746 L25.9258582,27.2819776 L25.3407836,27.2819776" id="Fill-4" fill="#FFFFFF"></path>
            <path d="M7.60910448,10.1058582 C8.87929104,10.1058582 10.0739925,10.6005597 10.9719776,11.4982836 L15.8458582,16.3726866 C16.196903,16.7237313 16.7699627,16.7252985 17.121791,16.3721642 L21.9776493,11.5157836 C22.8758955,10.6180597 24.070597,10.1236194 25.3407836,10.1236194 L25.925597,10.1236194 L19.7580224,3.95578358 C17.8372015,2.03496269 14.7229851,2.03496269 12.8024254,3.95578358 L6.65235075,10.1058582 L7.60910448,10.1058582" id="Fill-5" fill="#FFFFFF"></path>
            <path d="M31.0272388,15.225 L27.3,11.4977612 C27.2179851,11.5306716 27.1291791,11.551306 27.0354104,11.551306 L25.3407836,11.551306 C24.4647388,11.551306 23.6069776,11.9065299 22.9879478,12.5260821 L18.1320896,17.3819403 C17.6778731,17.8364179 17.0807836,18.0639179 16.4842164,18.0639179 C15.8871269,18.0639179 15.2905597,17.8364179 14.8360821,17.3824627 L9.9619403,12.5083209 C9.34291045,11.8887687 8.48541045,11.5335448 7.60910448,11.5335448 L5.5255597,11.5335448 C5.43675373,11.5335448 5.35343284,11.5126493 5.27507463,11.4831343 L1.53320896,15.225 C-0.38761194,17.1455597 -0.38761194,20.2597761 1.53320896,22.180597 L5.27481343,25.9224627 C5.35317164,25.8929478 5.43649254,25.8720522 5.52529851,25.8720522 L7.60910448,25.8720522 C8.48541045,25.8720522 9.34264925,25.5168284 9.9619403,24.8972761 L14.8355597,20.0236567 C15.7165672,19.1434328 17.2521269,19.1429104 18.1320896,20.0239179 L22.988209,24.8795149 C23.6069776,25.4990672 24.4647388,25.854291 25.3410448,25.854291 L27.0354104,25.854291 C27.1291791,25.854291 27.2179851,25.8746642 27.3002612,25.9075746 L31.0272388,22.180597 C32.9480597,20.2597761 32.9480597,17.1455597 31.0272388,15.225" id="Fill-6" fill="#FFFFFF"></path>
        </g>
    </g>
</svg>