<?xml version="1.0" encoding="UTF-8"?>
<svg width="279px" height="55px" viewBox="0 0 279 55" version="1.1" xmlns="http://www.w3.org/2000/svg" xmlns:xlink="http://www.w3.org/1999/xlink">
    <title>Group 9</title>
    <g id="Page-1" stroke="none" stroke-width="1" fill="none" fill-rule="evenodd">
        <g id="HOME-01-Copy-2" transform="translate(-150.000000, -23.000000)" fill="#DACEB6">
            <g id="Group-9" transform="translate(150.000000, 23.000000)">
                <path d="M5.89421136,10.2111086 L7.0904732,10.2111086 C8.72577913,10.2111086 9.30169121,8.94432763 9.30169121,7.79141462 C9.30169121,6.77727817 8.65645637,6.3164688 7.43530945,6.3164688 L6.42390828,6.3164688 L5.89421136,10.2111086 Z M10.6828137,12.6308026 L13.5605966,19.1070423 L8.49648079,19.1070423 L6.37591561,13.3922945 L5.43205969,13.3922945 L4.64995685,19.1070423 L3.23326538e-12,19.1070423 L2.23077059,3.06589461 L8.01122154,3.06589461 C12.0177211,3.06589461 14.0902936,4.8397438 14.0902936,7.49073205 C14.0902936,9.44961667 13.5605966,11.1558568 10.6828137,12.6308026 L10.6828137,12.6308026 Z" id="Fill-1026"></path>
                <path d="M18.4426958,14.5444958 C18.4426958,16.0657005 18.9244001,16.2952156 19.4327669,16.2952156 C20.0317866,16.2952156 20.6521364,15.8575357 21.2067184,14.9127875 L21.9888212,9.61259017 C21.6439849,9.52007246 21.3898015,9.47381361 21.0218577,9.47381361 C19.0648231,9.47381361 18.4426958,12.3774464 18.4426958,14.5444958 M26.638778,7.79070294 L25.5811617,15.1440818 C25.4887314,15.9269239 25.4887314,16.3201242 26.0877511,16.5727687 L24.7972814,19.4764015 C23.3699437,19.3838838 22.0350364,18.7629476 21.5515546,17.4481286 C20.7445667,18.6704299 19.6407352,19.5689192 17.8881138,19.5689192 C15.2645143,19.5689192 13.8602842,17.633164 13.8602842,14.5676253 C13.8602842,10.9487594 15.7711037,6.33888655 21.2067184,6.33888655 C22.9326771,6.33888655 24.9359269,6.77656649 26.638778,7.79070294" id="Fill-1027"></path>
                <path d="M33.7528921,6.33924239 L33.6835693,6.80005176 L36.493807,6.80005176 L35.5712812,9.88871996 L33.2463027,9.88871996 L32.2100165,17.3559667 C31.6109968,21.6900657 28.9162971,23.3500469 25.8074383,24.3410539 L24.7267144,21.0904797 C26.5237734,20.4677644 27.4427442,19.5924045 27.7182577,17.587261 L28.7794291,9.88871996 L27.1672307,9.88871996 L27.5813897,6.80005176 L29.2166956,6.80005176 L29.309126,6.06168926 C29.6539622,3.50321871 31.5416741,1.49807524 34.8816087,1.49807524 C36.5169146,1.49807524 37.8287144,2.02827289 38.6108172,2.58159997 L37.0910492,5.23258823 C36.493807,4.887426 35.802357,4.77177886 35.3188753,4.77177886 C34.4443421,4.77177886 33.9146452,5.18632938 33.7528921,6.33924239" id="Fill-1028"></path>
                <path d="M39.6478144,14.5444958 C39.6478144,16.0657005 40.1295187,16.2952156 40.6378855,16.2952156 C41.2369052,16.2952156 41.857255,15.8575357 42.411837,14.9127875 L43.1939398,9.61259017 C42.8491036,9.52007246 42.5949201,9.47381361 42.2269763,9.47381361 C40.2699417,9.47381361 39.6478144,12.3774464 39.6478144,14.5444958 M47.8438967,7.79070294 L46.7862803,15.1440818 C46.69385,15.9269239 46.69385,16.3201242 47.2928697,16.5727687 L46.0024,19.4764015 C44.5750623,19.3838838 43.240155,18.7629476 42.7566732,17.4481286 C41.9496853,18.6704299 40.8458538,19.5689192 39.0932324,19.5689192 C36.4696329,19.5689192 35.0654028,17.633164 35.0654028,14.5676253 C35.0654028,10.9487594 36.9762223,6.33888655 42.411837,6.33888655 C44.1377957,6.33888655 46.1410455,6.77656649 47.8438967,7.79070294" id="Fill-1029"></path>
                <path d="M56.1087684,10.0730437 C56.1087684,9.58910491 55.87947,9.22081325 55.2111276,9.22081325 C53.8993279,9.22081325 53.254093,10.6495002 52.9554719,12.1475755 C55.7408245,11.9856695 56.1087684,10.6263708 56.1087684,10.0730437 M52.7706113,14.706046 C52.8861492,15.9496975 53.6451444,16.3411186 54.6352155,16.3411186 C55.6483942,16.3411186 56.5229274,15.9496975 57.6747515,15.2131142 L59.2176271,17.8178436 C57.8578347,18.8088506 56.1087684,19.5685634 54.0361958,19.5685634 C50.0990191,19.5685634 48.3019601,17.3783845 48.3019601,14.2452366 C48.3019601,10.9021447 50.1914494,6.33853072 55.6483942,6.33853072 C58.8496833,6.33853072 60.5774196,7.85973539 60.5774196,9.86487885 C60.5774196,13.2987093 56.3629518,14.382234 52.7706113,14.706046" id="Fill-1030"></path>
                <path d="M65.4563192,15.2586614 C65.3638889,15.8351179 65.5949647,15.9970239 65.8935858,15.9970239 C66.0322313,15.9970239 66.1939844,15.9507651 66.35396,15.9045062 L66.768119,19.0839129 C66.0784465,19.3845955 65.0421602,19.5696309 64.0965268,19.5696309 C61.7733259,19.5696309 60.5752865,18.1622942 60.9432304,15.6038236 L62.8540498,1.95924045 L67.3671387,1.49843108 L65.4563192,15.2586614 Z" id="Fill-1031"></path>
                <path d="M85.6043548,4.81803772 L83.2562688,7.2377317 C82.3106353,6.38550125 81.2974567,5.96917155 80.0780872,5.96917155 C78.8338327,5.96917155 78.1654903,6.4993692 78.1654903,7.26086113 C78.1654903,8.02057387 78.7431799,8.32125643 80.6771069,8.96710122 C83.4624595,9.91184938 84.7298216,11.3405363 84.7298216,13.6232329 C84.7298216,16.3880892 82.9327626,19.5692751 77.5451406,19.5692751 C74.5749273,19.5692751 72.5947851,18.3932326 71.3487531,17.1246725 L73.9510225,14.4754634 C74.9428711,15.4664704 76.1160254,16.0197975 77.658901,16.0197975 C79.0631311,16.0197975 79.8007962,15.4664704 79.8007962,14.4985928 C79.8007962,13.6694918 79.2710993,13.137515 77.5451406,12.5397082 C74.3438514,11.4793129 73.26135,9.93497881 73.26135,7.90670592 C73.26135,5.25571766 75.2414922,2.6047294 79.8932266,2.6047294 C82.3337429,2.6047294 84.2232323,3.410701 85.6043548,4.81803772" id="Fill-1032"></path>
                <path d="M87.3054284,2.74350597 C87.3054284,1.17604244 88.5496829,1.61816092e-12 90.1387737,1.61816092e-12 C91.4967886,1.61816092e-12 92.3730993,0.898489309 92.3730993,2.14392003 C92.3730993,3.71138356 91.1288448,4.887426 89.539754,4.887426 C88.1817391,4.887426 87.3054284,3.98893669 87.3054284,2.74350597 L87.3054284,2.74350597 Z M89.7477223,19.1084657 L85.2790711,19.1084657 L86.9836998,6.80005176 L91.4505735,6.80005176 L89.7477223,19.1084657 Z" id="Fill-1033"></path>
                <path d="M101.879559,6.61555009 L100.613975,11.0190373 C100.221146,10.9033902 99.9225247,10.8340019 99.5528033,10.8340019 C98.0792505,10.8340019 97.389578,12.2858183 96.8367735,13.9208909 L96.1008858,19.1072203 L91.6322346,19.1072203 L93.3368633,6.80058551 L97.2296024,6.80058551 L97.2509325,8.98898522 C98.0579204,7.33078317 99.3252825,6.40738524 100.658412,6.40738524 C101.166779,6.40738524 101.488508,6.47677353 101.879559,6.61555009" id="Fill-1034"></path>
                <path d="M108.328353,11.4326982 C108.35146,10.1196584 107.958631,9.61259017 107.107206,9.61259017 C105.150171,9.61259017 104.895988,12.8845146 104.895988,14.4751076 C104.895988,15.7899266 105.263932,16.2952156 106.094027,16.2952156 C108.051062,16.2952156 108.303468,13.0232912 108.328353,11.4326982 M100.336684,14.2455925 C100.336684,10.5804678 102.087528,6.33888655 107.476927,6.33888655 C110.882629,6.33888655 112.908987,8.39028888 112.885879,11.6622133 C112.864549,15.3042086 111.113705,19.5689192 105.726083,19.5689192 C102.341711,19.5689192 100.336684,17.5869052 100.336684,14.2455925" id="Fill-1035"></path>
                <path d="M125.68677,10.0495584 L124.419407,19.1073982 L119.952534,19.1073982 L121.058143,11.2487303 C121.196788,10.2808527 120.98882,10.0495584 120.688421,10.0495584 C120.137394,10.0495584 119.493937,10.9711772 118.686949,12.7005467 L117.766201,19.1073982 L113.29755,19.1073982 L115.002178,6.79898425 L118.894917,6.79898425 L118.916247,8.82725714 C119.883211,7.33096108 121.472302,6.33995406 123.038285,6.33995406 C124.949104,6.33995406 126.010276,7.69925274 125.68677,10.0495584" id="Fill-1036"></path>
                <path d="M128.217583,2.74350597 C128.217583,1.17604244 129.461838,1.61816092e-12 131.050928,1.61816092e-12 C132.408943,1.61816092e-12 133.285254,0.898489309 133.285254,2.14392003 C133.285254,3.71138356 132.041,4.887426 130.451909,4.887426 C129.093894,4.887426 128.217583,3.98893669 128.217583,2.74350597 L128.217583,2.74350597 Z M130.659877,19.1084657 L126.191226,19.1084657 L127.895855,6.80005176 L132.362728,6.80005176 L130.659877,19.1084657 Z" id="Fill-1037"></path>
                <path d="M150.922562,4.81803772 L148.574476,7.2377317 C147.628842,6.38550125 146.615664,5.96917155 145.396294,5.96917155 C144.15204,5.96917155 143.483697,6.4993692 143.483697,7.26086113 C143.483697,8.02057387 144.061387,8.32125643 145.995314,8.96710122 C148.780666,9.91184938 150.048029,11.3405363 150.048029,13.6232329 C150.048029,16.3880892 148.25097,19.5692751 142.863348,19.5692751 C139.893134,19.5692751 137.912992,18.3932326 136.66696,17.1246725 L139.26923,14.4754634 C140.261078,15.4664704 141.434232,16.0197975 142.977108,16.0197975 C144.381338,16.0197975 145.119003,15.4664704 145.119003,14.4985928 C145.119003,13.6694918 144.589306,13.137515 142.863348,12.5397082 C139.662058,11.4793129 138.579557,9.93497881 138.579557,7.90670592 C138.579557,5.25571766 140.559699,2.6047294 145.211434,2.6047294 C147.65195,2.6047294 149.541439,3.410701 150.922562,4.81803772" id="Fill-1038"></path>
                <path d="M162.18111,8.04459289 L160.039215,10.6030634 C159.395757,10.0034775 158.748745,9.77396241 158.059072,9.77396241 C155.917177,9.77396241 155.456803,12.4000421 155.456803,14.2219293 C155.456803,15.6968751 156.125145,16.0420373 157.044116,16.0420373 C157.804889,16.0420373 158.380801,15.7662634 159.234004,15.2360657 L160.844425,18.0934397 C159.601948,18.991929 158.197718,19.5701647 156.400659,19.5701647 C152.831426,19.5701647 150.781961,17.4031152 150.781961,14.1062821 C150.781961,10.9250962 152.785211,6.34013198 158.035965,6.34013198 C159.715708,6.34013198 161.144824,6.96106816 162.18111,8.04459289" id="Fill-1039"></path>
                <path d="M173.761031,10.0495584 L172.493669,19.1073982 L168.026795,19.1073982 L169.132404,11.2487303 C169.27105,10.2808527 169.063081,10.0495584 168.762683,10.0495584 C168.211656,10.0495584 167.543313,10.9711772 166.738103,12.7005467 L165.838685,19.1073982 L161.371811,19.1073982 L163.766112,1.95959629 L168.279201,1.49878692 L167.28913,8.71338919 C168.07301,7.30605247 169.592778,6.33995406 171.112546,6.33995406 C173.023366,6.33995406 174.08276,7.69925274 173.761031,10.0495584" id="Fill-1040"></path>
                <path d="M182.256268,10.0730437 C182.256268,9.58910491 182.026969,9.22081325 181.358627,9.22081325 C180.046827,9.22081325 179.401592,10.6495002 179.102971,12.1475755 C181.888324,11.9856695 182.256268,10.6263708 182.256268,10.0730437 M178.91811,14.706046 C179.033648,15.9496975 179.792644,16.3411186 180.782715,16.3411186 C181.795893,16.3411186 182.670427,15.9496975 183.822251,15.2131142 L185.365126,17.8178436 C184.005334,18.8088506 182.256268,19.5685634 180.183695,19.5685634 C176.246518,19.5685634 174.449459,17.3783845 174.449459,14.2452366 C174.449459,10.9021447 176.338949,6.33853072 181.795893,6.33853072 C184.997182,6.33853072 186.724919,7.85973539 186.724919,9.86487885 C186.724919,13.2987093 182.510451,14.382234 178.91811,14.706046" id="Fill-1041"></path>
                <path d="M187.090552,15.6278427 L188.333029,6.799518 L192.80168,6.799518 L191.696071,14.7524828 C191.559203,15.7203604 191.834717,15.926746 192.225768,15.926746 C192.686142,15.926746 193.262054,15.3502895 193.768644,14.5674474 L194.851145,6.799518 L199.318019,6.799518 L197.61339,19.1079319 L193.722428,19.1079319 L193.768644,17.5635978 C192.755465,18.7627697 191.441888,19.5687413 189.968335,19.5687413 C187.643356,19.5687413 186.767046,17.9781484 187.090552,15.6278427" id="Fill-1042"></path>
                <path d="M207.490282,10.0730437 C207.490282,9.58910491 207.260984,9.22081325 206.592642,9.22081325 C205.280842,9.22081325 204.635607,10.6495002 204.336986,12.1475755 C207.122338,11.9856695 207.490282,10.6263708 207.490282,10.0730437 M204.152125,14.706046 C204.267663,15.9496975 205.026658,16.3411186 206.016729,16.3411186 C207.029908,16.3411186 207.904441,15.9496975 209.056265,15.2131142 L210.599141,17.8178436 C209.239349,18.8088506 207.490282,19.5685634 205.41771,19.5685634 C201.480533,19.5685634 199.683474,17.3783845 199.683474,14.2452366 C199.683474,10.9021447 201.572963,6.33853072 207.029908,6.33853072 C210.231197,6.33853072 211.958933,7.85973539 211.958933,9.86487885 C211.958933,13.2987093 207.744466,14.382234 204.152125,14.706046" id="Fill-1043"></path>
                <path d="M222.225811,6.61555009 L220.960226,11.0190373 C220.567397,10.9033902 220.268776,10.8340019 219.899055,10.8340019 C218.425502,10.8340019 217.735829,12.2858183 217.183025,13.9208909 L216.447137,19.1072203 L211.978486,19.1072203 L213.683115,6.80058551 L217.575854,6.80058551 L217.597184,8.98898522 C218.404172,7.33078317 219.671534,6.40738524 221.004664,6.40738524 C221.513031,6.40738524 221.834759,6.47677353 222.225811,6.61555009" id="Fill-1044"></path>
                <path d="M239.563431,10.0495584 L238.297846,19.1073982 L233.829195,19.1073982 L234.957912,11.2487303 C235.096557,10.2808527 234.913474,10.0495584 234.613075,10.0495584 C234.083378,10.0495584 233.484359,10.9017889 232.885339,12.5155113 L231.966368,19.1073982 L227.497717,19.1073982 L228.603326,11.2487303 C228.740194,10.2808527 228.534003,10.0495584 228.235382,10.0495584 C227.750123,10.0495584 227.083558,10.9480477 226.553861,12.6311584 L225.633113,19.1073982 L221.164462,19.1073982 L222.86909,6.79898425 L226.761829,6.79898425 L226.784937,8.59774205 C227.6808,7.16905509 229.0637,6.33995406 230.514145,6.33995406 C231.987698,6.33995406 232.954662,7.09966681 233.208845,8.43583606 C234.152701,7.16905509 235.533824,6.33995406 236.868731,6.33995406 C238.827543,6.33995406 239.886937,7.69925274 239.563431,10.0495584" id="Fill-1045"></path>
                <path d="M244.812585,14.5444958 C244.812585,16.0657005 245.294289,16.2952156 245.802656,16.2952156 C246.401676,16.2952156 247.022026,15.8575357 247.576608,14.9127875 L248.35871,9.61259017 C248.013874,9.52007246 247.759691,9.47381361 247.391747,9.47381361 C245.434712,9.47381361 244.812585,12.3774464 244.812585,14.5444958 M253.008667,7.79070294 L251.951051,15.1440818 C251.858621,15.9269239 251.858621,16.3201242 252.45764,16.5727687 L251.167171,19.4764015 C249.739833,19.3838838 248.404926,18.7629476 247.921444,17.4481286 C247.114456,18.6704299 246.010624,19.5689192 244.258003,19.5689192 C241.634404,19.5689192 240.230173,17.633164 240.230173,14.5676253 C240.230173,10.9487594 242.140993,6.33888655 247.576608,6.33888655 C249.302566,6.33888655 251.305816,6.77656649 253.008667,7.79070294" id="Fill-1046"></path>
                <path d="M265.672334,10.0495584 L264.404972,19.1073982 L259.938098,19.1073982 L261.043707,11.2487303 C261.182353,10.2808527 260.974385,10.0495584 260.673986,10.0495584 C260.122959,10.0495584 259.479502,10.9711772 258.672514,12.7005467 L257.751765,19.1073982 L253.283114,19.1073982 L254.987743,6.79898425 L258.880482,6.79898425 L258.901812,8.82725714 C259.868776,7.33096108 261.457866,6.33995406 263.02385,6.33995406 C264.934669,6.33995406 265.99584,7.69925274 265.672334,10.0495584" id="Fill-1047"></path>
                <path d="M278.566188,10.0495584 L277.298826,19.1073982 L272.831952,19.1073982 L273.937561,11.2487303 C274.076207,10.2808527 273.868239,10.0495584 273.56784,10.0495584 C273.016813,10.0495584 272.373356,10.9711772 271.566368,12.7005467 L270.645619,19.1073982 L266.176968,19.1073982 L267.881597,6.79898425 L271.774336,6.79898425 L271.795666,8.82725714 C272.76263,7.33096108 274.35172,6.33995406 275.917704,6.33995406 C277.828523,6.33995406 278.889694,7.69925274 278.566188,10.0495584" id="Fill-1048"></path>
                <path d="M7.17010549,30.4945492 C7.36207618,29.0338369 6.483988,27.6478504 4.89134223,27.6478504 C3.25425879,27.6478504 1.78070595,29.0640831 1.51052497,30.4945492 L7.17010549,30.4945492 Z M7.07945266,33.4302074 C7.17010549,33.5494129 7.12566783,33.6401514 7.00479739,33.7291107 C6.20136448,34.4140976 4.93577989,34.7717142 3.83372589,34.7717142 C1.58518025,34.7717142 0.157842572,32.997865 0.499123809,30.8219196 C0.856402604,28.615728 2.85076483,26.8578915 5.02643272,26.8578915 C7.31941603,26.8578915 8.40547246,28.7207 8.04819367,30.9411251 C8.01975357,31.1048103 7.98953596,31.1653026 7.82422786,31.1653026 L1.4074296,31.1653026 C1.22790145,32.6562611 2.39039066,33.9515091 4.0274741,33.9515091 C4.81846446,33.9515091 5.79964802,33.6828519 6.58886088,33.1473167 C6.66351615,33.102837 6.72395137,33.0725908 6.76661152,33.0725908 C6.81282669,33.0725908 6.8412668,33.102837 6.88748196,33.1473167 L7.07945266,33.4302074 Z" id="Fill-1049"></path>
                <path d="M16.3926977,30.6587682 L16.9437247,27.2302753 C16.9721648,27.0665901 17.0308225,27.0221104 17.1676905,27.0221104 L17.4787541,27.0221104 C17.583627,27.0221104 17.6422847,27.0808236 17.6582823,27.2302753 L17.5249693,28.7052211 C17.8804706,28.1091935 18.8936492,26.8584253 20.4276373,26.8584253 C21.9900655,26.8584253 23.2272099,27.856549 22.8557111,30.1819461 L22.1998112,34.4003979 C22.1695936,34.5480704 22.1109359,34.6085627 21.9616253,34.6085627 L21.4248184,34.6085627 C21.2915054,34.6085627 21.2452903,34.5640831 21.2755079,34.4003979 L21.9029676,30.4488241 C22.1838137,28.6162618 21.3199455,27.7070973 20.068581,27.7070973 C18.7158986,27.7070973 17.5676294,29.0646168 17.3294436,30.5698088 L16.7339789,34.4003979 C16.7055388,34.5480704 16.6593236,34.6085627 16.4975705,34.6085627 L15.9607636,34.6085627 C15.8274506,34.6085627 15.7812354,34.5640831 15.8114531,34.4003979 L16.3926977,30.6587682 Z" id="Fill-1050"></path>
                <path d="M32.4474914,30.8220975 C32.1950854,32.4020153 32.9842983,33.92322 34.6515993,33.92322 C36.3046803,33.92322 37.5862625,32.3575357 37.8226708,30.807864 C38.0608567,29.2724258 37.3018614,27.692508 35.6345604,27.692508 C33.9654819,27.692508 32.7158948,29.0784945 32.4474914,30.8220975 L32.4474914,30.8220975 Z M37.4956096,32.9090836 C37.2432037,33.3271924 36.215805,34.7718921 34.3529783,34.7718921 C32.225303,34.7718921 31.1819068,32.9980429 31.5249655,30.8220975 C31.8680243,28.6461521 33.4908876,26.8580694 35.6043428,26.8580694 C37.465392,26.8580694 38.0324166,28.2138097 38.268825,28.7511241 L38.5976636,27.2299195 C38.6723189,27.0804678 38.7309766,27.0217546 38.8518471,27.0217546 L39.1504681,27.0217546 C39.2837811,27.0217546 39.3424388,27.0662343 39.3122212,27.2299195 L38.2261648,34.1011387 C37.7942307,36.828632 36.4842085,37.8285349 34.2498829,37.8285349 C32.6412396,37.8285349 31.7187137,37.4246595 31.4200926,37.305454 C31.2867796,37.2609743 31.2725596,37.200482 31.3312173,37.067043 L31.5107455,36.6044544 C31.5551831,36.5012616 31.5854007,36.4567819 31.660056,36.4567819 C31.6884961,36.4567819 31.7187137,36.4710154 31.7631514,36.4870281 C32.1950854,36.6489341 32.909643,36.9923171 34.2943205,36.9923171 C36.2744627,36.9923171 37.0192379,35.8162747 37.2876414,34.1918772 L37.4956096,32.9090836 Z" id="Fill-1051"></path>
                <path d="M54.1039188,30.4945492 C54.2958895,29.0338369 53.4178014,27.6478504 51.8251556,27.6478504 C50.1880721,27.6478504 48.7145193,29.0640831 48.4443383,30.4945492 L54.1039188,30.4945492 Z M54.013266,33.4302074 C54.1039188,33.5494129 54.0594812,33.6401514 53.9386107,33.7291107 C53.1351778,34.4140976 51.8695932,34.7717142 50.7675393,34.7717142 C48.5189936,34.7717142 47.0916559,32.997865 47.4329372,30.8219196 C47.790216,28.615728 49.7845782,26.8578915 51.9602461,26.8578915 C54.2532294,26.8578915 55.3392858,28.7207 54.982007,30.9411251 C54.9535669,31.1048103 54.9233493,31.1653026 54.7580412,31.1653026 L48.341243,31.1653026 C48.1617148,32.6562611 49.324204,33.9515091 50.9612875,33.9515091 C51.7522778,33.9515091 52.7334614,33.6828519 53.5226742,33.1473167 C53.5973295,33.102837 53.6577647,33.0725908 53.7004249,33.0725908 C53.74664,33.0725908 53.7750802,33.102837 53.8212953,33.1473167 L54.013266,33.4302074 Z" id="Fill-1052"></path>
                <path d="M63.326511,30.6587682 L63.877538,27.2302753 C63.9059781,27.0665901 63.9646358,27.0221104 64.1015038,27.0221104 L64.4125675,27.0221104 C64.5174403,27.0221104 64.576098,27.0808236 64.5920956,27.2302753 L64.4587826,28.7052211 C64.8142839,28.1091935 65.8274626,26.8584253 67.3614506,26.8584253 C68.9238788,26.8584253 70.1610233,27.856549 69.7895244,30.1819461 L69.1336246,34.4003979 C69.103407,34.5480704 69.0447492,34.6085627 68.8954387,34.6085627 L68.3586318,34.6085627 C68.2253188,34.6085627 68.1791036,34.5640831 68.2093212,34.4003979 L68.836781,30.4488241 C69.117627,28.6162618 68.2537589,27.7070973 67.0023943,27.7070973 C65.6497119,27.7070973 64.5014428,29.0646168 64.2632569,30.5698088 L63.6677923,34.4003979 C63.6393522,34.5480704 63.593137,34.6085627 63.4313839,34.6085627 L62.894577,34.6085627 C62.761264,34.6085627 62.7150488,34.5640831 62.7452664,34.4003979 L63.326511,30.6587682 Z" id="Fill-1053"></path>
                <path d="M78.3711478,34.3996862 L80.0526689,23.8170834 C80.084664,23.6533982 80.1433217,23.6089186 80.2766347,23.6089186 L80.8134416,23.6089186 C80.9467546,23.6089186 81.0054123,23.6533982 80.9769722,23.8170834 L80.217977,28.5870831 C80.5308181,28.0640022 81.5279992,26.8577136 82.987332,26.8577136 C84.5515377,26.8577136 85.8029022,27.8558373 85.4296259,30.1812344 L84.7595059,34.3996862 C84.7292883,34.5473587 84.6706306,34.6078511 84.5213201,34.6078511 L84.0005107,34.6078511 C83.8654202,34.6078511 83.8067625,34.5633714 83.8352026,34.3996862 L84.4626624,30.4498916 C84.7595059,28.6173293 83.8956378,27.7081648 82.6442733,27.7081648 C81.2898134,27.7081648 80.1433217,29.0639052 79.9051359,30.5690971 L79.2954511,34.3996862 C79.2652335,34.5473587 79.2047983,34.6078511 79.0572653,34.6078511 L78.5346784,34.6078511 C78.4013654,34.6078511 78.3409302,34.5633714 78.3711478,34.3996862" id="Fill-1054"></path>
                <path d="M100.308777,30.4945492 C100.500748,29.0338369 99.6226593,27.6478504 98.0300135,27.6478504 C96.3929301,27.6478504 94.9193773,29.0640831 94.6491963,30.4945492 L100.308777,30.4945492 Z M100.218124,33.4302074 C100.308777,33.5494129 100.264339,33.6401514 100.143469,33.7291107 C99.3400358,34.4140976 98.0744512,34.7717142 96.9723972,34.7717142 C94.7238516,34.7717142 93.2965139,32.997865 93.6377951,30.8219196 C93.9950739,28.615728 95.9894362,26.8578915 98.165104,26.8578915 C100.458087,26.8578915 101.544144,28.7207 101.186865,30.9411251 C101.158425,31.1048103 101.128207,31.1653026 100.962899,31.1653026 L94.5461009,31.1653026 C94.3665728,32.6562611 95.529062,33.9515091 97.1661454,33.9515091 C97.9571358,33.9515091 98.9383193,33.6828519 99.7275322,33.1473167 C99.8021875,33.102837 99.8626227,33.0725908 99.9052828,33.0725908 C99.951498,33.0725908 99.9799381,33.102837 100.026153,33.1473167 L100.218124,33.4302074 Z" id="Fill-1055"></path>
                <path d="M111.079577,23.802672 C111.451076,23.802672 111.719479,24.1158089 111.659044,24.4876589 C111.600386,24.8755216 111.228888,25.1886585 110.855611,25.1886585 C110.468115,25.1886585 110.215709,24.8755216 110.276144,24.4876589 C110.334802,24.1158089 110.692081,23.802672 111.079577,23.802672 L111.079577,23.802672 Z M110.080618,27.2311649 C110.110836,27.0657005 110.169494,27.0212208 110.334802,27.0212208 L110.839614,27.0212208 C111.004922,27.0212208 111.035139,27.0817132 111.004922,27.2311649 L109.87265,34.3995083 C109.84421,34.5631935 109.797995,34.6076731 109.636242,34.6076731 L109.127875,34.6076731 C108.966122,34.6076731 108.919907,34.5631935 108.950124,34.3995083 L110.080618,27.2311649 Z" id="Fill-1056"></path>
                <path d="M120.776052,30.6431113 L120.196585,34.3989745 C120.166368,34.5484262 120.105933,34.6089186 119.9584,34.6089186 L119.421593,34.6089186 C119.28828,34.6089186 119.243842,34.5644389 119.272282,34.3989745 L120.404554,27.2306311 C120.434771,27.0669459 120.493429,27.0206871 120.628519,27.0206871 L120.941361,27.0206871 C121.058676,27.0206871 121.104891,27.0669459 121.133331,27.2306311 L121.000018,28.8407951 C121.373295,28.2590011 122.294043,26.8587811 124.499928,26.8587811 C124.677679,26.8587811 124.707897,26.9014816 124.663459,27.0366998 L124.483931,27.572235 C124.441271,27.7376993 124.379058,27.7661663 124.231525,27.7661663 C122.221165,27.7661663 121.016016,29.1984117 120.776052,30.6431113" id="Fill-1057"></path>
                <path d="M138.009511,30.8220975 C138.292134,29.092728 137.19008,27.7085207 135.522779,27.7085207 C133.853701,27.7085207 132.305493,29.092728 132.038867,30.8220975 C131.754466,32.551467 132.87074,33.9374535 134.539818,33.9374535 C136.207119,33.9374535 137.741107,32.551467 138.009511,30.8220975 M135.656092,26.8580694 C137.829983,26.8580694 139.289315,28.6461521 138.932037,30.8220975 C138.588978,32.9980429 136.564398,34.7718921 134.390508,34.7718921 C132.216617,34.7718921 130.773282,32.9980429 131.114563,30.8220975 C131.471842,28.6159059 133.482202,26.8580694 135.656092,26.8580694" id="Fill-1058"></path>
                <path d="M157.343448,32.3128781 C157.179918,33.341248 157.821598,34.0262349 159.085405,34.0262349 C160.217676,34.0262349 161.380165,33.2522887 161.973853,32.5210429 L162.183598,31.1795361 C161.438823,30.8361531 160.871799,30.5995212 159.96527,30.5995212 C158.445502,30.5995212 157.522976,31.1795361 157.343448,32.3128781 M158.058006,27.9449746 C157.95491,27.9449746 157.938913,27.8862614 157.908695,27.7368098 L157.866035,27.3934267 C157.850038,27.2457542 157.896253,27.1710284 158.074003,27.1265487 C158.253532,27.082069 159.503119,26.8578915 160.66383,26.8578915 C163.061686,26.8578915 163.626934,27.9307411 163.226995,30.4198234 L162.599535,34.3998641 C162.569317,34.5475366 162.526657,34.608029 162.347129,34.608029 L162.020068,34.608029 C161.915195,34.608029 161.856537,34.5475366 161.84054,34.3998641 L161.98985,33.2807557 C161.513478,33.8483162 160.306552,34.7717142 158.683688,34.7717142 C157.226133,34.7717142 156.168517,33.8767832 156.419145,32.3128781 C156.689326,30.6742471 158.013568,29.882509 159.904835,29.882509 C160.738486,29.882509 161.557916,30.1066865 162.302691,30.4500696 C162.63153,28.4217967 162.137383,27.6780966 160.5003,27.6780966 C159.519116,27.6780966 158.728126,27.8417818 158.132661,27.9307411 C158.104221,27.9307411 158.074003,27.9449746 158.058006,27.9449746" id="Fill-1059"></path>
                <path d="M172.999014,27.230809 C173.029232,27.0671239 173.087889,27.020865 173.22298,27.020865 L173.535821,27.020865 C173.638916,27.020865 173.699352,27.0813574 173.713572,27.230809 L173.564261,28.7502345 C173.8931,28.1239608 174.801406,26.858959 176.274958,26.858959 C177.792949,26.858959 178.374193,28.0954938 178.493286,28.8107269 C178.866563,28.1399735 179.877964,26.858959 181.351517,26.858959 C182.752192,26.858959 183.973339,27.8570828 183.60184,30.1824799 L182.94594,34.3991525 C182.915722,34.5486041 182.857065,34.6073173 182.707754,34.6073173 L182.186945,34.6073173 C182.051854,34.6073173 181.993197,34.5646168 182.021637,34.3991525 L182.649096,30.4493579 C182.93172,28.6167955 182.067852,27.7076311 180.994238,27.7076311 C179.849524,27.7076311 178.745692,28.7947142 178.479066,30.5240837 L177.867604,34.3991525 C177.839164,34.5486041 177.778729,34.6073173 177.629418,34.6073173 L177.110386,34.6073173 C176.973518,34.6073173 176.914861,34.5646168 176.945078,34.3991525 L177.568983,30.4493579 C177.823166,28.8552065 177.183264,27.7076311 175.91768,27.7076311 C174.666315,27.7076311 173.653136,28.9601786 173.38651,30.5685634 L172.791046,34.3991525 C172.760828,34.5486041 172.700393,34.6073173 172.55286,34.6073173 L172.030273,34.6073173 C171.89696,34.6073173 171.838302,34.5646168 171.866742,34.3991525 L172.999014,27.230809 Z" id="Fill-1060"></path>
                <path d="M199.272692,30.8073302 C199.525098,29.1971662 198.735885,27.7079869 197.084582,27.7079869 C195.415503,27.7079869 194.149919,29.2718921 193.897513,30.8215637 C193.643329,32.3570019 194.432542,33.9369197 196.085623,33.9369197 C197.754702,33.9369197 198.990069,32.5509333 199.272692,30.8073302 L199.272692,30.8073302 Z M194.238794,28.7203442 C194.47698,28.2880018 195.504379,26.8575357 197.367205,26.8575357 C199.48066,26.8575357 200.522279,28.6313849 200.180998,30.8073302 C199.852159,32.9690422 198.229296,34.7731375 196.115841,34.7731375 C194.254792,34.7731375 193.673547,33.415618 193.451359,32.8800828 L193.106522,34.3995083 C193.047865,34.54896 192.989207,34.6076731 192.868337,34.6076731 L192.569715,34.6076731 C192.436402,34.6076731 192.377745,34.5631935 192.407962,34.3995083 L194.089483,23.8169055 C194.121479,23.6532203 194.180136,23.6087407 194.313449,23.6087407 L194.850256,23.6087407 C194.999567,23.6087407 195.042227,23.6674538 195.013787,23.8169055 L194.238794,28.7203442 Z" id="Fill-1061"></path>
                <path d="M210.13219,23.802672 C210.503689,23.802672 210.772092,24.1158089 210.711657,24.4876589 C210.652999,24.8755216 210.281501,25.1886585 209.908224,25.1886585 C209.520728,25.1886585 209.268322,24.8755216 209.328757,24.4876589 C209.387415,24.1158089 209.744694,23.802672 210.13219,23.802672 L210.13219,23.802672 Z M209.133231,27.2311649 C209.163449,27.0657005 209.222107,27.0212208 209.387415,27.0212208 L209.892227,27.0212208 C210.057535,27.0212208 210.087752,27.0817132 210.057535,27.2311649 L208.925263,34.3995083 C208.896823,34.5631935 208.850608,34.6076731 208.688855,34.6076731 L208.180488,34.6076731 C208.018735,34.6076731 207.97252,34.5631935 208.002737,34.3995083 L209.133231,27.2311649 Z" id="Fill-1062"></path>
                <path d="M224.518794,30.4945492 C224.710765,29.0338369 223.832677,27.6478504 222.240031,27.6478504 C220.602947,27.6478504 219.129394,29.0640831 218.859213,30.4945492 L224.518794,30.4945492 Z M224.428141,33.4302074 C224.518794,33.5494129 224.474356,33.6401514 224.353486,33.7291107 C223.550053,34.4140976 222.284468,34.7717142 221.182414,34.7717142 C218.933869,34.7717142 217.506531,32.997865 217.847812,30.8219196 C218.205091,28.615728 220.199453,26.8578915 222.375121,26.8578915 C224.668105,26.8578915 225.754161,28.7207 225.396882,30.9411251 C225.368442,31.1048103 225.338224,31.1653026 225.172916,31.1653026 L218.756118,31.1653026 C218.57659,32.6562611 219.739079,33.9515091 221.376163,33.9515091 C222.167153,33.9515091 223.148337,33.6828519 223.937549,33.1473167 C224.012205,33.102837 224.07264,33.0725908 224.1153,33.0725908 C224.161515,33.0725908 224.189955,33.102837 224.23617,33.1473167 L224.428141,33.4302074 Z" id="Fill-1063"></path>
                <path d="M233.741386,30.6587682 L234.292413,27.2302753 C234.320853,27.0665901 234.379511,27.0221104 234.516379,27.0221104 L234.827443,27.0221104 C234.932315,27.0221104 234.990973,27.0808236 235.006971,27.2302753 L234.873658,28.7052211 C235.229159,28.1091935 236.242338,26.8584253 237.776326,26.8584253 C239.338754,26.8584253 240.575898,27.856549 240.2044,30.1819461 L239.5485,34.4003979 C239.518282,34.5480704 239.459624,34.6085627 239.310314,34.6085627 L238.773507,34.6085627 C238.640194,34.6085627 238.593979,34.5640831 238.624196,34.4003979 L239.251656,30.4488241 C239.532502,28.6162618 238.668634,27.7070973 237.417269,27.7070973 C236.064587,27.7070973 234.916318,29.0646168 234.678132,30.5698088 L234.082667,34.4003979 C234.054227,34.5480704 234.008012,34.6085627 233.846259,34.6085627 L233.309452,34.6085627 C233.176139,34.6085627 233.129924,34.5640831 233.160142,34.4003979 L233.741386,30.6587682 Z" id="Fill-1064"></path>
                <path d="M248.963063,27.5877139 L249.0075,27.2300974 C249.037718,27.0521787 249.096376,27.0219325 249.245686,27.0219325 L250.036676,27.0219325 L250.287305,25.4562482 C250.3193,25.3067965 250.36196,25.2480833 250.527268,25.2480833 L251.03208,25.2480833 C251.197388,25.2480833 251.240048,25.292563 251.211608,25.4562482 L250.957425,27.0219325 L253.772995,27.0219325 C253.922306,27.0219325 253.980963,27.0521787 253.952523,27.2300974 L253.89031,27.5877139 C253.86187,27.7513991 253.815655,27.7976579 253.653902,27.7976579 L250.840109,27.7976579 L250.273085,31.3738233 C249.974464,33.2526445 250.406398,33.9233979 251.68798,33.9233979 C252.134134,33.9233979 252.37232,33.8913726 252.790034,33.6832077 C252.862912,33.6547407 252.909127,33.638728 252.937567,33.638728 C252.99978,33.638728 253.02822,33.6832077 253.04244,33.7881797 L253.058437,34.1760424 C253.074435,34.3094814 253.058437,34.3539611 252.925124,34.428687 C252.283445,34.77207 251.65954,34.77207 251.464014,34.77207 C249.49987,34.77207 249.0075,33.5355352 249.334561,31.4485492 L249.915806,27.7976579 L249.126593,27.7976579 C248.97906,27.7976579 248.932845,27.7513991 248.963063,27.5877139" id="Fill-1065"></path>
                <path d="M261.862071,32.3128781 C261.698541,33.341248 262.340221,34.0262349 263.604028,34.0262349 C264.736299,34.0262349 265.898788,33.2522887 266.492476,32.5210429 L266.702221,31.1795361 C265.957446,30.8361531 265.390422,30.5995212 264.483893,30.5995212 C262.964125,30.5995212 262.041599,31.1795361 261.862071,32.3128781 M262.576629,27.9449746 C262.473534,27.9449746 262.457536,27.8862614 262.427318,27.7368098 L262.384658,27.3934267 C262.368661,27.2457542 262.414876,27.1710284 262.592626,27.1265487 C262.772155,27.082069 264.021742,26.8578915 265.182453,26.8578915 C267.58031,26.8578915 268.145557,27.9307411 267.745618,30.4198234 L267.118158,34.3998641 C267.08794,34.5475366 267.04528,34.608029 266.865752,34.608029 L266.538691,34.608029 C266.433818,34.608029 266.37516,34.5475366 266.359163,34.3998641 L266.508473,33.2807557 C266.032101,33.8483162 264.825175,34.7717142 263.202311,34.7717142 C261.744756,34.7717142 260.68714,33.8767832 260.937768,32.3128781 C261.207949,30.6742471 262.532191,29.882509 264.423458,29.882509 C265.257109,29.882509 266.076539,30.1066865 266.821314,30.4500696 C267.150153,28.4217967 266.656006,27.6780966 265.018923,27.6780966 C264.037739,27.6780966 263.246749,27.8417818 262.651284,27.9307411 C262.622844,27.9307411 262.592626,27.9449746 262.576629,27.9449746" id="Fill-1066"></path>
                <path d="M278.066176,23.8174393 C278.098171,23.6537541 278.140831,23.6092744 278.306139,23.6092744 L278.810951,23.6092744 C278.990479,23.6092744 279.018919,23.6537541 278.990479,23.8174393 L277.30718,34.4000421 C277.27874,34.5637272 277.232525,34.6082069 277.068994,34.6082069 L276.562405,34.6082069 C276.400652,34.6082069 276.354437,34.5637272 276.384654,34.4000421 L278.066176,23.8174393 Z" id="Fill-1067"></path>
                <path d="M6.16332584,47.1665966 L5.77405193,47.6523146 C5.2159149,47.2146346 4.75376323,47.0207033 4.07297826,47.0207033 C2.62786552,47.0207033 1.42449366,48.0419565 1.42449366,50.6929447 C1.42449366,53.2229483 2.57809534,54.354511 4.03742813,54.354511 C4.89951876,54.354511 5.39722056,54.0502701 5.88425733,53.6606282 L6.26108869,54.1356711 C5.76160938,54.6107139 5.04527429,54.9985767 4.01254304,54.9985767 C2.09283609,54.9985767 0.658388386,53.5040598 0.658388386,50.6929447 C0.658388386,47.8480251 2.17815639,46.3997671 4.02498559,46.3997671 C5.00972416,46.3997671 5.56786118,46.6808786 6.16332584,47.1665966" id="Fill-1068"></path>
                <path d="M9.99954024,50.5356646 C11.3237825,50.5356646 12.0898878,50.0125837 12.0898878,48.79562 C12.0898878,47.6889658 11.4695381,47.1303012 9.8786698,47.1303012 L8.61486272,47.1303012 L8.61486272,50.5356646 L9.99954024,50.5356646 Z M10.2786088,51.1316922 L8.61486272,51.1316922 L8.61486272,54.8662052 L7.88608508,54.8662052 L7.88608508,46.5342736 L9.90177739,46.5342736 C11.9068047,46.5342736 12.8666581,47.3242325 12.8666581,48.79562 C12.8666581,50.0374923 12.1858732,50.6940122 11.0073864,50.9982532 L13.2932597,54.8662052 L12.4293915,54.8662052 L10.2786088,51.1316922 Z" id="Fill-1069"></path>
                <polygon id="Fill-1070" points="19.1926258 47.1423996 15.7780359 47.1423996 15.7780359 50.2435221 18.7304741 50.2435221 18.7304741 50.852004 15.7780359 50.852004 15.7780359 54.2573675 19.3632664 54.2573675 19.3632664 54.8658493 15.0492583 54.8658493 15.0492583 46.5339178 19.2779461 46.5339178"></polygon>
                <path d="M24.8879342,51.9707566 L23.3450586,47.1295895 L21.7897405,51.9707566 L24.8879342,51.9707566 Z M25.0816824,52.5916928 L21.5835497,52.5916928 L20.8529946,54.8654935 L20.1117744,54.8654935 L22.8953495,46.5335619 L23.8072103,46.5335619 L26.5765653,54.8654935 L25.8122376,54.8654935 L25.0816824,52.5916928 Z" id="Fill-1071"></path>
                <polygon id="Fill-1072" points="27.4838046 51.3635202 30.7046463 51.3635202 30.7046463 50.7550383 27.4838046 50.7550383"></polygon>
                <path d="M34.9887923,50.5356646 C36.3130346,50.5356646 37.0791399,50.0125837 37.0791399,48.79562 C37.0791399,47.6889658 36.4587901,47.1303012 34.8679219,47.1303012 L33.6041148,47.1303012 L33.6041148,50.5356646 L34.9887923,50.5356646 Z M35.2678608,51.1316922 L33.6041148,51.1316922 L33.6041148,54.8662052 L32.8753372,54.8662052 L32.8753372,46.5342736 L34.8910295,46.5342736 C36.8960567,46.5342736 37.8559102,47.3242325 37.8559102,48.79562 C37.8559102,50.0374923 37.1751252,50.6940122 35.9966385,50.9982532 L38.2825117,54.8662052 L37.4186436,54.8662052 L35.2678608,51.1316922 Z" id="Fill-1073"></path>
                <path d="M44.2565332,47.3247663 L43.8317091,47.7873548 C43.2113594,47.2518196 42.6532223,47.0205253 41.8871171,47.0205253 C40.8668284,47.0205253 40.1611583,47.5560606 40.1611583,48.4314204 C40.1611583,49.2836509 40.6108674,49.6715136 42.1057504,50.1216479 C43.6006333,50.5842364 44.5124941,51.1197716 44.5124941,52.5911591 C44.5124941,54.0145085 43.4299927,54.9983987 41.7538041,54.9983987 C40.6108674,54.9983987 39.7736619,54.5980817 39.0928769,53.9540161 L39.5052584,53.4914276 C40.1256082,54.0269628 40.7690655,54.3792417 41.7413615,54.3792417 C42.9074058,54.3792417 43.7712739,53.7351761 43.7712739,52.6160677 C43.7712739,51.6054896 43.2717946,51.1927183 41.7893542,50.7301297 C40.1380507,50.2195031 39.4199381,49.6483842 39.4199381,48.4438747 C39.4199381,47.2642739 40.4046767,46.3995892 41.862232,46.3995892 C42.9447334,46.3995892 43.6006333,46.741193 44.2565332,47.3247663" id="Fill-1074"></path>
                <path d="M53.5086319,48.7721347 C53.5086319,50.3769611 52.6092137,51.3875392 49.9002939,54.2449131 L53.7272652,54.2449131 L53.6295024,54.8658493 L49.0737534,54.8658493 L49.0737534,54.2698218 C52.0741842,51.070844 52.7798543,50.2310678 52.7798543,48.8094976 C52.7798543,47.8469576 52.1719471,47.2402549 51.2494212,47.2402549 C50.4708734,47.2402549 49.935844,47.5676253 49.4381422,48.1636528 L48.9528829,47.7989195 C49.5963403,47.0214149 50.3126754,46.6442273 51.2849714,46.6442273 C52.6696489,46.6442273 53.5086319,47.555171 53.5086319,48.7721347" id="Fill-1075"></path>
                <path d="M55.8988448,50.8153528 C55.8988448,53.3079934 56.5423022,54.4146476 57.7101239,54.4146476 C58.8761681,54.4146476 59.5071829,53.3204477 59.5071829,50.8278071 C59.5071829,48.3333872 58.8761681,47.2267331 57.7101239,47.2267331 C56.5547447,47.2267331 55.8988448,48.3227121 55.8988448,50.8153528 M60.2484031,50.8278071 C60.2484031,53.5641963 59.3614274,55 57.7101239,55 C56.0446004,55 55.1700672,53.551742 55.1700672,50.8153528 C55.1700672,48.0789635 56.0446004,46.6431598 57.7101239,46.6431598 C59.3738699,46.6431598 60.2484031,48.0789635 60.2484031,50.8278071" id="Fill-1076"></path>
                <path d="M65.9684188,47.3612396 L62.687142,47.3612396 L62.687142,50.1225374 C63.0764159,49.9036975 63.5136824,49.7453499 64.073597,49.7453499 C65.4582745,49.7453499 66.3452502,50.6936564 66.3452502,52.2628991 C66.3452502,53.8552712 65.3374041,54.9992883 63.7447583,54.9992883 C62.7600197,54.9992883 62.0436846,54.634555 61.4606625,54.0260732 L61.8979291,53.6008475 C62.4080734,54.1363828 62.9555454,54.4032608 63.7447583,54.4032608 C64.8876949,54.4032608 65.60403,53.5759389 65.60403,52.2504448 C65.60403,50.9000421 64.89836,50.3164688 63.9153989,50.3164688 C63.3679269,50.3164688 63.0159806,50.4499078 62.5662715,50.7061107 L62.006357,50.7061107 L62.006357,46.7776664 L66.0786242,46.7776664 L65.9684188,47.3612396 Z" id="Fill-1077"></path>
                <path d="M68.4907005,50.8153528 C68.4907005,53.3079934 69.1341578,54.4146476 70.3019796,54.4146476 C71.4680238,54.4146476 72.0990386,53.3204477 72.0990386,50.8278071 C72.0990386,48.3333872 71.4680238,47.2267331 70.3019796,47.2267331 C69.1466004,47.2267331 68.4907005,48.3227121 68.4907005,50.8153528 M72.8402587,50.8278071 C72.8402587,53.5641963 71.953283,55 70.3019796,55 C68.636456,55 67.7619228,53.551742 67.7619228,50.8153528 C67.7619228,48.0789635 68.636456,46.6431598 70.3019796,46.6431598 C71.9657256,46.6431598 72.8402587,48.0789635 72.8402587,50.8278071" id="Fill-1078"></path>
                <polygon id="Fill-1079" points="76.846936 54.8654935 76.1430435 54.8654935 76.1430435 47.5565943 74.1486812 48.7966875 73.8216201 48.2736066 76.2390288 46.7773105 76.846936 46.7773105"></polygon>
                <path d="M83.2349387,47.3612396 L79.9536618,47.3612396 L79.9536618,50.1225374 C80.3429357,49.9036975 80.7802023,49.7453499 81.3401168,49.7453499 C82.7247943,49.7453499 83.61177,50.6936564 83.61177,52.2628991 C83.61177,53.8552712 82.6039239,54.9992883 81.0112781,54.9992883 C80.0265395,54.9992883 79.3102044,54.634555 78.7271823,54.0260732 L79.1644489,53.6008475 C79.6745933,54.1363828 80.2220653,54.4032608 81.0112781,54.4032608 C82.1542148,54.4032608 82.8705499,53.5759389 82.8705499,52.2504448 C82.8705499,50.9000421 82.1648798,50.3164688 81.1819187,50.3164688 C80.6344467,50.3164688 80.2825005,50.4499078 79.8327913,50.7061107 L79.2728768,50.7061107 L79.2728768,46.7776664 L83.3451441,46.7776664 L83.2349387,47.3612396 Z" id="Fill-1080"></path>
            </g>
        </g>
    </g>
</svg>