<?xml version="1.0" encoding="UTF-8"?>
<svg width="55px" height="35px" viewBox="0 0 55 35" version="1.1" xmlns="http://www.w3.org/2000/svg" xmlns:xlink="http://www.w3.org/1999/xlink">
    <title>visa copy 2</title>
    <g id="Page-1" stroke="none" stroke-width="1" fill="none" fill-rule="evenodd">
        <g id="visa-copy-2" fill-rule="nonzero">
            <path d="M2.8,0 L51.8,0 C53.34644,0 54.6,1.25363 54.6,2.8 L54.6,32.2 C54.6,33.74644 53.34644,35 51.8,35 L2.8,35 C1.25363,35 0,33.74644 0,32.2 L0,2.8 C0,1.25363 1.25363,0 2.8,0 Z" id="Path" fill="#FFFFFF"></path>
            <path d="M20.524,24.4111 L22.85927,10.7079 L26.59447,10.7079 L24.25752,24.4111 L20.524,24.4111 Z M37.7517,11.0033 C37.0118,10.72568 35.85211,10.42776 34.40416,10.42776 C30.71341,10.42776 28.11361,12.28626 28.09156,14.94997 C28.07063,16.91907 29.94754,18.01751 31.3642,18.67299 C32.81817,19.34464 33.30684,19.77297 33.29998,20.3728 C33.29081,21.29127 32.13896,21.71092 31.06544,21.71092 C29.57045,21.71092 28.77623,21.50323 27.54955,20.9916 L27.06823,20.7739 L26.544,23.84151 C27.41641,24.22399 29.0297,24.55537 30.70466,24.57252 C34.63096,24.57252 37.17966,22.7353 37.20878,19.89078 C37.22271,18.33195 36.22766,17.14566 34.07271,16.16762 C32.76721,15.53377 31.96767,15.11069 31.97614,14.46886 C31.97614,13.89927 32.6529,13.29013 34.11513,13.29013 C35.33656,13.27123 36.22143,13.53758 36.91079,13.81513 L37.24546,13.97333 L37.7517,11.0033 M47.3634,10.70769 L44.47716,10.70769 C43.58305,10.70769 42.91392,10.95178 42.52129,11.84407 L36.97421,24.40207 L40.89638,24.40207 C40.89638,24.40207 41.53758,22.71346 41.68262,22.34281 C42.11137,22.34281 45.92147,22.34869 46.46628,22.34869 C46.578,22.8284 46.92058,24.40207 46.92058,24.40207 L50.38656,24.40207 L47.3634,10.70727 L47.3634,10.70769 Z M42.78414,19.55639 C43.09298,18.76686 44.27234,15.72578 44.27234,15.72578 C44.25022,15.76232 44.57887,14.9324 44.76752,14.4179 L45.01987,15.59943 C45.01987,15.59943 45.7352,18.87046 45.88465,19.55639 L42.78414,19.55639 Z M17.35314,10.70769 L13.69634,20.05269 L13.30665,18.15359 C12.6259,15.96448 10.5049,13.59274 8.13379,12.40533 L11.47741,24.38933 L15.42933,24.38485 L21.30961,10.70755 L17.35314,10.70755" id="Shape" fill="#000000"></path>
            <path d="M10.2844,10.7072 L4.26153,10.7072 L4.21386,10.99231 C8.89952,12.12659 11.99996,14.86772 13.28726,18.16101 L11.97756,11.86381 C11.75146,10.99616 11.09577,10.73723 10.28454,10.70692" id="Path" fill="#393939"></path>
        </g>
    </g>
</svg>