<?xml version="1.0" encoding="UTF-8"?>
<svg width="55px" height="35px" viewBox="0 0 55 35" version="1.1" xmlns="http://www.w3.org/2000/svg" xmlns:xlink="http://www.w3.org/1999/xlink">
    <title>diners copy 2</title>
    <g id="Page-1" stroke="none" stroke-width="1" fill="none" fill-rule="evenodd">
        <g id="diners-copy-2" fill-rule="nonzero">
            <path d="M2.8,0 L51.8,0 C53.34644,0 54.6,1.25363 54.6,2.8 L54.6,32.2 C54.6,33.74644 53.34644,35 51.8,35 L2.8,35 C1.25363,35 0,33.74644 0,32.2 L0,2.8 C0,1.25363 1.25363,0 2.8,0 Z" id="Path" fill="#FFFFFF"></path>
            <path d="M41.9951,17.6015 C41.9951,10.64245 36.1865,5.8324 29.8221,5.83449917 L24.34516,5.83449917 C17.90495,5.83219 12.60406,10.64385 12.60406,17.6015 C12.60406,23.9666 17.90495,29.1963 24.34516,29.1656354 L29.8221,29.1656354 C36.18608,29.19602 41.9951,23.96492 41.9951,17.6015 Z" id="Path" fill="#000000"></path>
            <path d="M24.3796,6.8201 C18.4947,6.82199 13.7263,11.60166 13.7249,17.5007 C13.7263,23.39876 18.49498,28.1778 24.3796,28.1799 C30.2659,28.17801 35.0357,23.39869 35.0364,17.5007 C35.03563,11.60166 30.26597,6.8222 24.3796,6.8201 Z" id="Path" fill="#313131"></path>
            <path d="M17.6449,17.472 C17.6505,14.58933 19.44712,12.13121 21.9807,11.1545 L21.9807,23.7881 C19.44712,22.81174 17.65043,20.35495 17.6449,17.472 Z M26.8149,23.79118 L26.8149,11.15408 C29.34939,12.12848 31.14888,14.58807 31.15343,17.47207 C31.14888,20.35691 29.34939,22.81461 26.8149,23.7909 L26.8149,23.79118 Z" id="Shape" fill="#FFFFFF"></path>
        </g>
    </g>
</svg>