<?xml version="1.0" encoding="UTF-8"?>
<svg width="37px" height="39px" viewBox="0 0 37 39" version="1.1" xmlns="http://www.w3.org/2000/svg" xmlns:xlink="http://www.w3.org/1999/xlink">
    <title>Group</title>
    <g id="Page-1" stroke="none" stroke-width="1" fill="none" fill-rule="evenodd">
        <g id="HOME-01-Copy-2" transform="translate(-461.000000, -22.000000)" fill="#DACEB6">
            <g id="Group" transform="translate(461.000000, 22.000000)">
                <path d="M20.3343606,20.6156748 L21.4447869,20.6156748 L21.4447869,19.562249 L20.3343606,19.562249 L20.3343606,20.6156748 Z M20.3343606,18.5097968 L21.4447869,18.5097968 L21.4447869,17.4563709 L20.3343606,17.4563709 L20.3343606,18.5097968 Z M18.1124807,18.5088232 L19.222907,18.5088232 L19.222907,17.4553973 L18.1124807,17.4553973 L18.1124807,18.5088232 Z M18.1124807,20.6147012 L19.222907,20.6147012 L19.222907,19.5612754 L18.1124807,19.5612754 L18.1124807,20.6147012 Z M22.5562404,20.6156748 L23.6666667,20.6156748 L23.6666667,19.562249 L22.5562404,19.562249 L22.5562404,20.6156748 Z M22.5562404,18.5097968 L23.6666667,18.5097968 L23.6666667,17.4563709 L22.5562404,17.4563709 L22.5562404,18.5097968 Z M24.7781202,20.6156748 L25.8885465,20.6156748 L25.8885465,19.562249 L24.7781202,19.562249 L24.7781202,20.6156748 Z M24.7781202,18.5097968 L25.8885465,18.5097968 L25.8885465,17.4563709 L24.7781202,17.4563709 L24.7781202,18.5097968 Z M27,20.1201168 L27,15 L24.4997432,16.4039187 L24.4997432,15 L22.0005136,16.4039187 L22.0005136,15 L19.5002568,16.4048923 L19.4992296,15.0009736 L17,16.4048923 L17,21.6097116 C18.1771957,22.478155 19.6522856,23 21.259887,23 C23.6461222,23 25.7498716,21.858951 27,20.1201168 L27,20.1201168 Z" id="Fill-1021"></path>
                <path d="M18,12 L16.4994055,12 L16.0713436,12 L15,12 L15,19.7240981 C15.3662307,20.1955365 15.8014269,20.6201434 16.2853746,21 L16.2853746,15.7517345 C16.2853746,15.6195652 16.3650416,15.4967623 16.4946492,15.4291166 L18,14.6485893 L18,12 Z" id="Fill-1022"></path>
                <path d="M35.611042,24.6018847 C35.5423408,24.5869619 35.4716483,24.5720392 35.4039428,24.5581113 C34.9459352,24.4655901 34.4988799,24.3830175 34.0637726,24.3153677 L34.0348982,24.3113883 C33.1119132,24.1671349 32.2377159,24.0766035 31.4113108,24.0338249 C31.4113108,24.0338249 31.4113108,24.0328301 31.4123065,24.0328301 C31.0369393,24.0129331 30.6695375,24 30.3140837,24 C22.5528451,24 19.3109474,28.4897614 17.8781799,32.0234713 C17.5535919,32.8243261 17.321601,33.5764333 17.150346,34.2161223 L17.150346,34.218112 C17.0925972,34.4300152 17.0438094,34.6309751 17,34.8160173 C17.2120775,34.5086084 17.4370986,34.2210965 17.6680938,33.9435332 C17.6979639,33.9087134 17.7258426,33.8719039 17.7557126,33.8370842 C17.9767511,33.5764333 18.2067506,33.3307051 18.4397371,33.0959204 C18.4805596,33.0561263 18.5203863,33.0153374 18.5612087,32.9755434 C18.7961866,32.7457329 19.0361428,32.5278606 19.279086,32.3219265 C19.3169214,32.2910861 19.3537611,32.2602457 19.3915966,32.2294054 C19.6444964,32.0204867 19.9023747,31.8205217 20.1622442,31.6344846 C20.1771793,31.6235413 20.19311,31.6135927 20.208045,31.6026494 C20.4818539,31.4086535 20.7586499,31.2275907 21.0364415,31.0574712 C21.0414198,31.0544866 21.0454025,31.0515021 21.0503808,31.0485175 C21.3291681,30.8793929 21.6089511,30.7232013 21.8877383,30.5769583 C21.9096431,30.5650201 21.9325434,30.5530819 21.9534525,30.5411436 C22.2302484,30.39888 22.5040574,30.2665648 22.7758749,30.1441982 C22.7957883,30.1352445 22.8137104,30.1272857 22.8326281,30.1183321 C26.004829,28.7066389 28.8614029,28.619092 28.8614029,28.619092 C27.2832678,29.3065339 25.9092448,30.0606307 24.7094638,30.8435783 C24.4705033,30.9997698 24.2395081,31.1559614 24.0154827,31.3141427 C23.9935779,31.3290654 23.9716732,31.344983 23.9497685,31.3599058 C23.0457012,32.0005897 22.2571315,32.6552015 21.5780853,33.3078236 C21.5561806,33.3297103 21.5332802,33.3506021 21.5113755,33.3724889 C21.3520685,33.5276856 21.1977398,33.6818874 21.0503808,33.8360893 C21.0364415,33.8500172 21.0254891,33.8639451 21.0115498,33.877873 C20.5824165,34.3295353 20.208045,34.7772181 19.8814656,35.2159473 C19.8356649,35.277628 19.7888684,35.3393088 19.745059,35.3999947 C19.6644098,35.5124128 19.5877433,35.6228412 19.5140638,35.7332697 C19.4602977,35.8148474 19.4095186,35.8944355 19.3587395,35.9750184 C19.297008,36.0705241 19.2352765,36.1670246 19.1795191,36.2615354 C19.0819435,36.4256858 18.9913377,36.5888413 18.9086972,36.7480174 C18.8748444,36.810693 18.848957,36.8713789 18.819087,36.9330597 C18.7613382,37.0494572 18.7065764,37.1648599 18.6577886,37.277278 C18.6299099,37.3409485 18.6050182,37.4036241 18.5801264,37.4662997 C18.53333,37.5807075 18.4915119,37.6941205 18.4536765,37.8045489 C18.4347588,37.8552863 18.4158411,37.9080134 18.3999104,37.9587508 C18.3501269,38.1169321 18.3053218,38.2731236 18.2714691,38.4223512 C18.2724648,38.4223512 18.2724648,38.4223512 18.2734604,38.4223512 C18.7513815,38.5357642 19.2153632,38.6272905 19.6703838,38.7068786 C19.8167471,38.7317498 19.9561408,38.750652 20.1005128,38.7725387 C20.4081744,38.8202915 20.7128491,38.8610804 21.0115498,38.8939105 C21.1668741,38.9098281 21.3212028,38.923756 21.4745358,38.9366891 C21.7592971,38.9605655 22.0380843,38.9764831 22.3128889,38.9854368 C22.4512869,38.9914059 22.5916762,38.9983698 22.7290785,38.9993647 C22.9959178,39.0023492 23.253796,38.9943904 23.5116742,38.9844419 C23.6580375,38.9794677 23.8083835,38.9784728 23.9507642,38.9685243 C24.2464778,38.9496221 24.5312391,38.9177869 24.8130134,38.8819723 C24.9046149,38.8700341 25.0011948,38.864065 25.0918007,38.8511319 C25.4611938,38.79741 25.8186389,38.7297601 26.1661273,38.6501721 C26.2467765,38.6312699 26.3224474,38.6063986 26.4021009,38.5865016 C26.6649574,38.5198466 26.9238313,38.4512019 27.1737442,38.370619 C27.2912331,38.3338095 27.4017524,38.2900361 27.5162543,38.2492472 C27.7213621,38.177618 27.9244785,38.103999 28.1216209,38.0224212 C28.2411012,37.9726787 28.3565988,37.9179619 28.473092,37.8662297 C28.6552994,37.7836571 28.8345198,37.7000896 29.0087619,37.6095582 C29.1232638,37.550862 29.2357744,37.4891812 29.3472893,37.4265056 C29.5145617,37.3339845 29.678847,37.2384789 29.8391497,37.1389938 C29.9466819,37.0723388 30.0512272,37.0046889 30.1557724,36.9360442 C30.3120924,36.8315849 30.4654254,36.724141 30.6157714,36.6137126 C30.7123513,36.5420833 30.8089311,36.4724438 30.902524,36.3988248 C31.0538657,36.2814324 31.1992333,36.1590658 31.344601,36.0357043 C31.4272415,35.9640751 31.5118734,35.8944355 31.5935182,35.8218114 C31.7468512,35.6835271 31.8942102,35.5402686 32.0385822,35.3960153 C32.102305,35.3343345 32.1680191,35.2736486 32.2297506,35.2099782 C32.4139493,35.0189668 32.5911784,34.824971 32.7624334,34.6269957 C32.7793598,34.6070986 32.7982775,34.5881965 32.8152039,34.5682995 C33.0073679,34.344458 33.1885797,34.1166372 33.3638174,33.8868267 C33.3926918,33.8470327 33.4205705,33.8072386 33.4494449,33.7684395 C33.5898342,33.5804127 33.7252452,33.3903962 33.8546821,33.1993848 C33.9034699,33.1277556 33.948275,33.0551315 33.9950714,32.9835022 C34.0996167,32.8233313 34.2041619,32.6621654 34.3027331,32.5 C34.3515209,32.4174321 34.399313,32.3348595 34.4471051,32.2522869 C34.5367153,32.1000748 34.6243341,31.9468677 34.7079703,31.7936607 C34.7547668,31.7081036 34.7995719,31.6235413 34.8433813,31.5379841 C34.9230348,31.3867668 34.9997013,31.2355495 35.0733808,31.0863219 C35.1151989,31.0017595 35.1560213,30.9171972 35.1958481,30.8336298 C35.2675362,30.6814176 35.3362374,30.5311951 35.4029472,30.3809727 C35.4377956,30.3013846 35.4736397,30.2217966 35.5074924,30.1432033 C35.5742022,29.9870118 35.6369294,29.8328099 35.6986608,29.6796029 C35.7265396,29.6099633 35.7554139,29.5393289 35.782297,29.4706842 C35.8480112,29.3005648 35.9097426,29.1334298 35.9684871,28.9682846 C35.9864091,28.9205318 36.0053268,28.8707892 36.0222532,28.8230364 C36.1725992,28.3932609 36.3030318,27.9823875 36.4135511,27.6003648 C36.4235077,27.5645502 36.4324688,27.5317201 36.4424254,27.4959055 C36.4852392,27.3446882 36.5260616,27.1964554 36.5629014,27.0551866 C36.5778364,27.0014647 36.5887888,26.9507273 36.6027281,26.8980002 C36.6316025,26.7816027 36.6614726,26.6671948 36.6863643,26.5587561 C36.7003037,26.5020496 36.711256,26.4483277 36.7241997,26.3946057 C36.7471001,26.2981052 36.7680092,26.2035944 36.7869269,26.1150527 C36.7978792,26.0633204 36.8078359,26.0135779 36.8187883,25.9648302 C36.834719,25.8822576 36.8516453,25.8026695 36.8655847,25.7290506 C36.8745457,25.686272 36.8815154,25.6434934 36.8894808,25.6036994 C36.9024245,25.5340598 36.9143725,25.4693945 36.9243292,25.4087087 C36.9293075,25.3768734 36.9362772,25.3420537 36.9412555,25.313203 C36.9502166,25.2564965 36.9581819,25.2077488 36.9651516,25.1629805 C36.9681386,25.1420887 36.9721213,25.1172174 36.9751083,25.0983152 C36.982078,25.0535469 36.9870563,25.0167375 36.991039,24.9888816 C36.9920346,24.9829125 36.9930303,24.9719692 36.994026,24.9669949 C36.9980087,24.9391391 37,24.9212318 37,24.9212318 C36.5240703,24.8008548 36.0630756,24.6963955 35.611042,24.6018847" id="Fill-1023"></path>
                <path d="M14.2888612,21.4648773 C14.2754121,21.4428601 14.2619631,21.4208429 14.2474796,21.3988257 C14.1212656,21.1849444 13.9867753,20.9721116 13.8419396,20.7613756 C13.8315942,20.745649 13.8191797,20.728874 13.8077998,20.7131474 C13.6557223,20.4929755 13.4932994,20.273852 13.3194966,20.0578738 C13.316393,20.0526316 13.3122548,20.0473894 13.3081167,20.0421472 C13.1270721,19.8167331 12.9346475,19.5934158 12.730843,19.3742923 C11.4004238,17.9421262 9.55480328,16.6431118 7.01293696,15.6460474 C6.80602884,15.5642692 6.59187893,15.4856364 6.3746254,15.408052 C6.29186215,15.3786957 6.20599527,15.3493395 6.12116294,15.3210317 C5.80148989,15.2109457 5.47043689,15.1061019 5.12903848,15.0044034 C4.96868469,14.9572237 4.81039997,14.910044 4.64590801,14.8649612 C4.47417427,14.8177815 4.2993369,14.7716502 4.12243045,14.7276159 C3.87207162,14.6647096 3.61757463,14.6039002 3.35687039,14.5451877 C3.22548373,14.5158314 3.09409707,14.4854267 2.95960679,14.4571189 C2.60786298,14.3837282 2.24577376,14.3155798 1.87644276,14.2505766 C1.75953967,14.2306563 1.6405675,14.210736 1.52262986,14.1918641 C1.09743367,14.1226672 0.664995686,14.0566156 0.214970514,14 C0.214970514,14 0.115654614,14.5892221 0.0515130953,15.568463 C0.0308222828,15.8955756 0.0132350921,16.2656741 0.00495876715,16.6714196 C-0.0229738297,18.0920528 0.0587548796,19.9519815 0.465329345,21.9345775 C0.581197895,22.5007339 0.724999042,23.0773747 0.898801867,23.6571608 C1.07363923,24.2358985 1.27847828,24.8177815 1.52056078,25.3944223 C1.76367783,25.9710631 2.04196926,26.5435102 2.36371139,27.103376 C2.52303065,27.3833089 2.69372985,27.6600965 2.875809,27.9326903 C3.60309106,29.0241141 4.50521049,30.0515831 5.62458344,30.9574334 C5.90494395,31.183896 6.19875349,31.4019711 6.50601205,31.6116586 C7.12052919,32.0320822 7.79298059,32.4168589 8.52543535,32.7607465 C9.62515204,33.2765779 10.8634972,33.6970015 12.2580579,34 C12.2580579,34 12.2590925,33.9811281 12.2611616,33.9633047 C12.2611616,33.9580625 12.2621961,33.949675 12.2621961,33.9423359 C12.2673688,33.8783812 12.2756451,33.7599077 12.2818524,33.5900608 C12.2818524,33.5858671 12.2828869,33.5816733 12.2828869,33.5774796 C12.3263376,32.4105683 12.3015086,28.9874187 10.8138392,25.4520864 C10.1238006,23.8123296 9.12029621,22.1484588 7.66055939,20.6743552 C7.66055939,20.6743552 13.6940003,23.7871671 15.8292922,30.6418536 C16.0889619,28.755714 16.271041,25.3933739 14.6623303,22.1547494 C14.5474963,21.9240931 14.4223169,21.6934368 14.2888612,21.4648773" id="Fill-1024"></path>
                <path d="M12.756092,13.2712788 C14.1520255,8.81061988 18.9960167,6.17214511 23.5516509,7.53928219 C28.1052472,8.90641927 30.6525712,13.6065767 29.2118047,18.2109347 C28.7522675,19.6808565 27.9177642,20.9302402 26.849926,21.9051985 C28.0858875,21.6467398 29.4033635,21.5140177 30.799297,21.5140177 C32.3450132,21.5140177 34.0079063,21.6836624 35.7563894,22 L36.905742,18.3286881 C37.1197172,17.9814153 36.949556,17.517387 36.5949685,17.3078259 L34.4918978,15.9556575 C34.4684624,15.0206155 34.4450271,14.0865715 34.229014,13.0946487 L36.0325193,11.3682639 C36.3422739,11.0489326 36.3646904,10.6437811 36.1945291,10.1797528 L34.1923325,6.48748476 C33.9926223,6.11825796 33.5402176,5.8797574 33.0969832,5.95260485 L30.6270979,6.44756835 C29.9087526,5.71709803 29.2281076,5.20317424 28.3548849,4.63137165 L28.3885096,2.16852909 C28.4099071,1.7623796 28.1133986,1.3642134 27.7292622,1.24945372 L23.6892064,0.0359948276 C23.3050699,-0.0787648541 22.8312677,0.0878861619 22.6172925,0.436156848 L21.235624,2.49484575 C20.2819059,2.51779768 19.3271688,2.54074962 18.3143528,2.75130869 L16.5526236,0.98600541 C16.2255472,0.681642776 15.7150635,0.631747262 15.3380595,0.828335587 L11.5680201,2.78823137 C11.1910161,2.98382178 10.947492,3.42589603 11.0218738,3.86098492 L11.5282818,6.27991942 C10.8109554,6.88864469 10.2566577,7.65005023 9.67382999,8.50625725 L7.15911178,8.4723283 C6.74440744,8.45037427 6.33785454,8.74076616 6.21965871,9.11797625 L5,13.0178096 C7.93961184,13.7263259 10.4105161,14.7910962 12.394372,16.2031392 C12.3393498,15.2401558 12.4493942,14.2502288 12.756092,13.2712788" id="Fill-1025"></path>
            </g>
        </g>
    </g>
</svg>