<?xml version="1.0" encoding="UTF-8"?>
<svg width="55px" height="35px" viewBox="0 0 55 35" version="1.1" xmlns="http://www.w3.org/2000/svg" xmlns:xlink="http://www.w3.org/1999/xlink">
    <title>elo copy 2</title>
    <g id="Page-1" stroke="none" stroke-width="1" fill="none" fill-rule="evenodd">
        <g id="elo-copy-2" transform="translate(-0.000000, 0.000000)" fill-rule="nonzero">
            <path d="M2.9176,0 L51.7874,0 C53.39929,0 54.705,1.32881 54.705,2.9694 L54.705,31.9956 C54.705,33.63619 53.39936,34.965 51.7874,34.965 L2.9176,34.965 C1.30564,34.965 0,33.63619 0,31.9956 L0,2.9694 C0,1.32881 1.30564,0 2.9176,0 Z" id="Path" fill="#FFFFFF"></path>
            <path d="M11.7075,12.698 C12.1835,12.537 12.6945,12.453 13.2265,12.453 C15.5505,12.453 17.4895,14.10507 17.9305,16.296 L21.2205,15.624 C20.4645,11.9 17.1745,9.09293 13.2265,9.09293 C12.3235,9.09293 11.4555,9.24 10.6435,9.51293 L11.7075,12.698 Z" id="Path" fill="#000000"></path>
            <path d="M7.8225,23.366 L10.0485,20.846 C9.0545,19.964 8.4315,18.683 8.4315,17.248 C8.4315,15.82007 9.0545,14.532 10.0485,13.657 L7.8225,11.14407 C6.1355,12.642 5.0715,14.81907 5.0715,17.25507 C5.0715,19.684 6.1355,21.86793 7.8225,23.366 L7.8225,23.366 Z" id="Path" fill="#000000"></path>
            <path d="M17.9305,18.214 C17.4825,20.405 15.5505,22.05 13.2265,22.05 C12.6945,22.05 12.1835,21.966 11.7005,21.805 L10.6365,24.99 C11.4485,25.26293 12.3235,25.41 13.2265,25.41 C17.1745,25.41 20.4645,22.61 21.2205,18.886 L17.9305,18.214 Z" id="Path" fill="#000000"></path>
            <path d="M32.1825,20.468 C31.6365,21.00007 30.9015,21.322 30.0895,21.308 C29.5295,21.301 29.01157,21.133 28.5775,20.853 L27.48543,22.58907 C28.23443,23.058 29.10943,23.338 30.0615,23.352 C31.44043,23.373 32.70043,22.827 33.6175,21.938 L32.1825,20.468 Z M30.2085,13.391 C27.4645,13.349 25.1965,15.547 25.1545,18.291 C25.1405,19.32 25.4345,20.286 25.9595,21.084 L34.9755,17.22693 C34.4715,15.064 32.5395,13.43293 30.2085,13.391 M27.2195,18.68293 C27.2055,18.57093 27.1985,18.45193 27.1985,18.33293 C27.2265,16.71593 28.5565,15.42093 30.1735,15.449 C31.0555,15.46293 31.8395,15.86193 32.3645,16.49193 L27.2195,18.68293 Z M37.8105,11.15093 L37.8105,20.76193 L39.47657,21.45493 L38.6855,23.35193 L37.0335,22.66593 C36.6625,22.50493 36.4105,22.25993 36.2215,21.97993 C36.03943,21.69993 35.89943,21.30786 35.89943,20.78993 L35.89943,11.15093 L37.8105,11.15093 Z M43.82357,15.59593 C44.11757,15.49793 44.42557,15.44893 44.75457,15.44893 C46.17557,15.44893 47.35164,16.45686 47.62457,17.79393 L49.63357,17.38093 C49.17157,15.10593 47.16257,13.39793 44.75457,13.39793 C44.20164,13.39793 43.66957,13.489 43.17957,13.65 L43.82357,15.59593 Z M41.4505,22.09893 L42.8085,20.56593 C42.1995,20.02693 41.8215,19.24293 41.8215,18.36793 C41.8215,17.49293 42.2065,16.709 42.8085,16.17693 L41.4505,14.644 C40.42157,15.554 39.7705,16.891 39.7705,18.375 C39.7705,19.859 40.42157,21.18893 41.4505,22.09893 L41.4505,22.09893 Z M47.62457,18.96286 C47.35164,20.29993 46.16857,21.30786 44.75457,21.30786 C44.43257,21.30786 44.11757,21.25186 43.82357,21.15393 L43.17257,23.09993 C43.66957,23.26786 44.20157,23.35893 44.75457,23.35893 C47.16257,23.35893 49.17164,21.65093 49.63357,19.37593 L47.62457,18.96286 L47.62457,18.96286 Z" id="Shape" fill="#000000"></path>
        </g>
    </g>
</svg>