<?xml version="1.0" encoding="UTF-8"?>
<svg width="55px" height="35px" viewBox="0 0 55 35" version="1.1" xmlns="http://www.w3.org/2000/svg" xmlns:xlink="http://www.w3.org/1999/xlink">
    <title>mastercard copy 2</title>
    <g id="Page-1" stroke="none" stroke-width="1" fill="none" fill-rule="evenodd">
        <g id="mastercard-copy-2" fill-rule="nonzero">
            <path d="M2.8,0 L51.8,0 C53.34644,0 54.6,1.25363 54.6,2.8 L54.6,32.2 C54.6,33.74644 53.34644,35 51.8,35 L2.8,35 C1.25363,35 0,33.74644 0,32.2 L0,2.8 C0,1.25363 1.25363,0 2.8,0 Z" id="Path" fill="#FFFFFF"></path>
            <path d="M31.4307,17.5 C31.4307,24.44001 25.8048,30.065 18.865,30.065 C11.9252,30.065 6.3,24.43973 6.3,17.5 C6.3,10.56069 11.92534,4.935 18.865,4.935 C25.80459,4.935 31.4307,10.5609 31.4307,17.5" id="Path" fill="#4E4E4E"></path>
            <path d="M35.7343,4.93472 C32.4877,4.93472 29.52929,6.16644 27.2993,8.18734 C26.845,8.59957 26.42094,9.04393 26.03055,9.51706 L28.56917,9.51706 C28.91679,9.93965 29.23669,10.38422 29.52712,10.84797 L25.07267,10.84797 C24.80478,11.27644 24.56307,11.7208 24.3488,12.17853 L30.25064,12.17853 C30.45315,12.61148 30.63081,13.05563 30.78264,13.50881 L23.8168,13.50881 C23.67043,13.94526 23.54856,14.38948 23.45161,14.83944 L31.14741,14.83944 C31.33564,15.71374 31.43049,16.60561 31.43028,17.5 C31.43028,18.89538 31.2025,20.23791 30.7825,21.4914 L23.81666,21.4914 C23.96814,21.94493 24.14566,22.38915 24.34831,22.8221 L30.2505,22.8221 C30.03602,23.2799 29.7941,23.72433 29.52621,24.15301 L25.07246,24.15301 C25.36324,24.61704 25.68356,25.06154 26.03041,25.48273 L28.56847,25.48273 C28.17857,25.95677 27.75437,26.40155 27.29937,26.81357 C29.52957,28.83426 32.48763,30.06535 35.73437,30.06535 C42.67403,30.06535 48.30007,24.44001 48.30007,17.50035 C48.30007,10.56125 42.67417,4.93535 35.73437,4.93535" id="Path" fill="#2C2C2C"></path>
            <path d="M46.6256,24.5042 C46.6256,24.28013 46.80704,24.09813 47.03132,24.09813 C47.2556,24.09813 47.43704,24.28013 47.43704,24.5042 C47.43704,24.72813 47.2556,24.91013 47.03132,24.91013 C46.80718,24.91006 46.62553,24.72827 46.6256,24.5042 Z M47.03132,24.81276 C47.20177,24.81269 47.33981,24.67451 47.33988,24.5042 C47.33988,24.33389 47.20184,24.1959196 47.0316,24.1959196 L47.03132,24.1959196 C46.86129,24.19564 46.72332,24.33333 46.7230398,24.50336 L46.7230398,24.50427 C46.72283,24.67451 46.86073,24.81269 47.03097,24.81283 C47.03104,24.81276 47.03118,24.81276 47.03132,24.81276 Z M46.97651,24.68256 L46.89335,24.68256 L46.89335,24.32598 L47.04378,24.32598 C47.07528,24.32598 47.10734,24.32598 47.13513,24.34376 C47.16404,24.36322 47.18035,24.39766 47.18035,24.43322 C47.18035,24.47312 47.15676,24.5105 47.11854,24.52506 L47.18413,24.68256 L47.09208,24.68256 L47.03748,24.54144 L46.97658,24.54144 L46.97658,24.68256 L46.97651,24.68256 L46.97651,24.68256 Z M46.97651,24.488887 L47.02257,24.488887 C47.03979,24.488887 47.05785,24.4904193 47.07332,24.4812254 C47.08704,24.4716484 47.09404,24.4537203 47.09404,24.4364817 C47.09404,24.4215415 47.08564,24.4043029 47.07388,24.3969478 C47.05939,24.3869111 47.03636,24.3892096 47.02082,24.3892096 L46.97651,24.3892096 L46.97651,24.488887 L46.97651,24.488887 Z M15.93151,18.87585 C15.78836,18.85926 15.72536,18.85478 15.62701,18.85478 C14.85386,18.85478 14.46242,19.12001 14.46242,19.64354 C14.46242,19.96631 14.65352,20.17176 14.95151,20.17176 C15.50717,20.17176 15.90764,19.64256 15.93151,18.87585 L15.93151,18.87585 Z M16.92348,21.18557 L15.79326,21.18557 L15.81923,20.64825 C15.47448,21.07294 15.01451,21.27475 14.38948,21.27475 C13.65014,21.27475 13.1432,20.69725 13.1432,19.85872 C13.1432,18.59704 14.02492,17.86092 15.53839,17.86092 C15.69295,17.86092 15.89126,17.87492 16.09426,17.90075 C16.13661,17.72988 16.14767,17.65673 16.14767,17.56475 C16.14767,17.22119 15.90995,17.09309 15.27267,17.09309 C14.60536,17.08553 14.05495,17.25206 13.82892,17.32647 C13.8432,17.24037 14.01792,16.16041 14.01792,16.16041 C14.69776,15.96119 15.14611,15.88622 15.65067,15.88622 C16.82198,15.88622 17.44239,16.41206 17.44127,17.40606 C17.44351,17.67241 17.39948,18.00106 17.33067,18.43303 C17.21223,19.1842 16.95827,20.79329 16.92348,21.18557 L16.92348,21.18557 Z M12.57242,21.18557 L11.20826,21.18557 L11.98967,16.28578 L10.24492,21.18557 L9.31532,21.18557 L9.20052,16.31378 L8.37914,21.18557 L7.1022,21.18557 L8.16886,14.81179 L10.13026,14.81179 L10.24926,18.37941 L11.4457,14.81179 L13.62739,14.81179 L12.57242,21.18557 M37.42102,18.87585 C37.27843,18.85926 37.21508,18.85478 37.11708,18.85478 C36.34421,18.85478 35.9527,19.12001 35.9527,19.64354 C35.9527,19.96631 36.14352,20.17176 36.44151,20.17176 C36.99724,20.17176 37.39799,19.64256 37.42102,18.87585 Z M38.41383,21.18557 L37.28368,21.18557 L37.30923,20.64825 C36.96448,21.07294 36.50423,21.27475 35.87983,21.27475 C35.14021,21.27475 34.63383,20.69725 34.63383,19.85872 C34.63383,18.59704 35.51492,17.86092 37.02867,17.86092 C37.18323,17.86092 37.38126,17.87492 37.58405,17.90075 C37.62633,17.72988 37.63746,17.65673 37.63746,17.56475 C37.63746,17.22119 37.40002,17.09309 36.76274,17.09309 C36.09543,17.08553 35.54558,17.25206 35.31864,17.32647 C35.33299,17.24037 35.50827,16.16041 35.50827,16.16041 C36.18818,15.96119 36.63618,15.88622 37.14011,15.88622 C38.31198,15.88622 38.93239,16.41206 38.93127,17.40606 C38.93351,17.67241 38.88948,18.00106 38.82067,18.43303 C38.70293,19.1842 38.44827,20.79329 38.41383,21.18557 Z M22.98653,21.10682 C22.61315,21.22442 22.32209,21.27475 22.00653,21.27475 C21.30912,21.27475 20.92853,20.874 20.92853,20.13606 C20.91859,19.90716 21.02884,19.30453 21.11543,18.75447 C21.19418,18.27028 21.70693,15.21737 21.70693,15.21737 L23.0629,15.21737 L22.90456,16.002 L23.72356,16.002 L23.53855,17.24772 L22.71661,17.24772 C22.55911,18.23353 22.33483,19.46147 22.33224,19.62422 C22.33224,19.89141 22.47483,20.00803 22.79914,20.00803 C22.95461,20.00803 23.07501,19.99221 23.16699,19.95903 L22.98653,21.10682 M27.1439,21.06482 C26.67812,21.20713 26.22865,21.27601 25.75237,21.2748352 C24.23456,21.27335 23.44328,20.4806 23.44328,18.96258 C23.44328,17.19067 24.44988,15.88629 25.81628,15.88629 C26.93418,15.88629 27.64818,16.6166 27.64818,17.76201 C27.64818,18.14204 27.59918,18.51304 27.48109,19.03685 L24.78084,19.03685 C24.68956,19.78879 25.17074,20.10204 25.95943,20.10204 C26.44488,20.10204 26.88259,20.00194 27.36937,19.77563 L27.1439,21.06482 L27.1439,21.06482 Z M26.38181,17.99182 C26.3893,17.88381 26.52559,17.06663 25.7509,17.06663 C25.31893,17.06663 25.01009,17.39591 24.8843,17.99182 L26.38181,17.99182 L26.38181,17.99182 Z M17.74241,17.64063 C17.74241,18.29632 18.06028,18.74838 18.78128,19.08795 C19.33372,19.34758 19.41919,19.42458 19.41919,19.65985 C19.41919,19.98304 19.17559,20.12885 18.63575,20.12885 C18.22891,20.12885 17.85035,20.06536 17.41369,19.92445 C17.41369,19.92445 17.23428,21.06685 17.22609,21.12152 C17.53619,21.18914 17.81269,21.25179 18.64569,21.27482 C20.08503,21.27482 20.74975,20.72679 20.74975,19.54232 C20.74975,18.83007 20.4715,18.4121 19.78816,18.09801 C19.21619,17.83551 19.15053,17.77685 19.15053,17.53479 C19.15053,17.25451 19.37719,17.11157 19.81819,17.11157 C20.08594,17.11157 20.45169,17.14013 20.79819,17.18948 L20.99244,15.98723 C20.63922,15.93123 20.10372,15.88629 19.79194,15.88629 C18.26594,15.88629 17.73772,16.68338 17.74241,17.64063 M33.77871,16.02251 C34.15762,16.02251 34.51084,16.12191 34.99762,16.36691 L35.22071,14.98357 C35.02093,14.90517 34.31743,14.44457 33.72159,14.44457 C32.80865,14.44457 32.03697,14.89747 31.49419,15.64507 C30.70249,15.38285 30.37706,15.91282 29.97806,16.44076 L29.62372,16.52329 C29.65053,16.34948 29.67482,16.17679 29.66663,16.00207 L28.41391,16.00207 C28.24276,17.60626 27.93938,19.23117 27.70194,20.83732 L27.64006,21.18564 L29.00478,21.18564 C29.23256,19.70563 29.35744,18.75797 29.43325,18.1167 L29.94719,17.83082 C30.02391,17.54522 30.26422,17.44876 30.74631,17.46038 C30.68149,17.81094 30.64908,18.16668 30.6495,18.52326 C30.6495,20.21901 31.56447,21.27482 33.033,21.27482 C33.41128,21.27482 33.73594,21.22498 34.23847,21.08883 L34.47864,19.63563 C34.02644,19.85823 33.65537,19.96295 33.31937,19.96295 C32.52641,19.96295 32.04656,19.37761 32.04656,18.41007 C32.04649,17.00657 32.76021,16.02251 33.77871,16.02251" id="Shape" fill="#000000"></path>
            <polyline id="Path" fill="#FFFFFF" points="12.9647 20.8068 11.60033 20.8068 12.38223 15.90764 10.63748 20.8068 9.70774 20.8068 9.5928 15.93564 8.77149 20.8068 7.49448 20.8068 8.56114 14.43386 10.52254 14.43386 10.5777 18.3792 11.90098 14.43386 14.01967 14.43386 12.9647 20.8068"></polyline>
            <path d="M45.3264,14.812 L45.02407,16.65356 C44.65097,16.16272 44.25029,15.80747 43.72123,15.80747 C43.03285,15.80747 42.40635,16.32925 41.99629,17.09722 C41.42523,16.97878 40.8345,16.77781 40.8345,16.77781 L40.83422,16.7825 C40.88028,16.35319 40.89862,16.09125 40.89456,16.00228 L39.64156,16.00228 C39.47097,17.60647 39.16766,19.23138 38.93057,20.83753 L38.86806,21.18585 L40.2325,21.18585 C40.41681,19.98906 40.558,18.99534 40.66181,18.20728 C41.12794,17.78609 41.36125,17.41859 41.83228,17.44309 C41.62375,17.94751 41.50153,18.52837 41.50153,19.12428 C41.50153,20.42019 42.15722,21.27503 43.14891,21.27503 C43.64878,21.27503 44.03231,21.10269 44.40653,20.70313 L44.34269,21.18501 L45.633,21.18501 L46.67194,14.812 L45.3264,14.812 L45.3264,14.812 Z M43.6205,19.98794 C43.15612,19.98794 42.92169,19.64431 42.92169,18.96615 C42.92169,17.94744 43.36066,17.2249 43.97953,17.2249 C44.44818,17.2249 44.70193,17.58218 44.70193,18.24046 C44.702,19.26813 44.2561,19.98794 43.6205,19.98794 L43.6205,19.98794 Z" id="Shape" fill="#000000"></path>
            <path d="M16.3233,18.4982 C16.18036,18.48168 16.11708,18.4772 16.01908,18.4772 C15.24586,18.4772 14.8547,18.74236 14.8547,19.26589 C14.8547,19.58817 15.0458,19.79418 15.3433,19.79418 C15.89945,19.79411 16.29992,19.26505 16.3233,18.4982 L16.3233,18.4982 Z M17.31583,20.80708 L16.18561,20.80708 L16.2113,20.27067 C15.86683,20.69445 15.4063,20.89717 14.78183,20.89717 C14.04214,20.89717 13.53555,20.31967 13.53555,19.48114 C13.53555,18.2189 14.41692,17.4832 15.93067,17.4832 C16.0853,17.4832 16.28361,17.4972 16.48633,17.52317 C16.52861,17.35223 16.53967,17.27908 16.53967,17.18661 C16.53967,16.84305 16.3023,16.71551 15.66495,16.71551 C14.99736,16.70795 14.4473,16.87455 14.22092,16.94805 C14.2352,16.86223 14.40992,15.78339 14.40992,15.78339 C15.08955,15.58333 15.53839,15.50829 16.04239,15.50829 C17.21405,15.50829 17.83467,16.03455 17.83355,17.02764 C17.83558,17.29504 17.7912,17.62348 17.72267,18.05489 C17.60458,18.80564 17.35027,20.41564 17.31583,20.80708 L17.31583,20.80708 Z M35.61243,14.60564 L35.38899,15.98933 C34.90249,15.74461 34.54899,15.64486 34.1705,15.64486 C33.15193,15.64486 32.438,16.62892 32.438,18.03235 C32.438,18.99982 32.91799,19.58502 33.71081,19.58502 C34.04681,19.58502 34.41753,19.48058 34.86959,19.25763 L34.63019,20.71013 C34.12731,20.84726 33.80307,20.89717 33.42437,20.89717 C31.95605,20.89717 31.04087,19.84129 31.04087,18.14554 C31.04087,15.86704 32.305,14.27454 34.11303,14.27454 C34.70852,14.27461 35.41237,14.52717 35.61243,14.60564 M37.81337,18.4982 C37.6705,18.48168 37.6075,18.4772 37.50915,18.4772 C36.73621,18.4772 36.34477,18.74236 36.34477,19.26589 C36.34477,19.58817 36.5358,19.79418 36.83365,19.79418 C37.38924,19.79411 37.78999,19.26505 37.81337,18.4982 Z M38.8059,20.80708 L37.6754,20.80708 L37.7013,20.27067 C37.35662,20.69445 36.8963,20.89717 36.2719,20.89717 C35.53249,20.89717 35.02562,20.31967 35.02562,19.48114 C35.02562,18.2189 35.90727,17.4832 37.42046,17.4832 C37.57537,17.4832 37.7734,17.4972 37.97633,17.52317 C38.0184,17.35223 38.02974,17.27908 38.02974,17.18661 C38.02974,16.84305 37.7923,16.71551 37.15502,16.71551 C36.48771,16.70795 35.9373,16.87455 35.71099,16.94805 C35.72527,16.86223 35.90027,15.78339 35.90027,15.78339 C36.5799,15.58333 37.02839,15.50829 37.53239,15.50829 C38.70433,15.50829 39.32467,16.03455 39.3232,17.02764 C39.32558,17.29504 39.28155,17.62348 39.21267,18.05489 C39.09493,18.80564 38.83999,20.41564 38.8059,20.80708 L38.8059,20.80708 Z M23.3786,20.72854 C23.00494,20.84614 22.71388,20.89717 22.3986,20.89717 C21.70119,20.89717 21.3206,20.49635 21.3206,19.75855 C21.31094,19.52888 21.42119,18.92688 21.50785,18.37689 C21.58625,17.89207 22.09907,14.83958 22.09907,14.83958 L23.45476,14.83958 L23.29663,15.62442 L23.99257,15.62442 L23.80735,16.86958 L23.1091,16.86958 C22.9516,17.85595 22.72669,19.08291 22.72438,19.24601 C22.72438,19.51411 22.86732,19.62982 23.19135,19.62982 C23.34675,19.62982 23.46701,19.61463 23.55913,19.58138 L23.3786,20.72854 M27.53604,20.68717 C27.07054,20.82948 26.62044,20.89808 26.14444,20.8971789 C24.62656,20.8957 23.83535,20.10295 23.83535,18.58486 C23.83535,16.81239 24.84195,15.50836 26.20835,15.50836 C27.32625,15.50836 28.04025,16.23839 28.04025,17.38436 C28.04025,17.76467 27.99125,18.13567 27.87351,18.6592 L25.17326,18.6592 C25.08184,19.41107 25.56309,19.72467 26.35185,19.72467 C26.83695,19.72467 27.27501,19.62429 27.76144,19.39735 L27.53604,20.68717 L27.53604,20.68717 Z M26.7736,17.61333 C26.78179,17.50567 26.91773,16.68814 26.14269,16.68814 C25.71107,16.68814 25.40216,17.01833 25.27644,17.61333 L26.7736,17.61333 Z M18.1342,17.26305 C18.1342,17.9186 18.45214,18.37017 19.17314,18.7103 C19.72551,18.96986 19.81098,19.04714 19.81098,19.2822 C19.81098,19.60539 19.56717,19.7512 19.02789,19.7512 C18.6207,19.7512 18.24214,19.68764 17.8052,19.5468 C17.8052,19.5468 17.62642,20.6892 17.6183,20.7438 C17.9277,20.81149 18.20448,20.8733 19.03748,20.89717 C20.47717,20.89717 21.14161,20.34914 21.14161,19.16495 C21.14161,18.45235 20.86364,18.03445 20.17995,17.72036 C19.60826,17.4573 19.54211,17.39955 19.54211,17.15714 C19.54211,16.87714 19.76926,16.73308 20.20998,16.73308 C20.47745,16.73308 20.8432,16.76248 21.19026,16.81183 L21.38423,15.60923 C21.03136,15.55323 20.49586,15.50836 20.18401,15.50836 C18.65773,15.50836 18.12986,16.30489 18.1342,17.26305 M46.0257,20.80708 L44.73511,20.80708 L44.7993,20.32457 C44.42501,20.72476 44.04155,20.89717 43.54161,20.89717 C42.54985,20.89717 41.89451,20.04226 41.89451,18.74642 C41.89451,17.02232 42.91098,15.56891 44.11414,15.56891 C44.6432,15.56891 45.04374,15.78507 45.41642,16.27563 L45.71917,14.43407 L47.06464,14.43407 L46.0257,20.80708 L46.0257,20.80708 Z M44.01355,19.60945 C44.6488,19.60945 45.09505,18.88964 45.09505,17.86274 C45.09505,17.20439 44.84095,16.84711 44.3723,16.84711 C43.75364,16.84711 43.31418,17.5693 43.31418,18.58836 C43.31411,19.26638 43.54917,19.60945 44.01355,19.60945 Z M40.03454,15.62442 C39.86381,17.22861 39.56043,18.85352 39.3232,20.45883 L39.26083,20.80708 L40.6252,20.80708 C41.11317,17.63783 41.23126,17.01889 41.99636,17.09645 C42.1183,16.44783 42.3451,15.87964 42.51429,15.59292 C41.94288,15.47392 41.62382,15.79683 41.20613,16.41017 C41.2391,16.14508 41.29951,15.88755 41.28754,15.62442 L40.03454,15.62442 M28.80514,15.62442 C28.63392,17.22861 28.33054,18.85352 28.09345,20.45883 L28.03136,20.80708 L29.39636,20.80708 C29.8837,17.63783 30.00158,17.01889 30.76619,17.09645 C30.88869,16.44783 31.11563,15.87964 31.28419,15.59292 C30.71341,15.47392 30.39407,15.79683 29.97673,16.41017 C30.00963,16.14508 30.06948,15.88755 30.05807,15.62442 L28.80514,15.62442 M46.62504,20.40136 C46.62504,20.17638 46.80676,19.9953598 47.03076,19.9953598 C47.25455,19.99515 47.4362,20.17645 47.43641,20.40031 L47.43641,20.40136 C47.43634,20.62536 47.25476,20.80694 47.03076,20.80708 C46.80676,20.80694 46.62518,20.62536 46.62504,20.40136 Z M47.03076,20.70964 C47.201,20.70971 47.3389702,20.57174 47.3389702,20.40157 L47.3389702,20.40143 C47.33918,20.23112 47.20121,20.09301 47.03104,20.09287 L47.03076,20.09287 C46.86031,20.09294 46.7222,20.23105 46.72213,20.40143 C46.72234,20.57167 46.86045,20.70964 47.03076,20.70964 Z M46.97588,20.57874 L46.89272,20.57874 L46.89272,20.22286 L47.0435,20.22286 C47.07472,20.22286 47.10706,20.22342 47.13422,20.24064 C47.16334,20.26045 47.18,20.29433 47.18,20.32982 C47.18,20.37007 47.15634,20.40773 47.11784,20.42201 L47.18371,20.57853 L47.09138,20.57853 L47.03678,20.43797 L46.97588,20.43797 L46.97588,20.57853 L46.97588,20.57874 L46.97588,20.57874 Z M46.97588,20.3860643 L47.02166,20.3860643 C47.03881,20.3860643 47.05757,20.3874479 47.07269,20.3783778 C47.08634,20.3687697 47.09334,20.3506296 47.09334,20.3332582 C47.09271,20.3171165 47.08529,20.3022048 47.07325,20.292981 C47.05897,20.2839878 47.03531,20.2864475 47.01984,20.2864475 L46.97581,20.2864475 L46.97581,20.3860643 L46.97588,20.3860643 L46.97588,20.3860643 Z" id="Shape" fill="#FFFFFF"></path>
        </g>
    </g>
</svg>