<?xml version="1.0" encoding="UTF-8"?>
<svg width="33px" height="31px" viewBox="0 0 33 31" version="1.1" xmlns="http://www.w3.org/2000/svg" xmlns:xlink="http://www.w3.org/1999/xlink">
    <title>Banricompras Copy 2</title>
    <g id="Page-1" stroke="none" stroke-width="1" fill="none" fill-rule="evenodd">
        <g id="Banricompras-Copy-2">
            <path d="M5.11943299,25.3043299 L3.44628866,25.3043299 L3.44628866,24.1121649 C3.44628866,23.7657732 3.42716495,23.5489175 3.39180412,23.4626804 C3.3564433,23.3775258 3.27778351,23.3342268 3.15582474,23.3342268 C3.01726804,23.3342268 2.9306701,23.3861856 2.89242268,23.4901031 C2.85597938,23.5954639 2.83685567,23.8202577 2.83685567,24.1670103 L2.83685567,27.3465979 C2.83685567,27.68 2.85597938,27.8964948 2.89242268,27.9975258 C2.9306701,28.1 3.01329897,28.1505155 3.1435567,28.1505155 C3.26840206,28.1505155 3.34994845,28.1 3.38783505,27.9975258 C3.42572165,27.8964948 3.44628866,27.6583505 3.44628866,27.2830928 L3.44628866,26.4257732 L5.11943299,26.4257732 L5.11943299,26.6913402 C5.11943299,27.3985567 5.07180412,27.9008247 4.97798969,28.196701 C4.88453608,28.4925773 4.67561856,28.7523711 4.35412371,28.9746392 C4.03226804,29.1969072 3.63463918,29.3094845 3.16376289,29.3094845 C2.67268041,29.3094845 2.26819588,29.2142268 1.9506701,29.0251546 C1.63314433,28.8360825 1.42170103,28.5748454 1.31850515,28.2414433 C1.21530928,27.9065979 1.16371134,27.4043299 1.16371134,26.7331959 L1.16371134,24.7342268 C1.16371134,24.2406186 1.17994845,23.871134 1.21134021,23.6243299 C1.24381443,23.3775258 1.33762887,23.1393814 1.49639175,22.9113402 C1.65371134,22.683299 1.87201031,22.5028866 2.15164948,22.3715464 C2.43092784,22.2416495 2.75278351,22.1752577 3.11505155,22.1752577 C3.60902062,22.1752577 4.01603093,22.277732 4.3364433,22.4797938 C4.65649485,22.683299 4.86685567,22.9358763 4.96860825,23.2389691 C5.06891753,23.5420619 5.11943299,24.0140206 5.11943299,24.6530412 L5.11943299,25.3043299 Z M9.54278351,26.327268 C9.54278351,27.0160825 9.52798969,27.5024742 9.49804124,27.7882474 C9.46664948,28.0754639 9.37175258,28.336701 9.21154639,28.5734021 C9.05170103,28.8101031 8.83448454,28.9919588 8.56170103,29.1189691 C8.28891753,29.2459794 7.97030928,29.3094845 7.60768041,29.3094845 C7.26309278,29.3094845 6.95386598,29.248866 6.67963918,29.1290722 C6.4043299,29.0092784 6.18458763,28.8303093 6.01752577,28.5907216 C5.85082474,28.351134 5.75159794,28.0898969 5.71876289,27.8084536 C5.68773196,27.525567 5.67149485,27.0319588 5.67149485,26.327268 L5.67149485,25.1571134 C5.67149485,24.4686598 5.68664948,23.982268 5.71768041,23.6950515 C5.74762887,23.4092784 5.84252577,23.1480412 6.00381443,22.9113402 C6.16402062,22.6746392 6.37979381,22.4927835 6.65402062,22.3657732 C6.92680412,22.2387629 7.24396907,22.1752577 7.60768041,22.1752577 C7.95262887,22.1752577 8.26185567,22.2355155 8.53608247,22.3556701 C8.81030928,22.4754639 9.03113402,22.654433 9.19819588,22.8940206 C9.36525773,23.1332474 9.46412371,23.3948454 9.49551546,23.6762887 C9.52798969,23.9591753 9.54278351,24.4513402 9.54278351,25.1571134 L9.54278351,26.327268 Z M7.86963918,24.0789691 C7.86963918,23.76 7.85340206,23.5564948 7.81948454,23.4670103 C7.78701031,23.3786082 7.71917526,23.3342268 7.61597938,23.3342268 C7.52793814,23.3342268 7.46118557,23.3703093 7.415,23.4424742 C7.36773196,23.5131959 7.34463918,23.7253608 7.34463918,24.0789691 L7.34463918,27.274433 C7.34463918,27.6727835 7.36087629,27.9181443 7.39082474,28.0105155 C7.4207732,28.1043299 7.49257732,28.1505155 7.60371134,28.1505155 C7.71773196,28.1505155 7.78953608,28.0971134 7.82237113,27.9903093 C7.85340206,27.8820619 7.86963918,27.6280412 7.86963918,27.2235567 L7.86963918,24.0789691 Z M15.3314948,22.3195876 L15.3314948,29.1651546 L13.8687113,29.1651546 L13.8687113,24.5437113 L13.2838144,29.1651546 L12.2457216,29.1651546 L11.6297938,24.6490722 L11.6297938,29.1651546 L10.1670103,29.1651546 L10.1670103,22.3195876 L12.3341237,22.3195876 C12.3979897,22.730567 12.4643814,23.2158763 12.5361856,23.774433 L12.7667526,25.5164948 L13.1481443,22.3195876 L15.3314948,22.3195876 Z M16.0033505,22.3195876 L17.6884021,22.3195876 C18.1444845,22.3195876 18.4959278,22.3571134 18.7402062,22.4336082 C18.9859278,22.5097423 19.1703093,22.6197938 19.292268,22.7626804 C19.4160309,22.9070103 19.5001031,23.0812887 19.5434021,23.2851546 C19.5870619,23.4901031 19.6087113,23.8061856 19.6087113,24.2348454 L19.6087113,24.8309278 C19.6087113,25.2682474 19.5664948,25.5872165 19.4824227,25.7863918 C19.3969072,25.9870103 19.2410309,26.14 19.014433,26.2482474 C18.7878351,26.3550515 18.4919588,26.4084536 18.1268041,26.4084536 L17.6775773,26.4084536 L17.6775773,29.1651546 L16.0033505,29.1651546 L16.0033505,22.3195876 Z M17.6775773,23.4901031 L17.6775773,25.2321649 C17.7252062,25.2350515 17.7659794,25.2364948 17.7998969,25.2364948 C17.9543299,25.2364948 18.0604124,25.1960825 18.1199485,25.116701 C18.1798454,25.0358763 18.209433,24.8684536 18.209433,24.6158763 L18.209433,24.0529897 C18.209433,23.8191753 18.1755155,23.6658247 18.1065979,23.5969072 C18.0373196,23.5261856 17.8947938,23.4901031 17.6775773,23.4901031 Z M20.0904124,22.3195876 L21.275,22.3195876 C22.0648454,22.3195876 22.5992268,22.3513402 22.878866,22.4162887 C23.1585052,22.4812371 23.3861856,22.6472165 23.5626289,22.9124227 C23.7390722,23.1797938 23.8274742,23.6041237 23.8274742,24.1886598 C23.8274742,24.7212371 23.7650515,25.0791753 23.6402062,25.2624742 C23.5168041,25.4457732 23.2710825,25.5554639 22.9048454,25.5915464 C23.2357216,25.6795876 23.4597938,25.7964948 23.5738144,25.9437113 C23.6863918,26.0894845 23.7581959,26.2233505 23.7852577,26.3463918 C23.8137629,26.4690722 23.8274742,26.8068041 23.8274742,27.3595876 L23.8274742,29.1651546 L22.2737629,29.1651546 L22.2737629,26.8905155 C22.2737629,26.5239175 22.2452577,26.2973196 22.1907732,26.2092784 C22.1366495,26.1226804 21.9941237,26.0779381 21.765,26.0779381 L21.765,29.1651546 L20.0904124,29.1651546 L20.0904124,22.3195876 Z M21.765,23.4901031 L21.765,25.0127835 C21.952268,25.0127835 22.0839691,24.9853608 22.1597423,24.9305155 C22.2355155,24.8756701 22.2737629,24.696701 22.2737629,24.3950515 L22.2737629,24.0197938 C22.2737629,23.8018557 22.2369588,23.6604124 22.1637113,23.5925773 C22.0904639,23.5247423 21.9573196,23.4901031 21.765,23.4901031 Z M27.365,22.3195876 L28.3229897,29.1651546 L26.6090722,29.1651546 L26.5264433,27.9340206 L25.9253093,27.9340206 L25.8260825,29.1651546 L24.0934021,29.1651546 L24.9442268,22.3195876 L27.365,22.3195876 Z M26.4788144,26.7216495 C26.393299,25.9465979 26.3092268,24.9882474 26.2237113,23.8494845 C26.0541237,25.1581959 25.9484021,26.1154639 25.9061856,26.7216495 L26.4788144,26.7216495 Z M32.1549485,24.3907216 L30.6012371,24.3907216 L30.6012371,23.8841237 C30.6012371,23.6474227 30.5810309,23.4955155 30.541701,23.4309278 C30.5020103,23.3656186 30.4356186,23.3342268 30.3421649,23.3342268 C30.2414948,23.3342268 30.1657216,23.3775258 30.1141237,23.465567 C30.0625258,23.5521649 30.0369072,23.6849485 30.0369072,23.8624742 C30.0369072,24.0905155 30.0654124,24.2633505 30.1235052,24.3791753 C30.1790722,24.4946392 30.3381959,24.6331959 30.597268,24.797732 C31.3420103,25.2682474 31.8103608,25.6536082 32.0044845,25.9552577 C32.1982474,26.2569072 32.2945876,26.7429381 32.2945876,27.414433 C32.2945876,27.902268 32.2404639,28.2616495 32.133299,28.4925773 C32.026134,28.7235052 31.818299,28.9183505 31.5115979,29.0742268 C31.2038144,29.2301031 30.8469588,29.3094845 30.4385052,29.3094845 C29.9907216,29.3094845 29.6078866,29.2185567 29.2918041,29.0381443 C28.9742784,28.857732 28.7664433,28.6282474 28.6690206,28.3496907 C28.5712371,28.0696907 28.5225258,27.6742268 28.5225258,27.1604124 L28.5225258,26.7129897 L30.0762371,26.7129897 L30.0762371,27.5457732 C30.0762371,27.8026804 30.0978866,27.9672165 30.1411856,28.0408247 C30.1859278,28.1129897 30.2635052,28.1505155 30.3746392,28.1505155 C30.4857732,28.1505155 30.5687629,28.1043299 30.6228866,28.0105155 C30.6773711,27.9181443 30.704433,27.7795876 30.704433,27.5962887 C30.704433,27.1936082 30.6528351,26.9294845 30.5496392,26.8053608 C30.4439175,26.6812371 30.1819588,26.4748454 29.7666495,26.1843814 C29.3502577,25.8903093 29.0745876,25.6781443 28.9389175,25.5453608 C28.8046907,25.4125773 28.6921134,25.2292784 28.6040722,24.9954639 C28.5142268,24.7616495 28.4709278,24.4628866 28.4709278,24.0991753 C28.4709278,23.5748969 28.5333505,23.1913402 28.6592784,22.948866 C28.7844845,22.7063918 28.9879897,22.5173196 29.2687113,22.3798454 C29.549433,22.2445361 29.8889691,22.1752577 30.2865979,22.1752577 C30.7221134,22.1752577 31.0923196,22.2499485 31.3979381,22.3989691 C31.7042784,22.5487113 31.906701,22.736701 32.0070103,22.9643814 C32.1062371,23.1913402 32.1549485,23.576701 32.1549485,24.1204639 L32.1549485,24.3907216 L32.1549485,24.3907216 Z" id="Fill-2" fill="#FFFFFF"></path>
            <path d="M1.58731959,30.5665979 C1.58731959,30.5665979 4.26824742,29.3982474 10.453866,29.6042784 C16.6398454,29.8106701 32.586134,29.6042784 32.586134,29.6042784 C32.586134,29.6042784 32.3797423,30.7729897 27.4310309,30.7040722 C22.4823196,30.6355155 1.58731959,30.5665979 1.58731959,30.5665979" id="Fill-3" fill="#FFFFFF"></path>
            <path d="M0.0754639175,8.8471134 C0.0754639175,8.8471134 10.1792784,8.8471134 13.8907216,8.8471134 C17.6021649,8.8471134 20.0077835,10.0154639 20.0077835,10.0154639 C20.0077835,10.0154639 7.9107732,9.94690722 4.7492268,9.94690722 C1.58731959,9.94690722 0.0754639175,8.8471134 0.0754639175,8.8471134" id="Fill-4" fill="#FFFFFF"></path>
            <path d="M1.12510309,11.3238144 L3.82587629,11.3238144 C4.67706186,11.3238144 5.32438144,11.3894845 5.76314433,11.5233505 C6.20190722,11.6550515 6.55731959,11.9249485 6.82721649,12.3287113 C7.0971134,12.7346392 7.23097938,13.3862887 7.23097938,14.2854639 C7.23097938,14.8956186 7.1364433,15.318866 6.94556701,15.5580928 C6.75469072,15.7994845 6.37943299,15.9835052 5.81798969,16.1108763 C6.44329897,16.2537629 6.86654639,16.488299 7.09025773,16.8152062 C7.31216495,17.1442784 7.42402062,17.6469072 7.42402062,18.3223711 L7.42402062,19.2875773 C7.42402062,19.9897423 7.345,20.5096907 7.18262887,20.8499485 C7.02242268,21.1876804 6.76587629,21.4178866 6.41479381,21.5430928 C6.06371134,21.668299 5.3442268,21.7296392 4.25597938,21.7296392 L1.12510309,21.7296392 L1.12510309,11.3238144 Z M3.83237113,13.1030412 L3.83237113,15.417732 C3.94639175,15.4134021 4.03659794,15.4112371 4.10226804,15.4112371 C4.36783505,15.4112371 4.53670103,15.3452062 4.6092268,15.2156701 C4.68139175,15.0843299 4.71891753,14.7112371 4.71891753,14.0945876 C4.71891753,13.7676804 4.68824742,13.5396392 4.62871134,13.4101031 C4.56737113,13.2787629 4.49051546,13.1950515 4.39417526,13.1622165 C4.29747423,13.1272165 4.10876289,13.1073711 3.83237113,13.1030412 Z M3.83237113,17.0367526 L3.83237113,19.9482474 C4.21195876,19.9370619 4.45551546,19.8757216 4.56087629,19.7681959 C4.66623711,19.6628351 4.71891753,19.3976289 4.71891753,18.9783505 L4.71891753,18.0088144 C4.71891753,17.5631959 4.67056701,17.293299 4.57639175,17.1991237 C4.48185567,17.1045876 4.23396907,17.0501031 3.83237113,17.0367526 Z M13.0665979,11.3238144 L14.6156186,21.7296392 L11.8448454,21.7296392 L11.7109794,19.8580412 L10.7389175,19.8580412 L10.5787113,21.7296392 L7.77726804,21.7296392 L9.15273196,11.3238144 L13.0665979,11.3238144 Z M11.6341237,18.0153093 C11.4959278,16.8372165 11.3598969,15.380567 11.221701,13.6493299 C10.9474742,15.6392784 10.7760825,17.0937629 10.7082474,18.0153093 L11.6341237,18.0153093 Z M21.120567,11.3238144 L21.120567,21.7296392 L18.748866,21.7296392 L17.340567,16.9995876 L17.340567,21.7296392 L15.0785567,21.7296392 L15.0785567,11.3238144 L17.340567,11.3238144 L18.8585567,16.0102062 L18.8585567,11.3238144 L21.120567,11.3238144 Z M22.2066495,11.3238144 L24.1219072,11.3238144 C25.398866,11.3238144 26.2630412,11.3721649 26.7151546,11.4706701 C27.1669072,11.5695361 27.5356701,11.8217526 27.8207216,12.2255155 C28.106134,12.6314433 28.2486598,13.2762371 28.2486598,14.1649485 C28.2486598,14.9746392 28.1476289,15.5187629 27.9459278,15.7973196 C27.7463918,16.0758763 27.3491237,16.2425773 26.7566495,16.2974227 C27.2921134,16.4312887 27.6540206,16.6091753 27.8384021,16.8328866 C28.0206186,17.054433 28.1368041,17.258299 28.1808247,17.4448454 C28.2266495,17.6313918 28.2486598,18.1448454 28.2486598,18.9848454 L28.2486598,21.7296392 L25.7365979,21.7296392 L25.7365979,18.2718557 C25.7365979,17.7147423 25.6904124,17.3701546 25.602732,17.2362887 C25.5150515,17.1045876 25.2848454,17.0367526 24.9139175,17.0367526 L24.9139175,21.7296392 L22.2066495,21.7296392 L22.2066495,11.3238144 Z M24.9139175,13.1030412 L24.9139175,15.417732 C25.2166495,15.417732 25.4295361,15.3758763 25.5522165,15.2925258 C25.6752577,15.2091753 25.7365979,14.9371134 25.7365979,14.478866 L25.7365979,13.9084021 C25.7365979,13.5771649 25.6774227,13.3621134 25.5590722,13.2589175 C25.4403608,13.1557216 25.2253093,13.1030412 24.9139175,13.1030412 Z M29.2950515,21.7296392 L32.0023196,21.7296392 L32.0023196,11.3238144 L29.2950515,11.3238144 L29.2950515,21.7296392 Z" id="Fill-5" fill="#FFFFFF"></path>
            <path d="M8.40546392,7.70618557 C10.5967526,4.2007732 12.7977835,2.38329897 15.1254639,2.42010309 C19.4708763,2.48902062 21.4918557,6.09149485 22.8308763,10.3044845 C26.1457732,9.95989691 29.4610309,10.0349485 32.7762887,10.1702577 C29.506134,9.67664948 26.2208247,9.24329897 22.8308763,9.22958763 C21.8580928,4.94912371 19.9446392,1.54510309 15.7078351,1.47907216 C13.0023711,1.43721649 10.151134,2.44824742 8.40546392,7.70618557" id="Fill-6" fill="#FFFFFF"></path>
            <path d="M11.2725773,8.69195876 C12.183299,6.72798969 13.6615979,4.84664948 15.5285052,3.00247423 C14.8404124,3.00247423 14.3309278,3.00247423 13.6428351,3.00247423 C12.1659794,5.25726804 11.3162371,7.15376289 11.2725773,8.69195876" id="Fill-7" fill="#FFFFFF"></path>
            <path d="M15.9319072,0.807216495 C16.4543814,0.926649485 16.9772165,1.04608247 17.4996907,1.16551546 C20.7525258,0.650979381 23.7917526,2.88773196 25.742732,7.75092784 C24.5318041,4.37 24.0125773,0.772938144 19.8291753,0.180103093 C18.417268,-0.0201546392 16.7603608,0.187680412 15.9319072,0.807216495" id="Fill-8" fill="#FFFFFF"></path>
            <polyline id="Fill-9" fill="#FFFFFE" points="10.5126804 17.1410309 12.148299 17.1410309 12.9973196 15.5894845 12.1847423 14.0559794 10.5570619 14.0465979 10.5126804 17.1410309"></polyline>
            <polyline id="Fill-10" fill="#000000" points="9.63984536 15.6306186 10.558866 14.0242268 11.4021134 15.6071649 10.5097938 17.145 9.63984536 15.6306186"></polyline>
            <polyline id="Fill-11" fill="#FFFFFE" points="11.7102577 19.3460309 13.3458763 19.3460309 14.1948969 17.7944845 13.3823196 16.2609794 11.7542784 16.2519588 11.7102577 19.3460309"></polyline>
            <polyline id="Fill-12" fill="#000000" points="10.8374227 17.8359794 11.7564433 16.228866 12.5993299 17.8121649 11.7073711 19.35 10.8374227 17.8359794"></polyline>
            <polyline id="Fill-13" fill="#FFFFFE" points="9.21984536 19.3460309 10.8558247 19.3460309 11.7052062 17.7944845 10.892268 16.2609794 9.26458763 16.2519588 9.21984536 19.3460309"></polyline>
            <polyline id="Fill-14" fill="#000000" points="8.34773196 17.8359794 9.26675258 16.228866 10.1096392 17.8121649 9.21731959 19.35 8.34773196 17.8359794"></polyline>
        </g>
    </g>
</svg>