<?xml version="1.0" encoding="UTF-8"?>
<svg width="55px" height="35px" viewBox="0 0 55 35" version="1.1" xmlns="http://www.w3.org/2000/svg" xmlns:xlink="http://www.w3.org/1999/xlink">
    <title>hipercard copy 2</title>
    <g id="Page-1" stroke="none" stroke-width="1" fill="none" fill-rule="evenodd">
        <g id="hipercard-copy-2" fill-rule="nonzero">
            <path d="M50.6487026,0 L3.84231537,0 C1.72366267,0 0,1.72366267 0,3.84231537 L0,31.1576846 C0,33.2763373 1.72366267,35 3.84231537,35 L50.6487026,35 C52.7672156,35 54.491018,33.2763373 54.491018,31.1576846 L54.491018,3.84231537 C54.491018,1.72366267 52.7672156,0 50.6487026,0 Z" id="Path" fill="#FFFFFF"></path>
            <path d="M23.3025948,27.9224551 L3.28552894,27.9297206 L3.28552894,27.881517 C3.28552894,27.8550399 3.31745509,27.6832535 3.35643713,27.4997305 C3.39548902,27.3162774 3.45612774,27.0244012 3.49133733,26.8512176 C3.52640719,26.6780339 3.58648703,26.3837126 3.6247006,26.1970459 C3.71873253,25.7410679 3.81164671,25.2848104 3.90337325,24.8283433 C3.93949102,24.6483832 3.99964072,24.353992 4.03722555,24.1742415 C4.0851497,23.9441916 4.13251497,23.714002 4.17953094,23.4837425 C4.22018962,23.2839421 4.28201597,22.9785828 4.31694611,22.8053293 C4.35187625,22.6320758 4.40734531,22.365 4.4402495,22.2118663 C4.47308383,22.0586627 4.51506986,21.8515269 4.53337325,21.751487 C4.55174651,21.6515868 4.6111976,21.3571257 4.66547904,21.0973852 C4.71116766,20.8796307 4.7555988,20.6615968 4.79856287,20.4432834 C4.81749501,20.3433832 4.87764471,20.0489222 4.93227545,19.7891816 C4.98683633,19.5294411 5.04677645,19.2350499 5.065499,19.1350798 C5.08422156,19.0351796 5.14451098,18.7407884 5.19942116,18.480978 C5.25447106,18.2210978 5.3138523,17.9322954 5.33131737,17.8390319 C5.34892216,17.7457685 5.39698603,17.5059381 5.43820359,17.3060679 C5.4793513,17.1061976 5.55731537,16.7300699 5.61138723,16.4702595 C5.66552894,16.2103792 5.75802395,15.7579641 5.81691617,15.4646906 C5.8759481,15.1716267 5.94643713,14.8228144 5.97361277,14.689521 C6.05346307,14.2977445 6.13401198,13.9060379 6.2153992,13.5146108 C6.255499,13.3212375 6.32067864,13.0051198 6.36028942,12.8118862 C6.39997006,12.6186527 6.46102794,12.3188822 6.49602794,12.1456986 C6.53102794,11.972515 6.59075848,11.6836427 6.62876248,11.5036826 C6.66676647,11.3238623 6.73215569,11.0076048 6.77407186,10.8010978 C6.81598802,10.594521 6.8861976,10.2784032 6.93006986,10.098513 C6.97394212,9.91862275 7.03597804,9.70058882 7.06797405,9.61403194 C7.0999002,9.52733533 7.18813373,9.33969062 7.264002,9.19675649 L7.40197605,8.93708583 L7.52737525,8.77277445 C7.59625749,8.68251497 7.71942116,8.53979042 7.8009481,8.45567864 C7.88247505,8.37156687 8.01996008,8.24498004 8.10665669,8.17442116 C8.19321357,8.10379242 8.31861277,8.00850299 8.38518962,7.96267465 C8.45183633,7.91684631 8.58268463,7.83657685 8.6759481,7.78432136 C8.76921158,7.73206587 8.90012974,7.66367265 8.96670659,7.63230539 C9.03335329,7.60093812 9.1696507,7.54358283 9.2695509,7.5049501 C9.3694511,7.46638723 9.56023952,7.40162675 9.69346307,7.36117764 C9.82668663,7.32065868 10.0768563,7.2596008 10.2493413,7.22557884 C10.4218263,7.19148703 10.6942814,7.14593812 10.8550299,7.1243513 L11.1471158,7.08508982 L31.1767565,7.07754491 L51.2063972,7.06979042 L51.2063972,7.11799401 C51.2063972,7.14447106 51.1742615,7.31625749 51.1350699,7.49971058 C51.0855389,7.73185629 51.0369162,7.96414172 50.9892016,8.19670659 C50.9481238,8.39657685 50.8885329,8.68551896 50.8563972,8.83872255 C50.810988,9.05668663 50.7659281,9.27472056 50.7213573,9.49282435 C50.6791617,9.6994012 50.6143313,10.0155888 50.5772355,10.1954092 C50.5401397,10.3752994 50.47999,10.6696906 50.4436627,10.849511 C50.4073353,11.0294711 50.3468363,11.3237924 50.3093214,11.5036128 C50.2655888,11.7134731 50.2224152,11.9234731 50.1798004,12.1336128 C50.1461976,12.3001597 50.0852794,12.5999301 50.0445509,12.7998004 C50.0037525,12.9996008 49.9382934,13.3158583 49.8990319,13.5023852 C49.8597705,13.6889122 49.7999701,13.9778543 49.7661577,14.1444012 C49.7322754,14.3109481 49.6714271,14.6107186 49.6307685,14.810519 C49.5901098,15.0103892 49.5247904,15.3266467 49.4855289,15.5132435 C49.4462675,15.6997705 49.3878643,15.9831936 49.355519,16.1431038 C49.2658882,16.5873453 49.1756287,17.0315868 49.0848802,17.4756188 C49.0520459,17.6354591 48.9935729,17.9189521 48.9549401,18.105479 C48.9054092,18.3435629 48.8563673,18.5817864 48.8076747,18.8201497 C48.7654092,19.0267265 48.7049102,19.320978 48.6733333,19.4743214 C48.6416168,19.6274551 48.5824451,19.9163273 48.5416467,20.1161976 C48.4938623,20.350509 48.4458683,20.5846108 48.397525,20.8187824 C48.3590319,21.0053792 48.2986727,21.2997705 48.2633234,21.473024 C48.2281138,21.6462076 48.1667066,21.9460479 48.1270958,22.1391417 C48.0874152,22.3323752 48.022515,22.648493 47.9830439,22.8417265 C47.943503,23.0349601 47.8842615,23.3239022 47.8513573,23.4838124 C47.806507,23.7017066 47.7620758,23.9197405 47.7177844,24.1378443 C47.6700699,24.3713872 47.6211677,24.6047206 47.5709381,24.8377745 L47.498004,25.1742914 L47.4110978,25.4070659 C47.3633134,25.5351198 47.2914271,25.7052994 47.2513273,25.7852894 C47.2114371,25.8652096 47.1299102,26.0062575 47.0702495,26.0987525 C47.0105888,26.1911078 46.9274551,26.3095908 46.8855389,26.3619162 C46.8435529,26.4142415 46.7173852,26.5493513 46.6048403,26.6622455 L46.4006387,26.8672854 L46.2040519,27.007006 C46.0959082,27.0839222 45.9793114,27.1620958 45.9452196,27.1806786 C45.910988,27.1994012 45.7806986,27.265978 45.6555788,27.3284331 C45.5305988,27.3910279 45.353992,27.4707385 45.2631737,27.5054591 C45.1723553,27.5403194 44.9924651,27.599491 44.8634331,27.637006 C44.7344012,27.6746607 44.5960778,27.7116866 44.5561876,27.7193713 C44.5161577,27.726986 44.3774152,27.7556986 44.2478244,27.7832236 C44.1182335,27.8106786 43.8565369,27.8516168 43.6664471,27.8742515 L43.3206387,27.9154691 L23.3035729,27.9224551 L23.3025948,27.9224551 Z M16.1810379,22.7447605 L16.7019162,22.7447605 L16.7165868,22.7064072 C16.7247605,22.6853094 16.7313273,22.6357784 16.7313273,22.5963074 C16.7313273,22.5568363 16.748513,22.4133433 16.7695409,22.2773952 C16.790499,22.1413074 16.8396806,21.8284032 16.8789421,21.5819361 C16.9181337,21.3353992 16.9768164,20.9647206 17.0093713,20.7582136 C17.0403194,20.5626048 17.0697305,20.3667166 17.0977445,20.1706886 C17.1137425,20.0540918 17.1332335,19.9587325 17.1411277,19.9587325 C17.1489521,19.9587325 17.1826248,20.0102196 17.2159481,20.0732335 L17.2764471,20.1877345 L17.4107186,20.3231238 L17.5450599,20.4584431 L17.7103493,20.5246707 L17.8757086,20.5908283 L18.0727146,20.6163273 L18.2697904,20.6418263 L18.5198204,20.6265269 L18.7699202,20.6110878 L19.0406986,20.5410878 L19.3115469,20.4708782 L19.4568563,20.4046507 C19.5368463,20.3681836 19.678523,20.2885429 19.7717864,20.2278343 L19.9414072,20.1173852 L20.099501,19.9592914 C20.186477,19.872525 20.3091517,19.7330838 20.3720259,19.6495309 C20.4350399,19.5661876 20.4865269,19.4917864 20.4865269,19.4843812 C20.4865269,19.476976 20.517475,19.4252794 20.5552695,19.3695309 C20.5930639,19.3138523 20.6703293,19.1591118 20.7270559,19.0259581 C20.7838523,18.8927345 20.8724351,18.6529042 20.9241317,18.492994 L21.018024,18.2022355 L21.0665768,17.9504591 C21.0932635,17.811996 21.1276347,17.582994 21.1429341,17.4416667 L21.1706687,17.1847206 L21.1546008,16.9666866 L21.1386028,16.7486527 L21.0879541,16.5306188 L21.0374451,16.3125848 L20.9555689,16.1493912 L20.8737625,15.9860579 L20.7156687,15.8185329 L20.5576447,15.651008 L20.3706287,15.5543214 L20.1836128,15.4577046 L19.9776647,15.4083134 L19.7717166,15.3590619 L19.5657685,15.3439721 L19.3598902,15.3288124 L19.1305389,15.3551497 L18.9010479,15.3815569 L18.7138922,15.4294112 L18.5266667,15.4771956 L18.3639621,15.552505 C18.2745409,15.5938623 18.1443214,15.6642116 18.0747405,15.7087126 C18.0050898,15.7533533 17.9332036,15.804491 17.9150399,15.8225848 C17.8969461,15.8406786 17.8534232,15.8742814 17.818493,15.8970559 L17.7548503,15.9387625 L17.7992814,15.7258982 C17.8238024,15.6088822 17.8442016,15.4995509 17.8447605,15.4827844 L17.8457385,15.4525349 L16.9573952,15.4525349 L16.8795709,15.9430938 C16.8366766,16.2129641 16.7690519,16.6299601 16.7292315,16.8698603 C16.6414172,17.398982 16.5525549,17.9278942 16.4626447,18.4566667 C16.4230339,18.6897904 16.3575749,19.0605389 16.3171257,19.2803892 C16.2766766,19.5002395 16.217505,19.8218762 16.185509,19.9951297 C16.1535828,20.1683134 16.0933633,20.4953293 16.0518663,20.7218164 C16.0028942,20.9884032 15.9534331,21.2549202 15.903483,21.5212974 C15.8561876,21.7718164 15.8078443,22.0221257 15.7585928,22.2722954 C15.7189122,22.4720958 15.6806287,22.6602994 15.6732934,22.6901297 L15.6600898,22.7447605 L16.1810379,22.7447605 L16.1810379,22.7447605 L16.1810379,22.7447605 Z M18.4235529,19.9437126 L18.2213074,19.9559381 L18.0891317,19.9324651 L17.9568862,19.9091317 L17.8226148,19.8478643 L17.6882735,19.7865269 L17.594521,19.6969661 L17.5006986,19.607475 L17.4465569,19.4863373 C17.4167265,19.4196906 17.378513,19.306517 17.3615369,19.2347006 L17.3306587,19.1044112 L17.343024,18.8955988 L17.3554591,18.6869261 L17.4178443,18.3597705 C17.4649301,18.1097405 17.5106188,17.8593613 17.5547705,17.6087725 C17.5957784,17.3755788 17.6579541,17.0338922 17.6928144,16.8494611 L17.7561776,16.5141317 L17.8950599,16.3985828 C17.971487,16.3351497 18.092485,16.2498503 18.164022,16.2093313 L18.2939621,16.1355589 L18.463513,16.0830938 L18.6331337,16.0305589 L18.8511677,16.0177046 L19.0692016,16.0049202 L19.2467864,16.0427844 L19.4243014,16.0805788 L19.5496307,16.1382834 L19.6748902,16.195988 L19.7799601,16.3016168 L19.8850998,16.4072455 L19.9416866,16.5191617 C19.9729142,16.5807086 20.0167166,16.7010778 20.039002,16.7867265 L20.0795908,16.9424451 L20.0671557,17.4028244 L20.0547206,17.8632036 L19.9925449,18.1353094 C19.9583134,18.2849501 19.8932036,18.5138822 19.8477944,18.6439621 L19.7652894,18.8807186 L19.6641317,19.0722754 C19.608523,19.1776946 19.5228044,19.3200699 19.4736228,19.3886727 C19.4244411,19.4572754 19.345988,19.5464172 19.2993214,19.5863772 C19.2428044,19.6344411 19.1849601,19.6808283 19.1257884,19.7254691 L19.036996,19.7917665 L18.8313972,19.8616966 L18.6257984,19.9316267 L18.4235529,19.9437126 L18.4235529,19.9437126 Z M23.4542615,20.6097605 L23.7207784,20.6128343 L23.9871557,20.588523 C24.1338623,20.5751796 24.3736228,20.5473054 24.5201198,20.5265569 C24.6668263,20.5059481 24.92,20.4597006 25.0829142,20.4239321 L25.3790519,20.3587525 L25.3938623,20.249491 C25.4018962,20.1895509 25.4352196,20.0107784 25.4677745,19.8523353 L25.5269461,19.5641617 L25.5138124,19.5511677 L25.5007485,19.5381038 L25.4102096,19.5817665 C25.3603992,19.6057984 25.2052395,19.6632236 25.065519,19.7092615 L24.8113673,19.7928842 L24.5446407,19.8446507 L24.2779142,19.8962774 L23.854002,19.8971856 L23.43002,19.8979541 L23.2846407,19.8515669 C23.2047206,19.8260679 23.0871457,19.7794012 23.0233633,19.7477545 L22.9074651,19.6903992 L22.8118263,19.603982 L22.7161178,19.517495 L22.6414371,19.3870659 L22.5667565,19.256497 L22.5199501,19.0928842 L22.4731437,18.9291317 L22.4728643,18.6262176 L22.472515,18.3233034 L22.514012,18.0531537 L22.5557186,17.7828643 L22.9202495,17.7658184 L23.2847804,17.7487725 L24.6324551,17.757505 L25.9800599,17.7660978 L26.0207186,17.5935429 C26.0431437,17.4986028 26.0773752,17.3023653 26.0967964,17.157475 L26.1321457,16.8939621 L26.1329142,16.6723653 L26.1337525,16.4506986 L26.0953992,16.2852695 L26.0569062,16.1197705 L25.9934731,16.0102994 C25.9586826,15.9500798 25.8970659,15.8627545 25.8568962,15.8162275 C25.8166567,15.7697705 25.7447705,15.7041717 25.6971956,15.6706387 C25.649481,15.6371058 25.5560778,15.580519 25.4894311,15.5450998 L25.3683633,15.4806886 L25.1567565,15.4296906 L24.9450798,15.3787625 L24.6844311,15.3538224 L24.4235729,15.3289521 L24.1813673,15.3447405 L23.9390918,15.3604591 L23.6483333,15.4163473 L23.3576447,15.4722355 L23.1758683,15.5448204 C23.0758982,15.5846407 22.9233234,15.6576447 22.8367665,15.7067565 C22.7501397,15.7558683 22.6302595,15.8357884 22.5703892,15.8842715 C22.5103094,15.9328942 22.4064271,16.0274152 22.3395709,16.0942715 C22.2726447,16.1611277 22.1735828,16.2812176 22.1196507,16.3611377 C22.0655788,16.4411976 21.9827246,16.5828743 21.9353593,16.6760679 C21.8881337,16.7694012 21.8265868,16.9002495 21.7985729,16.9668263 C21.7706986,17.0334032 21.7197006,17.1697006 21.6856088,17.2696008 C21.6513772,17.3696407 21.5975848,17.5603593 21.5662176,17.6936527 C21.5291916,17.8550998 21.4971956,18.0175948 21.4702994,18.1810679 L21.4315968,18.4262774 L21.432016,18.7867565 L21.4324351,19.1472355 L21.4691816,19.3047006 C21.4893713,19.3913273 21.5282136,19.5221756 21.5551796,19.5954591 C21.5821457,19.6687425 21.6323054,19.7777246 21.6664671,19.8377345 C21.7006287,19.8977445 21.773493,19.9941517 21.8284032,20.0522754 C21.8832435,20.1102595 21.9827944,20.1984232 22.0494411,20.2479541 C22.1159481,20.297485 22.2345709,20.3673453 22.3128842,20.4029741 L22.4553293,20.4678044 L22.6539421,20.5158683 C22.7631337,20.5422754 22.928004,20.5735729 23.0202894,20.5854491 C23.1122954,20.596976 23.3076946,20.6081537 23.4542615,20.6097605 L23.4542615,20.6097605 Z M23.910519,17.1968762 C23.2398603,17.1968762 22.6911078,17.1921257 22.6911078,17.1861876 C22.6911078,17.1803892 22.7197505,17.0958583 22.7547505,16.9984032 C22.7896806,16.901018 22.8511577,16.7561277 22.8911876,16.6764172 L22.9641916,16.5313174 L23.1243812,16.3719661 L23.2846407,16.212475 L23.4421756,16.1372355 C23.5287325,16.0958084 23.6432335,16.0507485 23.6965369,16.036986 C23.7499102,16.0232934 23.9024152,16.0051297 24.0356387,15.9966766 L24.277984,15.9810978 L24.4640918,16.0050599 L24.6500599,16.0289521 L24.7853094,16.0908483 L24.9205589,16.1528144 L24.9947505,16.2328044 C25.035479,16.2767465 25.0840319,16.3415768 25.1027545,16.3766467 L25.136497,16.4406387 L25.1588523,16.5826647 L25.1812774,16.7245509 L25.1556387,16.9607485 L25.1300699,17.1970858 L23.910519,17.1970858 L23.910519,17.1968762 L23.910519,17.1968762 Z M31.158523,20.6099002 L31.4251796,20.6128343 L31.7278144,20.5769261 C31.8942914,20.5572255 32.1158882,20.5245309 32.2203293,20.5042016 C32.346497,20.4788423 32.4717565,20.4490818 32.5958283,20.4151297 C32.6979641,20.3862076 32.7903892,20.35498 32.8011477,20.3457585 C32.811976,20.3364671 32.8407585,20.2265768 32.8652794,20.1014571 C32.8898004,19.9763373 32.9206088,19.8086028 32.9338124,19.7286128 C32.9469461,19.6486228 32.9537924,19.5789721 32.9489721,19.5737325 C32.9440818,19.568493 32.9262675,19.5752695 32.9092914,19.5886826 C32.8923154,19.6022355 32.773483,19.6522555 32.6451497,19.6999002 L32.4118862,19.7865269 L32.0796307,19.8508683 L31.7473752,19.9152096 L31.465,19.9056387 L31.1825549,19.895998 L31.0220858,19.8402495 L30.8616168,19.7845709 L30.7376846,19.6762176 L30.6138224,19.5677246 L30.5315269,19.4178743 L30.4493014,19.2681637 L30.4100399,19.0677345 L30.3708483,18.8674451 L30.3711976,18.607495 L30.3714072,18.3475449 L30.418982,18.0326148 L30.4666267,17.7175449 L30.516996,17.5479242 C30.5446607,17.4546607 30.5760978,17.3456786 30.5866467,17.3057186 C30.5972655,17.2656886 30.6416267,17.1512575 30.6853593,17.0512176 C30.729022,16.9513174 30.806986,16.7968563 30.8585429,16.7080639 L30.9522954,16.5465469 L31.067495,16.4271557 L31.1826248,16.3077645 L31.3045309,16.2321756 L31.4265768,16.156517 L31.5832036,16.1082435 C31.6693413,16.0817665 31.8216367,16.0472555 31.9215369,16.0318164 L32.1033134,16.0034531 L32.3696906,16.0167964 L32.6362076,16.0301397 L32.9511377,16.0931537 L33.2661377,16.1560978 L33.3941916,16.2039521 C33.4646108,16.2301497 33.5253194,16.2518064 33.5291617,16.2518064 C33.5329341,16.2518064 33.5498403,16.1618263 33.5666766,16.0518663 C33.5835828,15.9420459 33.6136228,15.7611078 33.6334631,15.6500299 C33.6533733,15.5388124 33.6648303,15.4431038 33.6588922,15.4373054 C33.6530938,15.4314371 33.5584331,15.4164172 33.4486128,15.4038423 C33.3387226,15.3914072 33.0400699,15.3691916 32.7850798,15.3544511 L32.3212774,15.3278343 L31.9941218,15.3528443 L31.6671058,15.377994 L31.4247605,15.4288523 L31.182485,15.4797804 L31.026487,15.5421657 C30.9406287,15.5764671 30.81502,15.6384331 30.7471856,15.6798603 C30.6821457,15.7194012 30.6182236,15.7606188 30.5554192,15.803513 C30.5176946,15.8301996 30.4034032,15.9341517 30.3012675,16.0346806 L30.1157884,16.2172255 L30.0121158,16.3689621 C29.9552495,16.4524451 29.8566766,16.6264671 29.7931737,16.7557086 L29.6777645,16.9907186 L29.5892515,17.24501 C29.5406287,17.3849401 29.4726547,17.6138723 29.4383533,17.7538024 L29.3758283,18.0082335 L29.3531238,18.2384232 L29.330489,18.4686128 L29.3306986,18.7713872 L29.330978,19.0741617 L29.3538224,19.2503493 L29.3766667,19.4265369 L29.4492515,19.6077545 L29.5217665,19.7889721 L29.6056687,19.9199601 L29.6893613,20.0509481 L29.8225848,20.1821457 L29.9559481,20.3132735 L30.0968563,20.3878842 L30.2379741,20.4622854 L30.4231038,20.5137725 C30.5248902,20.541996 30.6720858,20.574481 30.7501896,20.5858683 C30.8282934,20.5972555 31.0120259,20.6079441 31.1587325,20.6095509 L31.158523,20.6095509 L31.158523,20.6099002 Z M35.1436327,20.6009581 L35.4706487,20.5915269 L35.6765968,20.5388523 L35.8825449,20.4860379 L36.0158383,20.4231637 C36.0891218,20.3885828 36.209002,20.3201198 36.2822156,20.2711477 C36.3555689,20.2222455 36.4690918,20.1291916 36.5343413,20.0644311 C36.5996607,19.9996008 36.6965569,19.8890818 36.7496507,19.8187325 C36.8027445,19.7483832 36.8494112,19.6941018 36.8532535,19.698014 C36.8573054,19.7019261 36.84501,19.8138423 36.8260778,19.9468563 C36.8072854,20.0799401 36.7916367,20.2568962 36.7913573,20.3402395 L36.7909381,20.4915569 L37.6801896,20.4915569 L37.6937425,20.1464471 L37.7072954,19.8011976 L37.7707285,19.3529741 C37.8056587,19.1064371 37.8620359,18.7412076 37.8960579,18.5414072 C37.9299401,18.3416068 37.9890419,18.0036926 38.0273253,17.7904092 C38.0655389,17.5771257 38.1261078,17.2446607 38.1618064,17.0514271 L38.2269162,16.7002395 L38.2291517,16.3967665 L38.2312475,16.0932934 L38.1627146,15.9530838 L38.0941118,15.8128044 L38.0011277,15.723523 L37.908004,15.6341717 L37.7553593,15.5569062 L37.602505,15.479501 L37.3748303,15.4287824 L37.1471557,15.3780639 L36.8337625,15.3543114 L36.5202994,15.3304192 L36.1166467,15.3554291 C35.8944212,15.3691218 35.5820758,15.3962275 35.4221657,15.4156487 L35.1314072,15.4509281 L34.9332834,15.4516966 L34.7351597,15.4524651 L34.7063074,15.5918363 C34.6904491,15.6684032 34.6463673,15.8503892 34.6084331,15.9963273 C34.5703593,16.1421956 34.5429042,16.2650798 34.5471657,16.2693413 C34.5514271,16.2736028 34.6574052,16.2495709 34.7825948,16.2158982 C34.9077844,16.1821557 35.1738822,16.1268263 35.3737525,16.0926647 L35.7370958,16.0307685 L36.0641816,16.0173553 L36.3912675,16.0038723 L36.6019661,16.0408283 L36.8127345,16.0777146 L36.9532934,16.1470858 L37.0939222,16.2165269 L37.1726547,16.3338922 L37.2514571,16.4512575 L37.2503393,16.6361776 L37.2491517,16.8212375 L37.2073752,17.0241816 L37.1655988,17.2272655 L36.2938124,17.2304092 L35.4220958,17.233483 L35.1368563,17.3117265 C34.9799501,17.3547605 34.8062076,17.4119062 34.7507385,17.4385928 C34.6952695,17.465489 34.6398004,17.4874251 34.6274351,17.4874251 C34.6151397,17.4874251 34.5218064,17.5390519 34.42002,17.6024152 L34.2350299,17.7173353 L34.0893713,17.8627844 C34.0091717,17.9428443 33.9068263,18.0627246 33.8618363,18.1293713 C33.8167764,18.1959481 33.7437026,18.3351098 33.6994112,18.4386427 L33.6187924,18.6267764 L33.5818363,18.8383134 L33.5448104,19.0498503 L33.5448104,19.4938124 L33.5800898,19.6786627 L33.615509,19.863513 L33.6810379,19.984022 C33.7171557,20.0502495 33.7834531,20.1474251 33.8281637,20.1998204 L33.9097605,20.2951098 L34.0545808,20.3831337 L34.1994711,20.4712275 L34.3653892,20.5180339 C34.4566267,20.5438124 34.5954391,20.5751098 34.6739621,20.5876148 L34.8166168,20.6100399 L35.1437026,20.6006786 L35.1436327,20.6006786 L35.1436327,20.6009581 Z M35.446477,19.9233832 L35.2526846,19.9335828 L35.1242814,19.9008184 C35.0537226,19.8828643 34.9465569,19.8428343 34.8862675,19.8118164 L34.7766567,19.7553693 L34.7167166,19.6841816 C34.6838124,19.6449202 34.6335828,19.5681437 34.6049401,19.5133034 L34.5530339,19.4135429 L34.5429042,19.1806986 L34.5326347,18.9477844 L34.5737126,18.8065269 C34.5962774,18.7289122 34.6493014,18.5939421 34.6915669,18.5068962 L34.7682735,18.348523 L34.9152595,18.2027246 L35.0621058,18.0568563 L35.2180339,17.9817565 L35.3738922,17.9067964 L35.5676846,17.8606886 L35.761477,17.8145808 L36.9728543,17.8145808 L37.0112076,17.830509 L37.049491,17.8462974 L37.0172854,18.0365269 C36.9995409,18.1410379 36.9572754,18.3301497 36.9231836,18.4567365 C36.8893014,18.5833932 36.8292914,18.7694311 36.7900299,18.8702395 C36.7506986,18.9711178 36.718493,19.0603293 36.718493,19.0683633 C36.718493,19.0765369 36.6786727,19.1499601 36.62998,19.2316966 L36.5414671,19.3802894 L36.3962275,19.5242715 C36.3163772,19.6033533 36.2421158,19.6681138 36.2314271,19.6681138 C36.2207385,19.6681138 36.1717665,19.695499 36.1225848,19.7287525 L36.0333733,19.7892515 L35.8368563,19.851497 L35.6404092,19.9136028 L35.446477,19.9233832 L35.446477,19.9233832 Z M43.3323054,20.6095509 L43.5624251,20.612485 L43.7805289,20.5770659 C43.900479,20.5576447 44.0530539,20.5262774 44.1197006,20.5074152 C44.1862774,20.488483 44.3062974,20.4396507 44.3860778,20.3987126 L44.5315269,20.3242415 L44.6565768,20.2141417 L44.7815569,20.1040419 L44.9133134,19.928483 C44.9857585,19.8318663 45.0513573,19.736507 45.0590419,19.7164571 L45.0730838,19.6800599 L45.0608583,19.8011976 C45.0521956,19.8823054 45.041018,19.9630639 45.0273952,20.0435429 C45.0155888,20.1101198 44.9989621,20.2382435 44.9901597,20.3281537 L44.9740918,20.4916267 L45.9246108,20.4916267 L45.9246108,20.1646108 L45.996986,19.5467665 C46.0367365,19.2069661 46.0956986,18.7546208 46.1278343,18.5413373 C46.1599701,18.3280539 46.2096407,18.0229741 46.2382136,17.8630639 C46.2665768,17.7031537 46.3171557,17.4141417 46.3502695,17.2210479 C46.383523,17.0278842 46.4434631,16.6898303 46.4835629,16.4700499 C46.5235928,16.2501297 46.5877944,15.9012475 46.6261477,15.6948104 C46.6644311,15.4882335 46.724022,15.1665269 46.7585329,14.9800699 C46.7930439,14.7936128 46.8547305,14.4663872 46.8957385,14.2533134 C46.9387026,14.0308782 46.9830639,13.8087924 47.0288922,13.5870559 C47.0611677,13.4339222 47.087505,13.3002794 47.0874353,13.2902894 L47.0874353,13.2720559 L46.0504291,13.2720559 L46.0351297,13.423513 C46.0267465,13.5067864 45.986996,13.7820359 45.9469661,14.0352794 C45.8993912,14.3342116 45.850978,14.633004 45.8016567,14.9315868 C45.7729441,15.1038623 45.7445808,15.2761377 45.7164271,15.448483 L45.7034331,15.5291717 L45.6625649,15.5118463 C45.6400699,15.5022754 45.518024,15.4683932 45.391507,15.4366068 L45.1613872,15.3788323 L44.8464571,15.3542415 L44.5313872,15.3297206 L44.2649401,15.3544511 L43.998493,15.3793214 L43.7562176,15.4405888 L43.5139421,15.5017864 L43.2838224,15.6140519 L43.0535629,15.7263174 L42.8839421,15.8517166 L42.7143912,15.9772555 L42.5678942,16.1344411 C42.4873453,16.2207186 42.3710279,16.3636527 42.3092715,16.4518164 L42.1972156,16.6122854 L42.0654591,16.8862774 C41.9930838,17.0370359 41.9049202,17.2366267 41.8696407,17.3298902 C41.8342914,17.4232236 41.7721158,17.6299401 41.7312475,17.7893613 L41.6571257,18.0792814 L41.6205888,18.4556886 L41.5841218,18.8320259 L41.611507,19.1348004 L41.6391018,19.4377146 L41.6714471,19.5466966 C41.6894012,19.6066367 41.7269162,19.713523 41.755,19.784012 L41.8061377,19.9125549 L41.8994012,20.0387226 L41.9927345,20.1650299 L42.0992016,20.2522156 L42.2055988,20.3394711 L42.350978,20.4117066 C42.4310379,20.4512475 42.5650299,20.5026647 42.6490719,20.5256487 C42.7329042,20.5486327 42.8692016,20.5762974 42.9519162,20.586986 C43.0345609,20.5978842 43.2056487,20.608014 43.3323054,20.6095509 L43.3323054,20.6095509 Z M43.7453892,19.9223353 L43.5624251,19.9319062 L43.4390519,19.9097605 C43.3711477,19.8975349 43.262515,19.8647006 43.1975449,19.8368962 L43.0795509,19.7863872 L42.9802096,19.7049301 L42.8809381,19.6236128 L42.8071657,19.4822854 L42.7333234,19.3410279 L42.6996507,19.1835629 L42.6661178,19.0260279 L42.668982,18.7110978 L42.6717764,18.3961677 L42.7108982,18.117495 L42.7499501,17.8389621 L42.8106587,17.6452395 C42.8441218,17.5386327 42.8715768,17.4379641 42.8717166,17.4216168 C42.871996,17.4054092 42.9048303,17.3182236 42.945,17.2279641 C42.9919461,17.123523 43.0415469,17.0202695 43.0938024,16.9184132 C43.1356487,16.8384232 43.2137525,16.7138623 43.2672655,16.6414172 C43.320988,16.5691118 43.4166267,16.4600599 43.4797804,16.3990719 C43.5429341,16.3383633 43.6433234,16.2583733 43.7030539,16.2216966 L43.811477,16.15498 L44.001986,16.0891018 L44.192495,16.0231537 L44.5922355,16.0229441 L44.991976,16.0229441 L45.2220958,16.0868663 C45.3487525,16.1219361 45.4831637,16.1626647 45.5208184,16.1773353 L45.5893513,16.204022 L45.576008,16.2704591 C45.5687425,16.3070659 45.5398204,16.4678144 45.512016,16.6276547 C45.4842116,16.7875649 45.4293014,17.0928543 45.3901098,17.3060679 C45.3509182,17.5192814 45.2906986,17.8409182 45.2562575,18.0207385 C45.2218862,18.2005589 45.1720758,18.4295609 45.1455289,18.5293912 C45.1182834,18.6320858 45.0906188,18.7346407 45.0624651,18.836986 C45.0432535,18.9062176 44.997495,19.0262375 44.9608882,19.103503 C44.9242116,19.1807685 44.86001,19.2931737 44.8182335,19.3530439 C44.7763872,19.412984 44.7058982,19.4961876 44.6613273,19.5376846 C44.6166866,19.5793214 44.5202096,19.6530938 44.446996,19.7017864 L44.3137725,19.7904391 L44.1211677,19.8515669 L43.9285629,19.9126946 L43.7453892,19.9223353 L43.7453892,19.9223353 Z M8.0900998,20.4916966 L8.67867265,20.4916966 L8.72093812,20.2312575 C8.74413174,20.0879741 8.78954092,19.8126547 8.82174651,19.619491 L8.95497006,18.82001 C8.9960479,18.5734731 9.05766467,18.2082435 9.09182635,18.0084431 C9.12598802,17.8085729 9.18033932,17.4985329 9.21247505,17.3195509 C9.24468064,17.1403593 9.27716567,16.9877146 9.28457086,16.9803094 L9.29819361,16.9667565 L12.4637725,16.9667565 L12.4813772,16.9843613 L12.498982,17.0019661 L12.4714571,17.1418263 C12.4564371,17.2188124 12.4117964,17.4560579 12.3723253,17.6693413 C12.3328543,17.8825549 12.266487,18.2422655 12.2247804,18.4688922 C12.180978,18.7072555 12.1364072,18.9454092 12.0910679,19.183493 C12.0590719,19.3500399 11.9943812,19.6988523 11.9472954,19.9587325 C11.9002794,20.2185429 11.8618563,20.4447505 11.861996,20.4614471 L11.8622754,20.4916966 L13.0443812,20.4916966 L13.070509,20.3403792 C13.0849701,20.2571058 13.108024,20.1071856 13.121996,20.0072156 C13.1358283,19.9072455 13.1694311,19.694521 13.1964671,19.5347505 C13.223503,19.3749102 13.277505,19.0586527 13.3165569,18.8321657 C13.3555389,18.6056786 13.4209281,18.2185828 13.4617265,17.9720459 C13.502525,17.725509 13.563024,17.3657285 13.5962774,17.1726347 C13.6383333,16.9300798 13.6821357,16.6878044 13.7276148,16.4458782 C13.7666667,16.2393014 13.8317764,15.890489 13.8722954,15.670499 C13.9128144,15.4507186 13.9733832,15.1182535 14.0070559,14.9315868 C14.0407285,14.7450599 14.1020659,14.4070758 14.1434232,14.1805888 C14.1847804,13.9541018 14.2369661,13.6898204 14.2593912,13.5930639 L14.3001896,13.4173653 L13.1032735,13.4173653 L13.086996,13.5325649 C13.0781238,13.5957186 13.0492016,13.7729541 13.0227944,13.9262275 C12.9963174,14.0794311 12.9483932,14.3519561 12.9161178,14.5318463 C12.8838423,14.7118064 12.8248802,15.0551697 12.7850599,15.2950699 C12.746008,15.53001 12.7084232,15.7651597 12.6723054,16.0006587 L12.6319261,16.2700399 L11.7534331,16.2878543 L10.8748703,16.3055988 L10.1391018,16.2881337 C9.7344012,16.2785629 9.40102794,16.2687824 9.39823353,16.266477 C9.39550898,16.2641018 9.40927146,16.17 9.42883234,16.0572455 C9.45461078,15.9118663 9.48206587,15.7668363 9.5111976,15.6220858 C9.54836327,15.4365369 9.58448104,15.2507784 9.61948104,15.0647405 C9.65336327,14.8849202 9.69164671,14.661507 9.70471058,14.5681737 C9.71770459,14.47498 9.74501996,14.3195409 9.7653493,14.2229242 C9.78567864,14.1263772 9.82424152,13.9228743 9.85106786,13.7707884 C9.87782435,13.6186327 9.90639721,13.4768862 9.91457086,13.4558583 L9.92924152,13.4173653 L8.74196607,13.4173653 L8.70403194,13.6293912 C8.68307385,13.745988 8.6551996,13.9121856 8.64206587,13.9988124 C8.62886228,14.0853693 8.58464072,14.3634132 8.54377246,14.6165868 C8.50290419,14.8697605 8.44254491,15.2458882 8.40964072,15.4523952 L8.27669661,16.2882036 C8.22996008,16.5793812 8.18063872,16.8700699 8.12887226,17.1603393 C8.08576846,17.3987026 8.04182635,17.6369261 7.99704591,17.87501 C7.96553892,18.0416267 7.90552894,18.3577445 7.86361277,18.5776647 C7.81967066,18.8080639 7.77433134,19.0382535 7.72773453,19.2681637 C7.6949002,19.428004 7.65864271,19.6133433 7.64718563,19.67999 C7.63558882,19.7465669 7.59814371,19.9388224 7.56377246,20.1070459 C7.52947106,20.2751996 7.50138723,20.4305689 7.50138723,20.4522255 L7.50138723,20.491487 L8.0900998,20.491487 L8.0900998,20.4916966 L8.0900998,20.4916966 Z M14.6065269,20.4916267 L15.1276148,20.4916267 L15.1422854,20.4533433 C15.1504591,20.4321756 15.1570259,20.3769162 15.1570259,20.3305289 C15.1570259,20.284002 15.1898603,20.0422854 15.2298204,19.7934431 C15.3212675,19.2263174 15.4149501,18.6596108 15.5109381,18.0931836 C15.5520858,17.8545409 15.5953293,17.6163174 15.6408084,17.378513 C15.6793713,17.1787126 15.7386128,16.8679042 15.7724251,16.6881537 C15.8061677,16.5082635 15.8726747,16.166018 15.9201098,15.927515 C15.9675449,15.6891517 16.0122555,15.4845309 16.0194511,15.4728643 L16.0326547,15.4515569 L15.5056986,15.4580539 L14.9787425,15.4645509 L14.9347305,15.7796208 C14.9106986,15.9528044 14.8578842,16.2963074 14.817505,16.5427046 C14.7771956,16.7891717 14.7161377,17.1654391 14.6818363,17.378513 C14.6403393,17.6333633 14.5960479,17.8877944 14.5491018,18.1417365 C14.5103293,18.3482435 14.4509481,18.6643613 14.4170659,18.8442515 C14.3832535,19.0242116 14.3225449,19.3403992 14.2821657,19.5469062 C14.2417864,19.753483 14.1876447,20.026008 14.1617964,20.1525948 C14.1358782,20.2792515 14.1081437,20.4073054 14.1000399,20.4372754 L14.0854391,20.4916966 L14.6065269,20.4916966 L14.6065269,20.4916267 L14.6065269,20.4916267 Z M26.7943513,20.4916267 L27.3115269,20.4916267 L27.3271058,20.2727545 C27.3356986,20.1524551 27.3649002,19.9098303 27.3921457,19.7337126 C27.4193912,19.5575948 27.4752096,19.2064072 27.5160778,18.9533034 C27.5677745,18.6403293 27.6240818,18.3281238 27.685,18.0167565 C27.7371158,17.7549202 27.7958683,17.4946208 27.8157086,17.4383832 C27.8355489,17.3821457 27.8518263,17.3211577 27.8518263,17.302994 C27.8518263,17.2846208 27.8907385,17.1851397 27.9382435,17.0818862 C27.9857485,16.9785629 28.0742615,16.8203992 28.1350399,16.7303493 L28.245489,16.5665968 L28.3932435,16.4296707 L28.5410679,16.2928842 L28.7232635,16.2058383 L28.9055289,16.1187226 L29.1842016,16.1201896 L29.4626647,16.1216567 L29.5996607,16.162525 C29.6749701,16.18502 29.7431537,16.2034631 29.7510479,16.2034631 C29.759012,16.2034631 29.765509,16.1777545 29.765509,16.1462475 C29.765509,16.1148802 29.7928244,15.9553194 29.8260778,15.7917066 C29.8594012,15.6281637 29.8866467,15.4874651 29.8866467,15.479012 C29.8866467,15.4705589 29.8076347,15.4396108 29.711018,15.4102695 C29.6144012,15.3809281 29.4808283,15.3501896 29.4142515,15.3418762 L29.2931138,15.3269261 L29.1356487,15.3547305 C29.049022,15.3700998 28.9202695,15.4038423 28.849501,15.4299002 C28.7785928,15.4559581 28.6617166,15.5149202 28.5896208,15.5610279 C28.5176647,15.6071357 28.4054691,15.696976 28.3406387,15.7606188 C28.2755988,15.8243313 28.1663373,15.9528044 28.0977345,16.0460679 C28.0443613,16.118513 27.9912675,16.1912375 27.9384531,16.2641018 L27.9038024,16.312515 L27.9248303,16.2156188 C27.9364271,16.1622455 27.9687026,15.9878044 27.996507,15.8279641 C28.0242415,15.6680539 28.053024,15.5180639 28.0599401,15.4948703 L28.0729341,15.4523952 L27.1489621,15.4523952 L27.1489621,15.5108683 C27.1489621,15.5429341 27.1216467,15.7364471 27.0884631,15.9407884 C27.0550699,16.1453393 27.0000898,16.4868164 26.9663473,16.7000998 C26.9325349,16.9133134 26.8723852,17.2839222 26.8329142,17.5238224 C26.7907186,17.7785329 26.7462874,18.0329641 26.6994112,18.2869062 C26.6082435,18.7718762 26.51498,19.2564271 26.4196208,19.7405589 C26.3788224,19.9471357 26.32999,20.1909481 26.3111976,20.2826747 C26.2922655,20.3741916 26.2768962,20.4586527 26.2768962,20.4703194 L26.2768962,20.4916267 L26.7943513,20.4916267 L26.7943513,20.4916267 Z M39.072994,20.4916267 L39.6018363,20.4916267 L39.6018363,20.1678942 L39.6626846,19.766477 C39.6962874,19.5457884 39.7515469,19.1960679 39.7857086,18.9896307 C39.8197305,18.7830539 39.8622056,18.521497 39.88002,18.4081138 C39.8979042,18.2949401 39.9451996,18.0496607 39.98502,17.8631337 C40.0250499,17.6764671 40.0748603,17.4748503 40.0958882,17.4149102 C40.116986,17.3549701 40.1342415,17.2919561 40.1344511,17.2750499 C40.1348004,17.2581437 40.1797904,17.1493014 40.2347006,17.0331936 L40.3345309,16.8220758 L40.4663573,16.647006 L40.5980439,16.4720758 L40.7420958,16.3637226 C40.8213174,16.3040619 40.9488124,16.2251198 41.0254491,16.1879541 L41.1645409,16.1205389 L41.4673154,16.1225649 L41.7701597,16.1247305 L41.8894112,16.1629441 L42.0085928,16.2012974 L42.0287126,16.1887924 L42.0487625,16.1763573 L42.0499501,16.0990918 C42.0504391,16.0566168 42.0763573,15.8983832 42.1074451,15.747485 L42.1641717,15.4732136 L42.1004591,15.4483433 C42.0394012,15.4257784 41.9777844,15.4047505 41.9156088,15.3853293 L41.7945409,15.3471158 L41.576507,15.3477445 L41.3584731,15.3483034 L41.1807485,15.4108982 L41.003024,15.4733533 L40.8695908,15.5538323 L40.7362275,15.6343114 L40.5627645,15.816018 L40.3893014,15.9977246 L40.2961078,16.1387026 C40.2449002,16.2161776 40.1997705,16.2761876 40.1958583,16.2719261 C40.1918762,16.2676647 40.2198204,16.1061477 40.2577545,15.912984 C40.2956886,15.7196806 40.3272655,15.5370659 40.3278244,15.5070958 L40.3288723,15.4525349 L39.432495,15.4525349 L39.432495,15.4680439 C39.432495,15.476497 39.4102096,15.6319361 39.3828244,15.8132236 C39.355509,15.9947206 39.3005988,16.3447206 39.260988,16.5912575 C39.2133433,16.8861377 39.1650699,17.1808782 39.1162375,17.4755489 C39.0737625,17.7302595 39.0291218,17.9846906 38.9824551,18.2387026 C38.9488523,18.418523 38.8891218,18.7347804 38.8497206,18.9412874 C38.8103892,19.1478643 38.7456287,19.4803992 38.7059481,19.6802695 L38.5890719,20.2676547 L38.5442914,20.4916966 L39.072994,20.4916966 L39.072994,20.4916267 Z M15.6313772,14.5798403 L15.7783633,14.5803992 L15.8953094,14.5405788 L16.0123253,14.5007585 L16.1157884,14.3957585 L16.2193214,14.2908283 L16.2737425,14.1508982 L16.3283034,14.0110379 L16.3301896,13.8050898 L16.3321457,13.5992814 L16.2837325,13.5188723 L16.2352495,13.4384631 L16.1509281,13.3863473 L16.0665369,13.3340918 L15.7022854,13.3340918 L15.5782834,13.3896307 L15.4542814,13.4450299 L15.3823253,13.5221557 L15.3103693,13.5992814 L15.2537824,13.7325749 L15.1972655,13.8657285 L15.1865768,14.0732834 L15.1759581,14.2808383 L15.228493,14.3840918 L15.2811677,14.4872056 L15.3827445,14.5333134 L15.4842515,14.5793513 L15.6313772,14.5798403 L15.6313772,14.5798403 Z" id="Shape" fill="#000000"></path>
        </g>
    </g>
</svg>